<?xml version="1.0" encoding="UTF-8" standalone="no"?>
<svg
   xmlns:dc="http://purl.org/dc/elements/1.1/"
   xmlns:cc="http://creativecommons.org/ns#"
   xmlns:rdf="http://www.w3.org/1999/02/22-rdf-syntax-ns#"
   xmlns:svg="http://www.w3.org/2000/svg"
   xmlns="http://www.w3.org/2000/svg"
   xmlns:sodipodi="http://sodipodi.sourceforge.net/DTD/sodipodi-0.dtd"
   xmlns:inkscape="http://www.inkscape.org/namespaces/inkscape"
   version="1.1"
   id="svg2"
   xml:space="preserve"
   width="6666.6665"
   height="6666.6665"
   viewBox="0 0 6666.6665 6666.6665"
   sodipodi:docname="shutterstock_2132442111.eps"><metadata
     id="metadata8"><rdf:RDF><cc:Work
         rdf:about=""><dc:format>image/svg+xml</dc:format><dc:type
           rdf:resource="http://purl.org/dc/dcmitype/StillImage" /></cc:Work></rdf:RDF></metadata><defs
     id="defs6" /><sodipodi:namedview
     pagecolor="#ffffff"
     bordercolor="#666666"
     borderopacity="1"
     objecttolerance="10"
     gridtolerance="10"
     guidetolerance="10"
     inkscape:pageopacity="0"
     inkscape:pageshadow="2"
     inkscape:window-width="640"
     inkscape:window-height="480"
     id="namedview4" /><g
     id="g10"
     inkscape:groupmode="layer"
     inkscape:label="ink_ext_XXXXXX"
     transform="matrix(1.3333333,0,0,-1.3333333,0,6666.6667)"><g
       id="g12"
       transform="scale(0.1)"><path
         d="M 0,0 H 50000 V 50000 H 0 Z"
         style="fill:#ccffcc;fill-opacity:1;fill-rule:nonzero;stroke:none"
         id="path14" /><path
         d="m 30125.3,29881.9 c 916.8,0 1659.9,-1199.9 1659.9,-1199.9 0,0 -743.1,-1199.8 -1659.9,-1199.8 -916.7,0 -1659.9,537.2 -1659.9,1199.8 0,662.7 743.2,1199.9 1659.9,1199.9"
         style="fill:#fbb03b;fill-opacity:1;fill-rule:nonzero;stroke:none"
         id="path16" /><path
         d="m 30125.3,29881.9 v -101.1 c 103.6,0 205.4,-16.9 305.2,-47.2 174.5,-52.9 342.4,-147.3 495.4,-260.8 229.5,-170 424.5,-382.2 560.8,-551.4 68.1,-84.6 121.7,-158.4 158.1,-210.7 18.1,-26.2 32,-47 41.2,-61.1 4.6,-7 8,-12.4 10.3,-15.9 1.1,-1.8 1.9,-3.1 2.4,-3.9 l 0.6,-0.9 0.1,-0.1 v 0 0 l 76.8,47.6 -76.9,-47.6 h 0.1 l 76.8,47.6 -76.9,-47.6 85.9,53.2 -85.9,53.2 73.7,-45.6 -73.6,45.7 -0.1,-0.1 73.7,-45.6 -73.6,45.7 c 0,0 -0.6,-1 -2,-3.2 -10.4,-16.5 -63,-98.2 -149,-210.9 -129,-168.9 -334.2,-407.5 -583.4,-600.3 -124.5,-96.6 -259.9,-181.6 -401.2,-241.8 -141.5,-60.3 -288.4,-95.9 -438.5,-95.9 -219.3,0 -427.8,32.2 -616.6,89.9 -141.5,43.3 -272,100.9 -387.5,169.8 -173.4,103.4 -312.9,232.1 -408.1,375 -47.6,71.4 -84.2,146.4 -109,223.9 -24.7,77.5 -37.7,157.7 -37.7,240.2 0,73.4 10.3,144.8 29.9,214.3 34.4,121.4 97.8,237 186.7,342.9 133.3,158.6 324.4,294.7 554.9,390.4 230.3,95.8 499.6,151.2 787.4,151.2 v 101.1 101 c -239.1,0 -467.2,-35 -675.6,-98.7 -156.4,-47.8 -301.6,-111.8 -432,-189.6 -195.5,-116.6 -358,-264.5 -472.7,-436.4 -57.3,-85.9 -102.5,-177.9 -133.4,-274.5 -30.8,-96.6 -47.3,-197.9 -47.2,-301.7 -0.1,-92.3 12.9,-182.6 37.5,-269.3 43,-151.9 121.3,-292.8 226.5,-417.9 157.8,-187.6 375.7,-340.4 631.9,-447 256.3,-106.4 551.2,-166.6 865,-166.7 125.7,0 247.6,20.6 363.9,55.9 203.7,62 390.5,168.5 557,291.9 249.6,185.2 454.2,409 597.8,586.9 143.4,178 225.5,310.4 227.1,313 20.2,32.6 20.2,73.8 0,106.4 -1.2,2 -49.2,79.3 -135.4,194.7 -129.4,173.2 -344.2,432.1 -619.4,651.4 -137.7,109.5 -290.6,209.3 -456.7,282.3 -166,73 -345.7,119.3 -534.3,119.3 v -101"
         style="fill:#4d4d4d;fill-opacity:1;fill-rule:nonzero;stroke:none"
         id="path18" /><path
         d="m 15979.9,29653.9 c -26.1,-301.1 -40.6,-632.4 -40.6,-980.1 0,-347.9 14.5,-679.2 40.7,-980.3 -547.7,382.2 -721.7,746.9 -775.6,915.9 -6.2,19.3 -9.2,39.4 -9.2,59.7 0,27.4 4.2,54.6 12.9,80.5 58.1,173.6 236.2,530.7 771.8,904.3"
         style="fill:#29abe2;fill-opacity:1;fill-rule:nonzero;stroke:none"
         id="path20" /><path
         d="m 15979.9,29653.9 -100.6,8.7 c -26.5,-304.2 -41,-638.3 -41,-988.8 0,-350.7 14.5,-684.8 41.1,-989 l 100.6,8.7 57.8,82.9 c -265.6,185.3 -437.7,364.3 -549.6,515.2 -111.9,150.9 -163.7,273.9 -187.6,348.5 -2.9,9.1 -4.4,18.8 -4.4,29 0,17 2.7,33.3 7.7,48.5 25.9,77.1 79.8,199.6 191.8,348.4 112,148.7 282.3,323.8 542,505 l -57.8,82.9 -100.6,8.7 100.6,-8.7 -57.8,82.9 c -275.8,-192.5 -462.4,-382.7 -587.8,-549.3 -125.5,-166.5 -189.7,-309.3 -222,-405.8 -12.3,-36.7 -18.1,-74.8 -18.1,-112.6 0,-30.3 4.5,-60.9 13.9,-90.4 30.2,-94.4 92.3,-238.3 217.8,-407.5 125.5,-169.3 314.2,-363.7 596.3,-560.5 32.2,-22.5 74.4,-24.3 108.4,-4.6 34,19.7 53.5,57.1 50.1,96.2 -26,297.9 -40.4,626.4 -40.4,971.5 0,344.9 14.4,673.4 40.3,971.3 3.4,39.2 -16.1,76.6 -50.1,96.3 -34,19.6 -76.2,17.8 -108.4,-4.6 l 57.8,-82.9"
         style="fill:#4d4d4d;fill-opacity:1;fill-rule:nonzero;stroke:none"
         id="path22" /><path
         d="m 22913,30871.8 c 309.5,-13.4 599.7,-34.3 871.8,-61.8 712.2,-71.8 1300.5,-188.1 1786.5,-330.3 606.8,-177.5 1054,-395.5 1383.7,-617.9 385.6,-260.2 610.1,-526.4 740.6,-741.1 139.7,-230.2 171.4,-401.3 177.3,-442.2 h 1.2 c 0,0 -0.1,-1.6 -0.5,-4.7 0.4,-3.1 0.5,-4.8 0.5,-4.8 h -1.2 c -5.9,-40.9 -37.6,-212 -177.3,-442.1 -130.5,-214.8 -355,-481 -740.7,-741.1 -329.7,-222.5 -776.9,-440.4 -1383.6,-618 h -0.1 c -486,-142.1 -1074.3,-258.3 -1786.4,-330.2 -272.1,-27.4 -562.3,-48.4 -871.8,-61.8 -426.6,-18.5 -889.9,-22.7 -1392.9,-10 -137.1,3.4 -271.3,7.9 -402.6,13.2 -2030,83 -3366.7,386.3 -4246.6,743.6 -373.1,151.5 -664.1,312.7 -890.9,470.9 -26.2,301.1 -40.7,632.4 -40.7,980.3 0,347.7 14.5,679 40.6,980.1 226.8,158.3 517.8,319.5 891,471 879.9,357.4 2216.6,660.7 4246.6,743.6 131.3,5.5 265.5,9.9 402.6,13.3 503,12.8 966.2,8.5 1392.9,-10"
         style="fill:#ffffff;fill-opacity:1;fill-rule:nonzero;stroke:none"
         id="path24" /><path
         d="m 22913,30871.8 -4.4,-100.9 c 307.7,-13.4 596,-34.1 866.1,-61.4 706.9,-71.3 1289.1,-186.6 1768.2,-326.7 598.3,-175.1 1035.7,-389 1355.6,-604.8 374.1,-252.5 587.6,-507.4 710.8,-709.8 l -0.1,0.1 c 65.9,-108.5 105.7,-202.1 129.6,-272.3 23.9,-70.2 32,-117.1 34.1,-131.8 7.1,-49.8 49.7,-86.7 100,-86.7 h 1.2 v 101 l -100.8,6.1 64.4,-3.9 -64.3,6 c 0,-0.3 -0.1,-1 -0.1,-2.1 l 64.4,-3.9 -64.3,6 11.8,-1.1 -11.8,1.3 v -0.2 l 11.8,-1.1 -11.8,1.3 v -0.3 c -1.1,-8.4 -1.1,-17.7 0,-26.1 l 0.9,0.2 -0.9,-0.1 v -0.1 l 0.9,0.2 -0.9,-0.1 50.2,5.6 -50.4,-2.9 c 0.1,-1.7 0.2,-2.5 0.2,-2.7 l 50.2,5.6 -50.4,-2.9 100.9,5.7 v 101.1 h -1.2 c -50.3,0 -92.9,-37 -100,-86.8 -2.1,-14.7 -10.2,-61.6 -34.1,-131.8 -23.9,-70.2 -63.7,-163.7 -129.6,-272.2 v 0.1 c -123.1,-202.5 -336.6,-457.4 -710.8,-709.8 v 0 c -319.9,-215.9 -757.3,-429.7 -1355.5,-604.8 l 28.4,-97 v 101 h -0.1 c -9.5,0 -19.3,-1.4 -28.4,-4 -479.1,-140.1 -1061.3,-255.4 -1768.1,-326.6 -270.1,-27.3 -558.4,-48.1 -866.1,-61.5 -259.9,-11.2 -533.8,-17.2 -822.2,-17.2 -182,0 -369.9,2.4 -563.8,7.3 -136.6,3.4 -270.2,7.8 -400.9,13.2 -2021.9,82.5 -3347.5,384.7 -4212.8,736.2 -366.9,149 -651.1,306.8 -871.1,460.2 l -57.8,-82.9 100.7,8.8 c -26,297.9 -40.4,626.4 -40.4,971.5 0,344.9 14.4,673.4 40.3,971.3 l -100.7,8.8 57.9,-82.9 c 219.9,153.6 504.1,311.4 871.1,460.3 v 0 c 865.3,351.5 2190.9,653.7 4212.8,736.3 v 0 c 130.7,5.4 264.3,9.8 400.9,13.2 v 0 c 193.9,4.9 381.8,7.3 563.8,7.3 288.4,0 562.2,-5.9 822.2,-17.2 l 4.4,100.9 4.4,101 c -263.1,11.4 -539.8,17.4 -831,17.4 -183.8,0 -373.4,-2.4 -568.9,-7.4 v 0 c -137.6,-3.4 -272.3,-7.9 -404.2,-13.3 h 0.1 c -2038.2,-83.4 -3385.9,-387.8 -4280.5,-751 v 0 c -379.4,-153.9 -677.1,-318.7 -910.8,-481.8 -24.6,-17.1 -40.2,-44.2 -42.8,-74.1 -26.5,-304.2 -41,-638.3 -41,-988.8 0,-350.7 14.5,-684.8 41.1,-989 2.6,-29.9 18.3,-57 42.8,-74.1 233.7,-163 531.4,-327.7 910.7,-481.7 894.6,-363.2 2242.3,-667.5 4280.5,-750.9 131.8,-5.4 266.5,-9.9 404.1,-13.3 195.5,-5 385.1,-7.3 568.9,-7.3 291.2,0 568,6 831,17.4 311.2,13.5 603.4,34.5 877.6,62.2 717.3,72.4 1311.7,189.7 1804.5,333.7 l -28.3,97 v -101 h 0.1 c 9.4,0 19.3,1.4 28.3,4 615.3,180.1 1072.4,402.2 1411.8,631.3 v 0 c 397.1,267.6 632.6,545.2 770.5,772.3 v 0.1 c 73.9,121.6 119.8,228.7 148.2,311.8 28.3,83.1 39.1,142.2 42.8,168.4 l -100,14.3 v -101 h 1.2 c 27.8,0 54.4,11.5 73.5,31.6 19,20.2 29,47.4 27.4,75.2 -0.1,2.2 -0.5,6.4 -1.2,12.2 l -100.2,-13.2 100.2,-12.8 c 0.7,5.4 1,9.2 1.2,11.4 1.6,27.7 -8.3,55.1 -27.3,75.4 -19,20.2 -45.8,31.7 -73.6,31.7 h -1.2 v -101 l 100,14.3 c -3.7,26.2 -14.5,85.3 -42.8,168.4 -28.4,83.1 -74.3,190.2 -148.1,312 h -0.1 c -137.9,227 -373.4,504.6 -770.4,772.4 -339.4,228.9 -796.5,451.1 -1411.9,631.1 -492.8,144.2 -1087.2,261.5 -1804.7,333.8 -274.1,27.7 -566.3,48.8 -877.5,62.3 l -4.4,-101"
         style="fill:#4d4d4d;fill-opacity:1;fill-rule:nonzero;stroke:none"
         id="path26" /><path
         d="m 21479.9,26568.1 c -119.8,3.2 -240.1,7.2 -358.2,12.1 -93.5,3.8 -185.8,8.1 -277.4,12.9 v 201.3 c 86.6,-4.5 174.1,-8.5 262.3,-12.1 132.5,-5.5 267.7,-9.9 401.8,-13.3 82.9,-2.1 165.3,-3.7 247,-4.9 -97.8,-61 -189.6,-126.7 -275.5,-196 m -837.6,36.5 c -1508.4,92.4 -2737.5,321.6 -3660.3,682.7 8,59.7 15.5,121 22.5,184 922.7,-351.9 2144.1,-575.3 3637.8,-665.6 v -201.1 m 4346.7,220.8 c -102.3,51.5 -209.3,98.3 -321,139.9 164.4,29.7 323.3,62.5 476.3,98.5 11.1,-11.8 23.5,-22.8 36.9,-32.8 l 37.5,50.7 v 0 l -37.5,-50.7 163.3,-121 c -114.9,-30.1 -233.5,-58.3 -355.5,-84.6 m 1950.4,772.4 -206.6,70.4 c 56.5,33.6 111.1,68.2 163.7,103.6 76.8,51.7 149.2,105 216.9,159.8 v -149.9 c 0,-16.7 1.9,-33.1 5.5,-48.9 -56.6,-46.1 -116.5,-91.1 -179.5,-135"
         style="fill:#b2b2b2;fill-opacity:1;fill-rule:nonzero;stroke:none"
         id="path28" /><path
         d="m 26248.2,28774.8 h -9282.7 c -55.8,0 -101,-45.2 -101,-101 0,-55.8 45.2,-101 101,-101 h 9282.7 c 55.8,0 101,45.2 101,101 0,55.8 -45.2,101 -101,101"
         style="fill:#4d4d4d;fill-opacity:1;fill-rule:nonzero;stroke:none"
         id="path30" /><path
         d="m 28571.8,29274.9 v -1202.3 c 0,-66.6 -54.6,-121.2 -121.3,-121.2 h -525.4 c -66.6,0 -121.2,54.6 -121.2,121.2 v 1202.3 c 0,66.7 54.6,121.3 121.2,121.3 h 525.4 c 66.7,0 121.3,-54.6 121.3,-121.3"
         style="fill:#999999;fill-opacity:1;fill-rule:nonzero;stroke:none"
         id="path32" /><path
         d="m 28571.8,29274.9 h -101.1 v -1202.3 c 0,-2.8 -0.5,-5.1 -1.5,-7.5 -1.5,-3.5 -4.3,-7 -7.7,-9.3 -3.4,-2.2 -6.8,-3.3 -11,-3.4 h -525.4 c -2.8,0 -5.2,0.6 -7.5,1.6 -3.5,1.4 -7,4.2 -9.3,7.6 -2.2,3.5 -3.3,6.8 -3.4,11 v 1202.3 c 0,2.9 0.6,5.2 1.6,7.6 1.4,3.5 4.2,7 7.6,9.2 3.5,2.3 6.8,3.4 11,3.4 h 525.4 c 2.9,0 5.2,-0.5 7.6,-1.5 3.5,-1.4 6.9,-4.3 9.2,-7.6 2.3,-3.5 3.4,-6.8 3.4,-11.1 h 101.1 101 c 0,30.5 -6.3,60 -17.6,86.6 -17,40 -45,73.6 -80.4,97.6 -35.3,23.9 -78.5,38.1 -124.3,38.1 h -525.4 c -30.4,0 -59.9,-6.3 -86.5,-17.6 -40,-17 -73.6,-45 -97.6,-80.4 -23.9,-35.2 -38.2,-78.5 -38.1,-124.3 v -1202.3 c -0.1,-30.4 6.2,-59.9 17.6,-86.5 17,-40 45,-73.6 80.3,-97.6 35.3,-23.9 78.6,-38.2 124.3,-38.1 h 525.4 c 30.5,0 60,6.3 86.6,17.6 39.9,17 73.6,45 97.5,80.3 24,35.3 38.2,78.6 38.2,124.3 v 1202.3 h -101"
         style="fill:#4d4d4d;fill-opacity:1;fill-rule:nonzero;stroke:none"
         id="path34" /><path
         d="m 28086.8,29565.9 v -1784.2 c 0,-66.7 -54.6,-121.2 -121.3,-121.2 h -629.8 c -66.7,0 -121.2,54.5 -121.2,121.2 v 1784.2 c 0,66.7 54.5,121.2 121.2,121.2 h 629.8 c 66.7,0 121.3,-54.5 121.3,-121.2"
         style="fill:#999999;fill-opacity:1;fill-rule:nonzero;stroke:none"
         id="path36" /><path
         d="m 28086.8,29565.9 h -101.1 v -1784.2 c 0,-2.8 -0.5,-5.2 -1.5,-7.5 -1.4,-3.6 -4.3,-7 -7.6,-9.3 -3.5,-2.2 -6.8,-3.4 -11.1,-3.4 h -629.8 c -2.9,0 -5.2,0.5 -7.5,1.5 -3.6,1.5 -7,4.3 -9.3,7.7 -2.2,3.4 -3.4,6.8 -3.4,11 v 1784.2 c 0,2.8 0.5,5.2 1.5,7.5 1.5,3.5 4.3,7 7.7,9.3 3.4,2.2 6.8,3.3 11,3.4 h 629.8 c 2.9,-0.1 5.2,-0.6 7.6,-1.6 3.5,-1.4 7,-4.2 9.2,-7.6 2.3,-3.5 3.4,-6.8 3.4,-11 h 101.1 101 c 0,30.4 -6.3,59.9 -17.6,86.5 -17,40 -45,73.6 -80.4,97.6 -35.2,23.9 -78.5,38.2 -124.3,38.1 h -629.8 c -30.5,0 -59.9,-6.3 -86.6,-17.6 -39.9,-17 -73.5,-45 -97.5,-80.3 -23.9,-35.3 -38.2,-78.6 -38.2,-124.3 v -1784.2 c 0,-30.5 6.3,-60 17.7,-86.6 17,-39.9 45,-73.6 80.3,-97.5 35.3,-24 78.5,-38.2 124.3,-38.2 h 629.8 c 30.5,0 60,6.3 86.6,17.7 40,17 73.6,45 97.6,80.3 23.9,35.3 38.2,78.5 38.1,124.3 v 1784.2 h -101"
         style="fill:#4d4d4d;fill-opacity:1;fill-rule:nonzero;stroke:none"
         id="path38" /><path
         d="m 28470.7,29188.5 c -0.6,0.1 -1.2,0.1 -1.8,0.2 -3.2,6.9 -10.4,12 -18.4,12 h -186.6 c -25.5,1.3 -50.8,2.6 -76.1,3.9 v 90.3 h 262.7 c 10.9,0 20.2,-9.3 20.2,-20.2 v -86.2"
         style="fill:#b8b8b8;fill-opacity:1;fill-rule:nonzero;stroke:none"
         id="path40" /><path
         d="m 27315.5,29471.3 v 94.3 c 0,11 9.3,20.2 20.2,20.2 h 629.9 c 10.5,0 19.5,-8.6 20.1,-19.1 0,-0.3 0,-0.5 0,-0.8 v -93.9 c -0.3,10.7 -9.5,19.5 -20.1,19.5 h -629.9 c -10.9,0 -20.2,-9.2 -20.2,-20.2"
         style="fill:#b8b8b8;fill-opacity:1;fill-rule:nonzero;stroke:none"
         id="path42" /><path
         d="m 27985.8,29471.3 c 0,0.3 0,0.5 -0.1,0.7 v 93.9 c 0,0.3 0,0.5 0,0.8 0,-0.4 0.1,-0.7 0.1,-1.1 v -94.3"
         style="fill:#838383;fill-opacity:1;fill-rule:nonzero;stroke:none"
         id="path44" /><path
         d="m 28450.5,28052.4 h -262.7 v 90.6 c 23.4,1.2 46.8,2.4 70.3,3.6 h 192.4 c 8.2,0 15.4,5.2 18.5,12.3 0.6,0.1 1.1,0.1 1.7,0.1 v -86.4 c 0,-2.8 -0.5,-5.1 -1.5,-7.5 -1.5,-3.5 -4.3,-7 -7.7,-9.3 -3.4,-2.2 -6.8,-3.3 -11,-3.4"
         style="fill:#6b6b6b;fill-opacity:1;fill-rule:nonzero;stroke:none"
         id="path46" /><path
         d="m 28450.5,28052.3 h -262.7 v 0.1 h 262.7 c 4.2,0.1 7.6,1.2 11,3.4 3.4,2.3 6.2,5.8 7.7,9.3 1,2.4 1.5,4.7 1.5,7.5 v 86.4 0 -86.5 c 0,-10.9 -9.3,-20.2 -20.2,-20.2"
         style="fill:#363636;fill-opacity:1;fill-rule:nonzero;stroke:none"
         id="path48" /><path
         d="m 27965.5,27761.5 h -629.8 c -2.9,0 -5.2,0.5 -7.5,1.5 -3.6,1.5 -7,4.3 -9.3,7.7 -1,1.6 -1.8,3.2 -2.4,4.8 -0.3,1 -0.6,2.1 -0.7,3.1 h -0.1 c 0,0.1 0,0.1 0,0.1 -0.1,1 -0.2,2 -0.2,3 v 94.2 c 0,-11 9.3,-20.2 20.2,-20.2 h 629.9 c 10.6,0 19.8,8.8 20.1,19.6 v -93.6 c 0,-2.8 -0.5,-5.2 -1.5,-7.5 -1.4,-3.6 -4.3,-7 -7.6,-9.3 -3.5,-2.2 -6.8,-3.4 -11.1,-3.4"
         style="fill:#6b6b6b;fill-opacity:1;fill-rule:nonzero;stroke:none"
         id="path50" /><path
         d="m 27965.6,27761.5 h -629.9 c -8.8,0 -16.5,5.9 -19.2,14 0.6,-1.6 1.4,-3.2 2.4,-4.8 2.3,-3.4 5.7,-6.2 9.3,-7.7 2.3,-1 4.6,-1.5 7.5,-1.5 h 629.8 c 4.3,0 7.6,1.2 11.1,3.4 3.3,2.3 6.2,5.7 7.6,9.3 1,2.3 1.5,4.7 1.5,7.5 v 93.6 c 0.1,0.2 0.1,0.4 0.1,0.6 v -94.2 c 0,-11 -9.3,-20.2 -20.2,-20.2 m -649.8,17.1 h -0.1 0.1 m -0.1,0.1 c -0.1,1 -0.2,2 -0.2,3 v 0 c 0,-1 0.1,-2 0.2,-3"
         style="fill:#363636;fill-opacity:1;fill-rule:nonzero;stroke:none"
         id="path52" /><path
         d="m 16870.9,30124.9 c 59.6,-409.6 94.6,-910.4 94.6,-1451.1 0,-540.9 -35,-1041.6 -94.6,-1451.2 -373.1,151.5 -664.1,312.7 -890.9,470.9 -26.2,301.1 -40.7,632.4 -40.7,980.3 0,347.7 14.5,679 40.6,980.1 226.8,158.3 517.8,319.5 891,471"
         style="fill:#29abe2;fill-opacity:1;fill-rule:nonzero;stroke:none"
         id="path54" /><path
         d="m 16870.9,30124.9 -100,-14.6 c 58.8,-403.6 93.6,-900.2 93.6,-1436.5 0,-536.5 -34.8,-1033 -93.6,-1436.6 l 100,-14.6 38,93.6 c -366.9,149 -651.1,306.8 -871.1,460.2 l -57.8,-82.9 100.7,8.8 c -26,297.9 -40.4,626.4 -40.4,971.5 0,344.9 14.4,673.4 40.3,971.3 l -100.7,8.8 57.9,-82.9 c 219.9,153.6 504.1,311.4 871.1,460.3 l -38,93.6 -100,-14.6 100,14.6 -38,93.6 c -379.4,-153.9 -677.1,-318.7 -910.8,-481.8 -24.6,-17.1 -40.2,-44.2 -42.8,-74.1 -26.5,-304.2 -41,-638.3 -41,-988.8 0,-350.7 14.5,-684.8 41.1,-989 2.6,-29.9 18.3,-57 42.8,-74.1 233.7,-163 531.4,-327.7 910.7,-481.7 28.8,-11.7 61.3,-9.5 88.2,6 27,15.4 45.3,42.4 49.8,73.1 60.5,415.5 95.6,920.4 95.6,1465.7 0,545.1 -35.1,1050.1 -95.6,1465.7 -4.5,30.7 -22.8,57.6 -49.7,73.1 -27,15.4 -59.5,17.6 -88.3,5.9 l 38,-93.6"
         style="fill:#4d4d4d;fill-opacity:1;fill-rule:nonzero;stroke:none"
         id="path56" /><path
         d="m 15862.3,27908.6 c -364.8,297.3 -501.7,566.3 -550.8,700.1 9.3,20.3 20.1,42.1 32.5,65.2 81.1,-151.9 231.8,-363.2 508.4,-590.6 0.1,-1.4 0.1,-2.9 0.2,-4.3 0.9,-17.7 1.8,-35.4 2.8,-52.9 0.7,-13 1.4,-25.9 2.2,-38.8 0.6,-10.8 1.2,-21.6 1.9,-32.3 0.6,-10.6 1.3,-21.2 1.9,-31.7 v -0.5 c 0.3,-4.8 0.6,-9.4 0.9,-14.2"
         style="fill:#1d779e;fill-opacity:1;fill-rule:nonzero;stroke:none"
         id="path58" /><path
         d="m 15859.5,27955 c -0.7,10.7 -1.3,21.5 -1.9,32.3 0.6,-10.8 1.2,-21.6 1.9,-32.3"
         style="fill:#363636;fill-opacity:1;fill-rule:nonzero;stroke:none"
         id="path60" /><path
         d="m 15302.7,28634.1 c -0.7,2.1 -1.4,4.2 -2,6.2 -2.9,9.1 -4.5,18.8 -4.5,28.9 0,1.6 0.1,3.1 0.1,4.7 0.4,-13.8 2.6,-27.1 6.4,-39.8"
         style="fill:#1d779e;fill-opacity:1;fill-rule:nonzero;stroke:none"
         id="path62" /><path
         d="m 15296.2,28669.2 c 0,0.1 0,0.1 0,0.1 0,1.5 0.1,3.1 0.1,4.6 v 0 c 0,-1.6 -0.1,-3.1 -0.1,-4.7"
         style="fill:#363636;fill-opacity:1;fill-rule:nonzero;stroke:none"
         id="path64" /><path
         d="m 15303.7,28716.7 c 0.1,0.3 0.2,0.6 0.2,0.9 2.3,6.8 4.9,14 7.6,21.6 0,0 0,0 0,-0.1 -2.9,-7.9 -5.5,-15.4 -7.8,-22.4"
         style="fill:#1d779e;fill-opacity:1;fill-rule:nonzero;stroke:none"
         id="path66" /><path
         d="m 15302.7,28713.8 c 0.4,1.3 0.8,2.6 1.2,3.9 2.3,6.9 4.9,14 7.6,21.5 v 0 c -2.7,-7.6 -5.3,-14.8 -7.6,-21.6 0,-0.3 -0.1,-0.6 -0.2,-0.9 -0.4,-1 -0.7,-1.9 -1,-2.9"
         style="fill:#363636;fill-opacity:1;fill-rule:nonzero;stroke:none"
         id="path68" /><path
         d="m 15311.5,28608.7 c -2.7,7.5 -5.3,14.6 -7.6,21.5 -0.4,1.3 -0.8,2.6 -1.2,3.9 2.6,-7.8 5.5,-16.3 8.8,-25.4 v 0 m 32.5,65.2 c -12.4,23.2 -23.2,45 -32.5,65.2 46,125.3 168.9,369.1 483.9,643.7 21.4,18.6 43.7,37.4 66.9,56.3 -0.3,-4.7 -0.6,-9.3 -0.9,-14 v -0.5 c -0.2,-3.2 -0.4,-6.4 -0.6,-9.7 -1.4,-22.2 -2.7,-44.5 -4,-67 -0.5,-8.7 -1,-17.4 -1.4,-26.1 -1,-17.5 -1.9,-35.2 -2.8,-52.9 -0.1,-1.4 -0.1,-2.9 -0.2,-4.3 -276.6,-227.4 -427.3,-438.7 -508.4,-590.7"
         style="fill:#6ac4eb;fill-opacity:1;fill-rule:nonzero;stroke:none"
         id="path70" /><path
         d="m 15795.4,29382.8 c 21.4,18.7 43.7,37.5 66.9,56.5 0,-0.1 0,-0.1 0,-0.2 -23.2,-18.9 -45.5,-37.7 -66.9,-56.3"
         style="fill:#838383;fill-opacity:1;fill-rule:nonzero;stroke:none"
         id="path72" /><path
         d="m 15856.8,29347.9 c 1.3,22.5 2.6,44.8 4,67 -1.4,-22.3 -2.7,-44.6 -4,-67"
         style="fill:#838383;fill-opacity:1;fill-rule:nonzero;stroke:none"
         id="path74" /><path
         d="m 15296.3,28673.9 c 0,1.6 -0.1,3.1 -0.1,4.7 0,10.1 1.5,19.9 4.5,29 0.6,2 1.3,4.1 2,6.2 -3.8,-12.7 -6,-26.1 -6.4,-39.9"
         style="fill:#838383;fill-opacity:1;fill-rule:nonzero;stroke:none"
         id="path76" /><path
         d="m 15311.5,28608.7 c -3.3,9.1 -6.2,17.6 -8.8,25.4 -3.8,12.7 -6,26 -6.4,39.8 0.4,14.9 2.9,29.3 7.4,42.8 2.3,7 4.9,14.5 7.8,22.4 9.3,-20.2 20.1,-42 32.5,-65.2 -12.4,-23.1 -23.2,-44.9 -32.5,-65.2"
         style="fill:#61a0bb;fill-opacity:1;fill-rule:nonzero;stroke:none"
         id="path78" /><path
         d="m 15296.3,28673.9 v 0 c 0.4,13.8 2.6,27.2 6.4,39.9 0.3,1 0.6,1.9 1,2.9 -4.5,-13.5 -7,-27.9 -7.4,-42.8"
         style="fill:#737373;fill-opacity:1;fill-rule:nonzero;stroke:none"
         id="path80" /><path
         d="m 16064.4,29431.8 c 0.2,2.7 0.3,5.5 0.5,8.2 0.3,4.6 0.6,9.1 0.9,13.6 0.4,5.7 0.8,11.5 1.2,17.2 0.3,3.7 0.5,7.5 0.8,11.2 0.7,10.8 1.5,21.6 2.3,32.4 0.3,3.7 0.6,7.5 0.9,11.3 1.5,20.8 3.1,41.4 4.8,62 0.2,3.4 0.5,6.7 0.9,10.1 188.8,127.8 422.5,258 711.9,383.1 6.2,-49.2 12.1,-99.6 17.7,-151 -279.3,-120.9 -527.9,-254.5 -741.9,-398.1"
         style="fill:#6ac4eb;fill-opacity:1;fill-rule:nonzero;stroke:none"
         id="path82" /><path
         d="m 16064.9,29440 c 0.3,4.6 0.6,9.1 0.9,13.6 -0.3,-4.5 -0.6,-9 -0.9,-13.6 m 2.9,42 c 0.7,10.8 1.5,21.6 2.3,32.4 -0.8,-10.8 -1.6,-21.6 -2.3,-32.4 m 8.9,115.8 c 0,0.1 0,0.1 0,0.2 204.7,138.4 443.4,266.9 711.9,383.1 6.3,-49.5 12.2,-99.8 17.8,-151.1 -0.1,-0.1 -0.1,-0.1 -0.1,-0.1 -5.6,51.4 -11.5,101.8 -17.7,151 -289.4,-125.1 -523.1,-255.3 -711.9,-383.1"
         style="fill:#838383;fill-opacity:1;fill-rule:nonzero;stroke:none"
         id="path84" /><path
         d="m 22913,30871.8 c 309.5,-13.4 599.7,-34.3 871.8,-61.8 69.3,-594.6 110.4,-1334.5 110.4,-2136.3 0,-801.7 -41.1,-1541.5 -110.4,-2136.1 -272.1,-27.5 -562.3,-48.4 -871.8,-61.8 -73.9,604.8 -117.8,1368.2 -117.8,2197.9 0,829.9 44,1593.3 117.8,2198.1"
         style="fill:#29abe2;fill-opacity:1;fill-rule:nonzero;stroke:none"
         id="path86" /><path
         d="m 22913,30871.8 -4.4,-100.9 c 307.7,-13.4 596,-34.2 866.1,-61.4 l 10.1,100.5 -100.4,-11.7 c 68.8,-589.7 109.8,-1326.3 109.8,-2124.6 0,-798.2 -41,-1534.8 -109.8,-2124.4 l 100.4,-11.7 -10.1,100.5 c -270.1,-27.2 -558.4,-48 -866.1,-61.4 l 4.4,-100.9 100.3,12.2 c -73.2,599.5 -117.1,1359.6 -117.1,2185.7 0,826.3 44,1586.4 117.1,2185.9 l -100.3,12.2 -4.4,-100.9 4.4,100.9 -100.3,12.2 c -74.4,-610 -118.5,-1376.7 -118.5,-2210.3 0,-833.4 44,-1600.1 118.5,-2210.2 6.4,-52.3 52,-91 104.7,-88.7 311.2,13.5 603.4,34.6 877.6,62.3 47,4.7 84.7,41.8 90.2,88.8 69.8,599.5 111,1342.6 111.1,2147.8 -0.1,805.3 -41.3,1548.5 -111.1,2148 -5.5,46.9 -43.2,84.1 -90.2,88.8 -274.2,27.7 -566.4,48.7 -877.6,62.2 -52.7,2.3 -98.3,-36.3 -104.7,-88.7 l 100.3,-12.2"
         style="fill:#4d4d4d;fill-opacity:1;fill-rule:nonzero;stroke:none"
         id="path88" /><path
         d="m 23709.4,30565.4 c -232.8,21.5 -475,38.7 -723.2,51.3 5.2,50.9 10.5,100.8 16.1,149.8 242.5,-11.8 472.8,-28.4 691.3,-49.1 5.5,-49.7 10.7,-100.4 15.8,-152"
         style="fill:#6ac4eb;fill-opacity:1;fill-rule:nonzero;stroke:none"
         id="path90" /><path
         d="m 23709.4,30565.4 v 0 c -5.1,51.6 -10.3,102.3 -15.8,152 -218.5,20.7 -448.8,37.3 -691.3,49.1 -5.6,-49 -10.9,-98.9 -16.1,-149.8 -0.1,0 -0.1,0 -0.2,0 5.3,50.8 10.7,100.9 16.3,150.4 237.9,-11.7 469.8,-28.1 691.3,-49.2 5.5,-50.1 10.8,-101 15.8,-152.5"
         style="fill:#838383;fill-opacity:1;fill-rule:nonzero;stroke:none"
         id="path92" /><path
         d="m 20844.3,26497.2 v 4353.1 c 0,55.8 -45.2,101 -101,101 -55.8,0 -101,-45.2 -101,-101 v -797.3 -890.9 -976.6 -890.9 -797.4 c 0,-55.8 45.2,-101 101,-101 55.8,0 101,45.2 101,101"
         style="fill:#4d4d4d;fill-opacity:1;fill-rule:nonzero;stroke:none"
         id="path94" /><path
         d="m 27453.2,29123.1 c 1212.5,0 3186,-201.2 3186,-449.3 0,-248.2 -1973.5,-449.3 -3186,-449.3 -1212.6,0 -1205,201.1 -1205,449.3 0,248.1 -7.6,449.3 1205,449.3"
         style="fill:#c1272d;fill-opacity:1;fill-rule:nonzero;stroke:none"
         id="path96" /><path
         d="m 27453.2,29123.1 v -101 c 600.8,0 1395.2,-50.1 2035.1,-130.8 159.9,-20.2 310.2,-42.2 445.2,-65.8 101.2,-17.7 193.8,-36.2 275.2,-55.3 61,-14.3 115.7,-28.9 162.7,-43.6 35.2,-10.9 66.2,-21.9 91.9,-32.6 19.3,-7.9 35.7,-15.7 48.7,-22.8 9.7,-5.3 17.5,-10.2 23,-14.2 4.2,-3 7.1,-5.5 8.7,-7.1 l 1.3,-1.3 0.3,-0.3 20.3,16.3 -23.9,-9.7 c 1.8,-4.5 3.5,-6.5 3.6,-6.6 l 20.3,16.3 -23.9,-9.7 46.8,18.9 h -50.3 c -0.1,-7.4 1.7,-14.5 3.5,-18.9 l 46.8,18.9 h -50.3 48.4 l -43.7,21.5 c -2.1,-4.1 -4.8,-12.4 -4.7,-21.5 h 48.4 l -43.7,21.5 22.6,-11.1 -20.4,14.8 c -0.4,-0.5 -1.2,-1.7 -2.2,-3.7 l 22.6,-11.1 -20.4,14.8 6.4,-4.7 -6.3,5 -0.1,-0.3 6.4,-4.7 -6.3,5 c -0.2,-0.4 -2.6,-2.9 -7.3,-6.5 -9.1,-7.1 -26.6,-17.8 -50.7,-28.8 -22.6,-10.5 -50.9,-21.6 -83.9,-32.7 -62,-21 -140.5,-42.1 -231.4,-62.4 -159.1,-35.5 -356.3,-68.8 -575.1,-98.4 -656.6,-89 -1508.3,-145.1 -2143.6,-145 -296.6,0 -518,12.2 -680.4,33.6 -121.8,15.9 -210.3,37.2 -271.6,60.2 -46.1,17.3 -76.5,35.2 -96.3,51.4 -14.9,12.3 -24.1,23.3 -31.1,34.6 -5.2,8.5 -9.3,17.2 -12.6,27.3 -5,15.1 -8.3,33.4 -10,55.5 -1.8,22.1 -2,47.8 -2,76.5 0,3 0,6 0,9.2 0,3.2 0,6.2 0,9.2 0,30.2 0.2,57.1 2.3,80 1.7,20.1 4.8,36.8 9.3,50.9 4,12.3 8.9,22.6 15.8,32.8 6.1,8.9 13.8,17.8 25,27.4 19.4,16.7 49.9,35.4 97.5,53.4 71.1,27.1 179.6,51.6 335.1,68.3 155.6,16.8 358.2,26.3 619,26.3 v 101 101.1 c -302.2,-0.1 -530.9,-12.3 -706.7,-35.4 -131.9,-17.3 -234.1,-40.6 -316.2,-71.3 -61.5,-23.1 -112.1,-50.6 -153.3,-84.2 -30.9,-25.2 -56.1,-54 -75,-84.7 -14.3,-22.9 -25,-46.8 -32.7,-70.4 -11.7,-35.5 -16.9,-70.1 -19.5,-102.6 -2.6,-32.6 -2.6,-63.4 -2.6,-92.6 0,-3.2 0,-6.2 0,-9.2 0,-3 0,-6 0,-9.2 0,-30.7 0,-63.3 3,-97.8 2.7,-30.2 7.8,-62.1 18.2,-94.8 9.1,-28.5 22.6,-57.5 41.2,-84.9 16.4,-24 36.6,-46.6 60.4,-67 41.8,-35.7 93.8,-64.8 157.5,-89 95.7,-36.1 219,-62.2 385,-80.2 166,-18 375,-27.5 640.7,-27.5 611.7,0.1 1410.3,50.5 2060.3,132.4 162.5,20.5 315.8,43 454.7,67.2 104.2,18.2 200.4,37.4 286.6,57.6 64.7,15.2 123.7,30.9 176.7,47.4 39.7,12.4 76,25.2 108.9,38.8 24.7,10.1 47.4,20.7 68.5,32.2 15.8,8.7 30.6,17.8 44.6,27.9 20.9,15.3 40.4,32.6 57.1,56.2 8.2,11.8 15.6,25.3 21,40.7 5.5,15.3 8.7,32.5 8.7,50 0,24.6 -6.5,48.4 -16.1,67.7 -9.4,19 -21.3,34.4 -33.9,47.5 -12.3,12.8 -25.5,23.7 -39.5,33.6 -27,19.1 -57.1,34.9 -91.1,50 -63.7,28 -141.4,52.8 -232.8,76.6 -159.8,41.4 -361.1,78.7 -588.7,112 -682.5,99.8 -1600.7,162.9 -2285,163 v -101.1"
         style="fill:#4d4d4d;fill-opacity:1;fill-rule:nonzero;stroke:none"
         id="path98" /><path
         d="m 27454.4,28325.5 c -0.4,0 -0.8,0 -1.2,0 -296.6,0 -518,12.2 -680.4,33.6 -121.8,15.9 -210.3,37.2 -271.6,60.2 -46.1,17.3 -76.5,35.2 -96.3,51.4 -14.9,12.3 -24.1,23.3 -31.1,34.6 -4.5,7.2 -8,14.6 -11,22.8 -10.9,29.8 -13.1,66.5 -13.5,115.4 0.1,-4.2 0.1,-8.3 0.2,-12.3 0.7,32.9 2.8,59.8 9,82.7 11,-42 35.1,-70.9 87.8,-99.1 148.9,-79.5 478.3,-118.2 1006.8,-118.2 575.2,0 1316.4,45.4 1934.3,118.5 281.8,33.3 495.5,67 657.6,98.4 162.9,-31.6 273.5,-61 348.3,-85.6 -60.4,-19.8 -135.3,-39.7 -221.4,-59 -159.1,-35.5 -356.3,-68.8 -575.1,-98.4 -656.2,-88.9 -1507.2,-145 -2142.4,-145"
         style="fill:#871b1f;fill-opacity:1;fill-rule:nonzero;stroke:none"
         id="path100" /><path
         d="m 27453.1,28324.8 c -528.5,0 -857.9,38.7 -1006.8,118.2 -46.6,25 -70.9,50.5 -83.5,85.1 3,-8.2 6.5,-15.6 11,-22.8 7,-11.3 16.2,-22.3 31.1,-34.6 19.8,-16.2 50.2,-34.1 96.3,-51.4 61.3,-23 149.8,-44.3 271.6,-60.2 162.4,-21.4 383.8,-33.6 680.4,-33.6 0.4,0 0.8,0 1.2,0 635.2,0 1486.2,56.1 2142.4,145 218.8,29.6 416,62.9 575.1,98.4 86.1,19.3 161,39.2 221.4,59 0.3,-0.1 0.6,-0.2 0.9,-0.3 -148.9,-49.1 -440.5,-117.3 -1006.8,-184.3 -617.9,-73 -1359.1,-118.5 -1934.3,-118.5"
         style="fill:#363636;fill-opacity:1;fill-rule:nonzero;stroke:none"
         id="path102" /><path
         d="m 30506.6,28673.5 c -38.4,19.9 -112.8,50 -254.2,85.4 0.2,0.1 0.4,0.1 0.5,0.2 141.2,-35.6 215.5,-65.5 253.9,-85.5 -0.1,-0.1 -0.2,-0.1 -0.2,-0.1"
         style="fill:#871b1f;fill-opacity:1;fill-rule:nonzero;stroke:none"
         id="path104" /><path
         d="m 30507.2,28673.1 c -0.2,0.1 -0.4,0.2 -0.6,0.4 0,0 0.1,0 0.2,0.1 0.2,-0.2 0.4,-0.3 0.6,-0.4 0,0 -0.1,-0.1 -0.2,-0.1"
         style="fill:#363636;fill-opacity:1;fill-rule:nonzero;stroke:none"
         id="path106" /><path
         d="m 26349.3,28708.1 c 0,4.4 0.1,8.7 0.2,12.9 0.1,5.1 0.2,10.1 0.4,14.9 -0.3,-8.8 -0.5,-18 -0.6,-27.8"
         style="fill:#871b1f;fill-opacity:1;fill-rule:nonzero;stroke:none"
         id="path108" /><path
         d="m 26349.2,28678.5 c 0,15.2 0,29.3 0.3,42.5 -0.1,-4.2 -0.2,-8.5 -0.2,-12.9 -0.1,-9.4 -0.1,-19.2 -0.1,-29.6"
         style="fill:#363636;fill-opacity:1;fill-rule:nonzero;stroke:none"
         id="path110" /><path
         d="m 30394.5,28627.5 c -0.1,0.1 -0.2,0.1 -0.3,0.1 54.9,18.1 90.4,33.6 113,45.5 0.1,0 0.2,-0.1 0.2,-0.1 -22.6,-11.8 -58.1,-27.4 -112.9,-45.5"
         style="fill:#838383;fill-opacity:1;fill-rule:nonzero;stroke:none"
         id="path112" /><path
         d="m 26349.3,28643.5 c -0.1,7.6 -0.1,15.5 -0.1,23.7 v 0.2 c 0,-8.3 0,-16.2 0.1,-23.9"
         style="fill:#d4686c;fill-opacity:1;fill-rule:nonzero;stroke:none"
         id="path114" /><path
         d="m 26349.2,28677.6 c 0,0.3 0,0.6 0,0.9 0,-0.2 0,-0.4 0,-0.7 0,0 0,-0.1 0,-0.2"
         style="fill:#838383;fill-opacity:1;fill-rule:nonzero;stroke:none"
         id="path116" /><path
         d="m 30045,28713.5 c -162.1,31.4 -375.8,65 -657.6,98.3 -617.9,73.2 -1359.1,118.5 -1934.3,118.5 -528.5,0 -857.9,-38.6 -1006.8,-118.2 -52.5,-27.9 -76.7,-56.5 -87.8,-98.2 -3.6,13.8 -5.8,29 -7.2,46.1 -0.6,-7.7 -1.1,-15.7 -1.4,-24.1 3.1,83.4 19.2,126 96.4,167.1 148.9,79.7 478.3,118.2 1006.8,118.2 575.2,0 1316.4,-45.3 1934.3,-118.5 423.6,-50.1 693.6,-100.8 865,-143.8 -57.4,-14.3 -125.9,-29.6 -207.4,-45.4"
         style="fill:#d4686c;fill-opacity:1;fill-rule:nonzero;stroke:none"
         id="path118" /><path
         d="m 30393.3,28627.9 c -74.8,24.6 -185.4,54 -348.3,85.6 81.5,15.8 150,31.1 207.4,45.4 141.4,-35.4 215.8,-65.5 254.2,-85.4 -5.9,-3.1 -12.4,-6.3 -19.4,-9.5 -22.6,-10.5 -50.9,-21.6 -83.9,-32.7 -3.3,-1.1 -6.6,-2.3 -10,-3.4"
         style="fill:#ab6063;fill-opacity:1;fill-rule:nonzero;stroke:none"
         id="path120" /><path
         d="m 30394.2,28627.6 c -0.3,0.1 -0.6,0.2 -0.9,0.3 3.4,1.1 6.7,2.3 10,3.4 33,11.1 61.3,22.2 83.9,32.7 7,3.2 13.5,6.4 19.4,9.5 0.2,-0.2 0.4,-0.3 0.6,-0.4 -22.6,-11.9 -58.1,-27.4 -113,-45.5"
         style="fill:#737373;fill-opacity:1;fill-rule:nonzero;stroke:none"
         id="path122" /><path
         d="m 26349.5,28631.2 c -0.1,4 -0.1,8.1 -0.2,12.3 -0.1,7.7 -0.1,15.6 -0.1,23.9 v 10.2 0 0.2 0 c 0,1.8 0,3.5 0,5.2 0,8.6 0,17 0.1,25.1 0.1,9.8 0.3,19 0.6,27.8 0.3,8.4 0.8,16.4 1.4,24.1 1.4,-17.1 3.6,-32.3 7.2,-46.1 -6.2,-22.9 -8.3,-49.8 -9,-82.7"
         style="fill:#ab6063;fill-opacity:1;fill-rule:nonzero;stroke:none"
         id="path124" /><path
         d="m 26349.2,28677.8 c 0,0.3 0,0.5 0,0.7 0,10.4 0,20.2 0.1,29.6 -0.1,-8.1 -0.1,-16.5 -0.1,-25.1 0,-1.7 0,-3.4 0,-5.2"
         style="fill:#737373;fill-opacity:1;fill-rule:nonzero;stroke:none"
         id="path126" /><path
         d="m 25241.4,27112.2 884.1,-655.1 c 27.9,-20.6 61.5,-32 96.1,-32.7 L 29239,26364 c 190.6,-3.8 237.6,263.5 57.1,325 l -2646.4,900.7 c -25.2,8.6 -52,11 -78.2,7.1 l -1255.1,-185.3 c -147.2,-21.8 -194.6,-210.7 -75,-299.3"
         style="fill:#c1272d;fill-opacity:1;fill-rule:nonzero;stroke:none"
         id="path128" /><path
         d="m 25241.4,27112.2 -60.2,-81.2 884.2,-655.1 c 44.7,-33 98.6,-51.4 154.2,-52.6 L 29237,26263 c 2,0 4,-0.1 6,-0.1 39.9,0 78.3,8.2 112.2,23.5 25.3,11.4 48.1,26.6 67.6,44.4 29.3,26.8 51.2,59.1 65.7,93.5 14.5,34.6 21.9,71.4 22,108.7 0,25.4 -3.5,51.1 -10.9,76.3 -10.9,37.6 -30.8,74.3 -60,105.2 -29.1,30.8 -67.3,55.3 -110.9,70.1 l -2646.5,900.8 c -27.9,9.5 -57,14.3 -86.3,14.3 -13,0 -26.2,-1 -39.3,-2.9 h 0.1 l -1255.1,-185.4 c -34.8,-5.1 -67.5,-16.6 -96.1,-33.2 -43,-24.9 -76.5,-60.7 -98.8,-101.1 -22.4,-40.5 -34,-85.7 -34.1,-131.9 0,-39.1 8.5,-79 26.7,-116.2 18,-37.2 45.9,-71.4 81.9,-98 l 60.2,81.2 60.1,81.2 c -10.4,7.8 -16.4,15.7 -20.6,24.1 -4.1,8.4 -6.2,17.8 -6.2,27.7 -0.1,15.6 5.7,32.1 15.2,43.6 4.7,5.9 10.2,10.7 16.8,14.5 6.6,3.8 14.3,6.7 24.4,8.2 l 1255.2,185.4 h 0.1 c 3.1,0.5 6.2,0.7 9.5,0.7 7.2,0 14.4,-1.2 21.2,-3.5 l 2646.4,-900.8 c 9.8,-3.3 16.8,-7.3 22.1,-11.3 8,-6.2 13,-12.7 16.9,-20.8 3.7,-8 5.9,-17.7 5.9,-28.2 0,-9.1 -1.7,-18.5 -4.8,-27 -2.4,-6.4 -5.5,-12.2 -9.2,-17.1 -5.4,-7.5 -11.7,-13 -19.4,-16.9 -7.8,-4 -17.3,-6.9 -32,-7 h -2 l -3017.4,60.4 c -13.7,0.2 -26.9,4.8 -37.9,12.9 l -884.2,655.1 -60.1,-81.2"
         style="fill:#4d4d4d;fill-opacity:1;fill-rule:nonzero;stroke:none"
         id="path130" /><path
         d="m 25241.4,30235.4 884.1,655 c 27.9,20.7 61.5,32.1 96.1,32.8 l 3017.4,60.4 c 190.6,3.8 237.6,-263.5 57.1,-325 l -2646.4,-900.7 c -25.2,-8.6 -52,-11 -78.2,-7.2 l -1255.1,185.4 c -147.2,21.7 -194.6,210.7 -75,299.3"
         style="fill:#c1272d;fill-opacity:1;fill-rule:nonzero;stroke:none"
         id="path132" /><path
         d="m 25241.4,30235.4 60.1,-81.2 884.2,655.1 c 11,8.1 24.2,12.6 37.9,12.9 l 3017.4,60.3 h 0.1 l 1.9,0.1 c 13.1,-0.1 22,-2.5 29.3,-5.7 5.4,-2.4 10,-5.5 14.3,-9.4 6.3,-5.7 11.8,-13.5 15.7,-22.8 4,-9.2 6.1,-19.9 6.1,-30.1 0,-7 -1,-13.7 -2.7,-19.7 -2.7,-9.1 -6.9,-16.5 -13,-23 -6.2,-6.4 -14.5,-12.5 -29.2,-17.6 l -2646.4,-900.8 c -6.8,-2.3 -14,-3.5 -21.2,-3.5 -3.2,0 -6.4,0.2 -9.6,0.7 l -1255.2,185.3 c -10.1,1.6 -17.8,4.5 -24.4,8.3 -9.8,5.7 -17.5,13.7 -23.2,24 -5.7,10.1 -8.8,22.4 -8.8,34.1 0,9.9 2.1,19.3 6.2,27.7 4.2,8.4 10.2,16.3 20.6,24.1 l -60.1,81.2 -60.2,81.2 c -36,-26.6 -63.9,-60.8 -81.9,-98 -18.2,-37.2 -26.7,-77.1 -26.7,-116.2 0.1,-61.5 20.7,-121.6 60,-170.6 19.7,-24.4 44.2,-45.8 72.9,-62.4 28.6,-16.6 61.3,-28.1 96.1,-33.2 l 1255.1,-185.4 c 13,-1.9 26.1,-2.9 39.2,-2.9 29.3,0 58.4,4.8 86.3,14.3 l 2646.5,900.8 c 29.1,9.9 55.8,24 78.9,41.5 34.8,26.3 61.2,60.2 78.1,96.7 17,36.5 24.7,75.3 24.8,113.4 -0.1,33.1 -5.9,65.9 -17.4,97.1 -8.6,23.3 -20.5,45.7 -35.6,66.4 -22.7,31 -53,58.1 -89.9,77.1 -36.7,19.1 -79.7,29.5 -124.6,29.4 -2.1,0 -4.1,0 -6.1,0 h 0.1 l -3017.4,-60.4 c -55.6,-1.1 -109.5,-19.5 -154.2,-52.6 l -884.2,-655 60.2,-81.2"
         style="fill:#4d4d4d;fill-opacity:1;fill-rule:nonzero;stroke:none"
         id="path134" /><path
         d="m 26595.7,29850.1 c -3.2,0 -6.3,0.2 -9.5,0.7 l -1255.1,185.3 c -39.3,5.8 -51,36.3 -54.2,49.2 -1,4 -2.1,9.9 -2.2,16.9 0.1,-7 1.2,-12.9 2.2,-16.9 1.6,-6.3 5.3,-17.2 13.5,-27.1 3,3.6 6.8,6.9 11.1,10.2 l 197.1,146 c 209.5,-26.7 420,-40 630.2,-40 540,0 1078.2,87.7 1592.9,261.3 l 1042.4,351.5 476.9,9.6 c 0.6,0 1.2,0 1.9,0 26.1,0 41.9,-10.6 51.3,-23.1 1.2,1.3 2.3,2.7 3.3,4.1 -0.3,-0.4 -0.6,-0.8 -0.9,-1.3 -6.8,-8.8 -17.3,-16.8 -33.1,-22.2 l -2646.3,-900.7 c -6.9,-2.3 -14.2,-3.5 -21.5,-3.5"
         style="fill:#871b1f;fill-opacity:1;fill-rule:nonzero;stroke:none"
         id="path136" /><path
         d="m 29296.6,30776.5 c 0.3,0.5 0.6,0.9 0.9,1.3 13,18 11.6,39.4 9.8,50.3 -0.5,2.7 -1.2,6 -2.3,9.5 1.1,-3.5 1.8,-6.8 2.3,-9.4 1.9,-11.3 3.3,-33.4 -10.7,-51.7"
         style="fill:#363636;fill-opacity:1;fill-rule:nonzero;stroke:none"
         id="path138" /><path
         d="m 25274.7,30102.6 v 0 0.1 c 0,-0.1 0,-0.1 0,-0.1 m 26.8,51.6 v 0 0 0 0"
         style="fill:#871b1f;fill-opacity:1;fill-rule:nonzero;stroke:none"
         id="path140" /><path
         d="m 25290.4,30144.2 c 3.1,3.5 6.8,6.8 11.1,10 v 0 c -4.3,-3.2 -8,-6.6 -11.1,-10 m 11.1,10 v 0 c 0,0.1 0,0.1 0,0.1 l 99.3,73.5 v 0 l -99.3,-73.6 v 0"
         style="fill:#363636;fill-opacity:1;fill-rule:nonzero;stroke:none"
         id="path142" /><path
         d="m 25274.7,30102.2 c 0,0.1 0,0.2 0,0.4 0,-0.2 0,-0.3 0,-0.4 m 0,0.5 v 0 c 0,3.1 0.3,6.4 0.8,9.9 0.1,1 0.3,2 0.5,3 -0.9,-4.5 -1.3,-8.9 -1.3,-12.9 m 1.3,13 c 0.1,0.1 0.1,0.2 0.1,0.3 0,-0.1 0,-0.2 -0.1,-0.3"
         style="fill:#d4686c;fill-opacity:1;fill-rule:nonzero;stroke:none"
         id="path144" /><path
         d="m 25275.5,30112.6 c 1.5,10 5.6,21.2 14.9,31.6 -8.2,-9.2 -12.4,-19 -14.3,-28.2 0,-0.1 0,-0.2 -0.1,-0.3 0,0 0,0 0,-0.1 -0.2,-1 -0.4,-2 -0.5,-3"
         style="fill:#838383;fill-opacity:1;fill-rule:nonzero;stroke:none"
         id="path146" /><path
         d="m 25498.6,30214.4 c -32.6,4.1 -65.2,8.6 -97.8,13.4 l 784.9,581.5 c 11,8.1 24.2,12.6 37.9,12.9 l 2810.9,56.2 -270.4,-91.2 -2540.5,-50.8 c -13.7,-0.2 -26.8,-4.8 -37.9,-13 l -687.1,-509"
         style="fill:#d4686c;fill-opacity:1;fill-rule:nonzero;stroke:none"
         id="path148" /><path
         d="m 25400.8,30227.8 v 0 l 784.9,581.5 c 11.1,8.2 24.2,12.8 37.9,13 l 3017.4,60.4 c 0.7,0 1.3,0 1.9,0 41.3,0 56.6,-26.7 62.1,-45.1 -5.5,18.4 -20.8,45 -62.1,45 -0.6,0 -1.2,0 -1.9,0 l -206.3,-4.1 -0.2,-0.1 -2810.9,-56.2 c -13.7,-0.3 -26.9,-4.8 -37.9,-12.9 l -784.8,-581.5"
         style="fill:#838383;fill-opacity:1;fill-rule:nonzero;stroke:none"
         id="path150" /><path
         d="m 25290.4,30058.2 c -8.2,9.9 -11.9,20.8 -13.5,27.1 -1,4 -2.1,9.9 -2.2,16.9 0,0.1 0,0.2 0,0.4 0,0 0,0 0,0.1 0,4 0.4,8.4 1.3,12.9 0,0.1 0,0.1 0,0.1 0.1,0.1 0.1,0.2 0.1,0.3 1,4.9 2.7,9.6 4.8,14.1 4.2,8.4 10.2,16.3 20.6,24.1 v 0 0 0 l 99.4,73.6 c 32.5,-4.8 65.1,-9.3 97.7,-13.4 l -197.1,-146 c -4.3,-3.3 -8.1,-6.6 -11.1,-10.2"
         style="fill:#ab6063;fill-opacity:1;fill-rule:nonzero;stroke:none"
         id="path152" /><path
         d="m 25276,30115.6 c 0,0.1 0,0.1 0,0.1 0,0 0,0 0,-0.1 m 0.1,0.4 c 1.9,9.2 6.1,19 14.3,28.2 3.1,3.4 6.8,6.8 11.1,10 v 0 c -10.4,-7.8 -16.4,-15.7 -20.6,-24.1 -2.1,-4.5 -3.8,-9.2 -4.8,-14.1 m 25.4,38.2 v 0 0 l 99.3,73.6 v 0 l -99.3,-73.6"
         style="fill:#737373;fill-opacity:1;fill-rule:nonzero;stroke:none"
         id="path154" /><path
         d="m 29294.2,30773.7 c -9.4,12.5 -25.2,23.1 -51.3,23.1 -0.7,0 -1.3,0 -1.9,0 l -476.9,-9.6 270.4,91.2 206.5,4.1 h 0.1 l 1.9,0.1 c 13.1,-0.1 22,-2.5 29.3,-5.7 5.4,-2.4 10,-5.5 14.3,-9.4 6.3,-5.7 11.8,-13.5 15.7,-22.8 4,-9.2 6.1,-19.9 6.1,-30.1 0,-7 -1,-13.7 -2.7,-19.7 -1.9,-6.4 -4.6,-12 -8.2,-17.1 -1,-1.4 -2.1,-2.8 -3.3,-4.1"
         style="fill:#ab6063;fill-opacity:1;fill-rule:nonzero;stroke:none"
         id="path156" /><path
         d="m 29297.5,30777.8 c 3.6,5.1 6.3,10.7 8.2,17.1 1.7,6 2.7,12.7 2.7,19.7 0,10.2 -2.1,20.9 -6.1,30.1 -3.9,9.3 -9.4,17.1 -15.7,22.8 -4.3,3.9 -8.9,7 -14.3,9.4 -7.3,3.2 -16.2,5.6 -29.3,5.7 l -1.9,-0.1 h -0.1 l -206.5,-4.1 0.2,0.1 206.3,4.1 c 0.7,0 1.3,0 1.9,0 41.3,0 56.6,-26.6 62.1,-45 1.1,-3.5 1.8,-6.8 2.3,-9.5 1.8,-10.9 3.2,-32.3 -9.8,-50.3"
         style="fill:#737373;fill-opacity:1;fill-rule:nonzero;stroke:none"
         id="path158" /><path
         d="m 29305.4,26511.4 c 0.9,3 1.5,5.8 1.9,8.2 2,11.7 3.4,35.2 -12.6,53.9 16,-18.7 14.6,-42.2 12.6,-54 -0.4,-2.3 -1,-5.1 -1.9,-8.1"
         style="fill:#363636;fill-opacity:1;fill-rule:nonzero;stroke:none"
         id="path160" /><path
         d="m 29242.9,26550.9 c -0.7,0 -1.3,0 -1.9,0 l -476.9,9.5 -1042.4,351.6 c -514.7,173.5 -1052.9,261.3 -1592.9,261.3 -210.2,0 -420.7,-13.3 -630.2,-40 l -197.1,146 c -4.3,3.3 -8.1,6.6 -11.1,10.1 -8.2,-9.9 -11.9,-20.7 -13.5,-27 -1,-4.1 -2.2,-10.2 -2.2,-17.4 v 0 c 0,7.2 1.2,13.3 2.2,17.4 1.2,5.1 3.9,13 9,21 0.1,0.1 0.1,0.2 0.2,0.2 v 0.1 c 1.2,1.8 2.4,3.5 3.8,5.1 4.7,5.9 10.2,10.7 16.8,14.5 6.6,3.8 14.3,6.7 24.4,8.2 l 1255.2,185.4 h 0.1 c 3.1,0.5 6.2,0.7 9.5,0.7 1.3,0 2.7,0 4,-0.1 0.1,0 0.1,0 0.2,0 0.1,-0.1 0.3,-0.1 0.4,-0.1 3.3,-0.2 6.5,-0.7 9.7,-1.4 2.4,-0.5 4.7,-1.2 6.9,-1.9 l 2646.4,-900.8 c 8.4,-2.8 14.7,-6.1 19.7,-9.6 1.4,-0.9 2.7,-1.9 3.9,-2.9 2.7,-2.2 5.1,-4.4 7.1,-6.8 -9.4,-12.5 -25.2,-23.1 -51.3,-23.1"
         style="fill:#871b1f;fill-opacity:1;fill-rule:nonzero;stroke:none"
         id="path162" /><path
         d="m 29294.2,26574 c -2,2.4 -4.4,4.6 -7.1,6.8 2.7,-2.2 5.1,-4.4 7.1,-6.8 v 0 m -11,9.7 c -5,3.5 -11.3,6.8 -19.7,9.6 l -2646.4,900.8 c -2.2,0.7 -4.5,1.4 -6.9,1.9 2.4,-0.5 4.7,-1.1 7,-1.9 l 2646.3,-900.7 c 7.8,-2.7 14.3,-5.9 19.7,-9.7 m -3997.3,699.7 c 0.1,0.1 0.1,0.2 0.2,0.2 -0.1,0 -0.1,-0.1 -0.2,-0.2 m 0.2,0.3 c 7.9,12.1 21.5,24.4 45,27.9 l 1255.1,185.3 c 3.2,0.5 6.3,0.7 9.5,0.7 1.4,0 2.8,0 4.2,-0.1 -1.3,0.1 -2.7,0.1 -4,0.1 -3.3,0 -6.4,-0.2 -9.5,-0.7 h -0.1 l -1255.2,-185.4 c -10.1,-1.5 -17.8,-4.4 -24.4,-8.2 -6.6,-3.8 -12.1,-8.6 -16.8,-14.5 -1.4,-1.6 -2.6,-3.3 -3.8,-5.1 m 1314.4,213.7 c -0.1,0 -0.3,0 -0.4,0.1 0.1,-0.1 0.3,-0.1 0.4,-0.1"
         style="fill:#363636;fill-opacity:1;fill-rule:nonzero;stroke:none"
         id="path164" /><path
         d="m 25391.1,27127.1 -89.6,66.3 c -3.6,2.7 -6.7,5.5 -9.5,8.3 2.8,-2.8 5.9,-5.6 9.5,-8.2 l 89.6,-66.4"
         style="fill:#871b1f;fill-opacity:1;fill-rule:nonzero;stroke:none"
         id="path166" /><path
         d="m 29243,26465 h -2 l -497.9,10 -2519.5,50.4 c -13.7,0.2 -26.8,4.8 -37.9,13 l -794.6,588.7 9.7,-7.2 c 32.6,4.8 65.2,9.3 97.8,13.4 l 687.1,-509.1 c 11.1,-8.1 24.2,-12.7 37.9,-12.9 l 2540.5,-50.9 270.6,-91.2 206.3,-4.1 c 0.7,0 1.3,-0.1 1.9,-0.1 16.8,0 29.3,4.4 38.5,10.9 -1.5,-1.1 -3.2,-2.2 -4.9,-3.1 -6.3,-3.5 -13.8,-6 -22.9,-7.2 -3.2,-0.3 -6.7,-0.6 -10.6,-0.6"
         style="fill:#d4686c;fill-opacity:1;fill-rule:nonzero;stroke:none"
         id="path168" /><path
         d="m 29242.9,26465 c -0.6,0 -1.2,0 -1.9,0 l -497.9,10 497.9,-10 h 2 c 3.9,0 7.4,0.3 10.6,0.6 -3.3,-0.4 -6.9,-0.6 -10.7,-0.6 m 33.6,7.8 c 1.7,0.9 3.4,2 4.9,3.1 14.2,9.8 20.8,24.4 24,35.5 -3.5,-12.3 -11.4,-29 -28.9,-38.6 m 18.2,100.7 c -0.1,0.1 -0.3,0.3 -0.5,0.5 v 0 c 0.2,-0.2 0.4,-0.4 0.5,-0.5"
         style="fill:#838383;fill-opacity:1;fill-rule:nonzero;stroke:none"
         id="path170" /><path
         d="m 25292,27201.7 c -13.7,14.4 -17.3,30.6 -17.3,43.3 v 0 c 0,-12.7 3.6,-28.9 17.3,-43.3"
         style="fill:#d4686c;fill-opacity:1;fill-rule:nonzero;stroke:none"
         id="path172" /><path
         d="m 29242.9,26465 c -0.6,0 -1.2,0.1 -1.9,0.1 l -206.3,4.1 -270.6,91.2 476.9,-9.5 c 0.6,0 1.2,0 1.9,0 26.1,0 41.9,10.6 51.3,23.1 3.4,-3.9 6,-8.1 8.3,-12.8 3.7,-8 5.9,-17.7 5.9,-28.2 0,-9.1 -1.7,-18.5 -4.8,-27 -2.4,-6.4 -5.5,-12.2 -9.2,-17.1 -3.8,-5.3 -8.1,-9.5 -13,-13 -9.2,-6.5 -21.7,-10.9 -38.5,-10.9"
         style="fill:#ab6063;fill-opacity:1;fill-rule:nonzero;stroke:none"
         id="path174" /><path
         d="m 29281.4,26475.9 c 4.9,3.5 9.2,7.7 13,13 3.7,4.9 6.8,10.7 9.2,17.1 3.1,8.5 4.8,17.9 4.8,27 0,10.5 -2.2,20.2 -5.9,28.2 -2.3,4.7 -4.9,8.9 -8.3,12.8 v 0 c 0.2,-0.2 0.4,-0.4 0.5,-0.5 16,-18.7 14.6,-42.2 12.6,-53.9 -0.4,-2.4 -1,-5.2 -1.9,-8.2 -3.2,-11.1 -9.8,-25.7 -24,-35.5"
         style="fill:#737373;fill-opacity:1;fill-rule:nonzero;stroke:none"
         id="path176" /><path
         d="m 25400.8,27119.9 -9.7,7.2 -89.6,66.4 c -3.6,2.6 -6.7,5.4 -9.5,8.2 -13.7,14.4 -17.3,30.6 -17.3,43.3 0,7.2 1.2,13.3 2.2,17.4 1.6,6.3 5.3,17.1 13.5,27 3,-3.5 6.8,-6.8 11.1,-10.1 l 197.1,-146 c -32.6,-4.1 -65.2,-8.6 -97.8,-13.4"
         style="fill:#ab6063;fill-opacity:1;fill-rule:nonzero;stroke:none"
         id="path178" /><path
         d="m 20773.7,30092.2 c 783.4,0 1418.4,-635 1418.4,-1418.4 0,-783.4 -635,-1418.4 -1418.4,-1418.4 -783.3,0 -1418.4,635 -1418.4,1418.4 0,783.4 635.1,1418.4 1418.4,1418.4"
         style="fill:#fcee21;fill-opacity:1;fill-rule:nonzero;stroke:none"
         id="path180" /><path
         d="m 20773.7,30092.2 v -101 c 182.2,0 355.2,-36.9 512.8,-103.5 236.3,-99.9 437.6,-267.1 579.7,-477.4 142,-210.4 224.9,-463.3 224.9,-736.5 0,-182.2 -36.8,-355.2 -103.5,-512.8 -99.9,-236.3 -267.1,-437.6 -477.4,-579.7 -210.4,-142 -463.3,-224.9 -736.5,-224.9 -182.1,0 -355.2,36.9 -512.7,103.5 -236.3,99.9 -437.7,267.1 -579.7,477.4 -142.1,210.4 -224.9,463.3 -225,736.5 0,182.2 36.9,355.2 103.5,512.7 99.9,236.3 267.1,437.7 477.4,579.8 210.4,142 463.3,224.8 736.5,224.9 v 101 101 c -209.5,0.1 -409.6,-42.5 -591.5,-119.4 -272.8,-115.4 -504.6,-307.9 -668.4,-550.4 -163.8,-242.4 -259.6,-535.3 -259.5,-849.6 0,-209.5 42.5,-409.6 119.4,-591.5 115.4,-272.8 308,-504.6 550.4,-668.4 242.4,-163.8 535.3,-259.6 849.6,-259.6 209.5,0 409.7,42.5 591.5,119.5 272.8,115.4 504.6,307.9 668.4,550.4 163.8,242.4 259.6,535.2 259.6,849.6 0,209.5 -42.5,409.6 -119.5,591.5 -115.4,272.8 -307.9,504.6 -550.4,668.4 -242.4,163.8 -535.2,259.6 -849.6,259.5 v -101"
         style="fill:#4d4d4d;fill-opacity:1;fill-rule:nonzero;stroke:none"
         id="path182" /><path
         d="m 20773.7,27356.6 c -712.4,0 -1294.6,568.4 -1316.7,1275.6 0.2,-5.4 0.4,-10.8 0.7,-16.3 1.1,25 2.8,49.8 5.3,74.4 66.3,-664.7 628.8,-1185.5 1310.7,-1185.5 681.9,0 1244.5,520.8 1310.8,1185.5 2.4,-24.6 4.2,-49.4 5.3,-74.4 0.3,6.7 0.6,13.3 0.8,20 -20.3,-708.8 -603.2,-1279.3 -1316.9,-1279.3 m 1317.4,1317 c 0,24.6 -0.7,49.1 -2,73.4 1.3,-24.1 2,-48.5 2,-73 0,-0.1 0,-0.3 0,-0.4 m -2634.7,0 c 0,0.1 0,0.3 0,0.4 0,24.7 0.7,49.4 2.1,73.8 -1.4,-24.6 -2.1,-49.4 -2.1,-74.2 m 2632.6,73.9 c 0,0.2 0,0.5 0,0.7 v 0 c 0,-0.2 0,-0.5 0,-0.7"
         style="fill:#b0a617;fill-opacity:1;fill-rule:nonzero;stroke:none"
         id="path184" /><path
         d="m 19457,28632.2 c -0.4,13.6 -0.6,27.2 -0.6,40.9 0,0.2 0,0.3 0,0.5 0,-13.8 0.2,-27.7 0.6,-41.4 m 2633.6,3.7 c 0.3,12.5 0.5,25.1 0.5,37.7 0,-0.2 0,-0.3 0,-0.5 0,-12.5 -0.2,-24.8 -0.5,-37.2 m -6.1,54.4 c -66.2,664.8 -628.8,1185.7 -1310.8,1185.7 -681.9,0 -1244.5,-520.9 -1310.7,-1185.7 -1.9,19.2 -3.4,38.5 -4.5,57.9 0,-0.2 0,-0.3 0,-0.4 38.8,691.8 613.9,1242.7 1315.2,1242.7 701.3,0 1276.3,-550.7 1315.3,-1242.3 -1.1,-19.4 -2.6,-38.7 -4.5,-57.9 m 4.6,56.7 c -0.1,0.2 -0.1,0.4 -0.1,0.5 0,-0.1 0,-0.3 0.1,-0.5"
         style="fill:#fdf364;fill-opacity:1;fill-rule:nonzero;stroke:none"
         id="path186" /><path
         d="m 22089.8,28615.9 c -1.1,25 -2.9,49.8 -5.3,74.4 1.9,19.2 3.4,38.5 4.5,57.9 0,-0.2 0,-0.5 0,-0.7 0,-0.1 0,-0.3 0.1,-0.5 1.3,-24.3 2,-48.8 2,-73.4 0,-12.6 -0.2,-25.2 -0.5,-37.7 -0.2,-6.7 -0.5,-13.3 -0.8,-20 m -2632.1,0 c -0.3,5.5 -0.5,10.9 -0.7,16.3 -0.4,13.7 -0.6,27.6 -0.6,41.4 0,24.8 0.7,49.6 2.1,74.2 0,0.1 0,0.2 0,0.4 1.1,-19.4 2.6,-38.7 4.5,-57.9 -2.5,-24.6 -4.2,-49.4 -5.3,-74.4"
         style="fill:#c8c15d;fill-opacity:1;fill-rule:nonzero;stroke:none"
         id="path188" /><path
         d="m 20773.7,29708.1 c 571.2,0 1034.3,-463.1 1034.3,-1034.3 0,-571.2 -463.1,-1034.3 -1034.3,-1034.3 -571.2,0 -1034.3,463.1 -1034.3,1034.3 0,571.2 463.1,1034.3 1034.3,1034.3"
         style="fill:#00ffff;fill-opacity:1;fill-rule:nonzero;stroke:none"
         id="path190" /><path
         d="M 20773.7,29708.1 V 29607 c 129.2,0 251.7,-26.1 363.3,-73.3 167.3,-70.7 310,-189.2 410.6,-338.2 100.7,-149.1 159.3,-328.1 159.4,-521.7 -0.1,-129.1 -26.2,-251.6 -73.3,-363.2 -70.8,-167.4 -189.3,-310.1 -338.3,-410.7 -149,-100.7 -328,-159.3 -521.7,-159.4 -129.1,0.1 -251.6,26.2 -363.2,73.3 -167.4,70.8 -310,189.3 -410.7,338.3 -100.6,149 -159.3,328.1 -159.3,521.7 0,129.1 26.1,251.6 73.3,363.2 70.7,167.4 189.2,310.1 338.2,410.7 149.1,100.6 328.1,159.3 521.7,159.3 v 101.1 101 c -156.4,0 -306,-31.8 -441.9,-89.3 -203.9,-86.2 -377,-230 -499.4,-411.2 -122.4,-181 -194,-400 -194,-634.8 0,-156.5 31.8,-306.1 89.3,-441.9 86.2,-203.9 230,-377.1 411.2,-499.5 181.1,-122.4 400,-194 634.8,-193.9 156.5,0 306.1,31.8 442,89.2 203.8,86.3 377,230.1 499.4,411.3 122.4,181 194,400 193.9,634.8 0,156.5 -31.7,306.1 -89.2,441.9 -86.3,203.9 -230.1,377 -411.3,499.4 -181,122.4 -400,194 -634.8,194 v -101"
         style="fill:#4d4d4d;fill-opacity:1;fill-rule:nonzero;stroke:none"
         id="path192" /><path
         d="m 20843.5,28229.1 c -17,0 -34.1,6.7 -46.6,20.1 l -475.1,505.5 c -24.1,25.6 -22.9,66.3 2.8,90.4 v 0 c 12.3,11.6 28,17.3 43.8,17.3 17,0 34.1,-6.7 46.6,-20.1 l 475.1,-505.5 c 24.1,-25.7 22.9,-66.4 -2.8,-90.5 -12.3,-11.5 -28,-17.2 -43.8,-17.2"
         style="fill:#80ffff;fill-opacity:1;fill-rule:nonzero;stroke:none"
         id="path194" /><path
         d="m 21115.9,28485.1 c -17,0 -34.1,6.7 -46.6,20.1 l -475.1,505.5 c -24.1,25.6 -22.9,66.3 2.8,90.4 12.3,11.6 28,17.3 43.7,17.3 17.1,0 34.2,-6.7 46.7,-20.1 l 475.1,-505.5 c 24.1,-25.6 22.9,-66.3 -2.8,-90.4 -12.3,-11.6 -28,-17.3 -43.8,-17.3"
         style="fill:#80ffff;fill-opacity:1;fill-rule:nonzero;stroke:none"
         id="path196" /><path
         d="m 21179,28145.1 c -17.1,0 -34.2,6.7 -46.7,20.1 l -873.5,929.4 c -24.2,25.7 -22.9,66.4 2.8,90.5 12.2,11.6 28,17.3 43.7,17.3 17.1,0 34.2,-6.8 46.7,-20.1 l 873.6,-929.5 c 24.1,-25.6 22.8,-66.3 -2.9,-90.4 -12.2,-11.6 -28,-17.3 -43.7,-17.3"
         style="fill:#80ffff;fill-opacity:1;fill-rule:nonzero;stroke:none"
         id="path198" /><path
         d="m 26568.7,21847.1 c 0,0 926.5,-3907 0,-4591.8 -926.4,-684.7 -1450,2014 -1450,2014 h -1852.8 c 0,0 10.1,-2125.3 -805.6,-2125.3 -815.6,0 -1087.5,2356.9 -644.4,3927.7 0,0 -443.1,614.3 -67.2,1661.5 0,0 -1812.5,-2188.4 -2604.7,-308.8 0,0 -1127.8,-402.7 -792.1,1248.7 335.6,1651.4 1544,1221.8 2000.5,765.3 0,0 516.9,2987.3 3477.4,2624.8 2960.5,-362.5 3323,-3786.2 2738.9,-5216.1"
         style="fill:#cf9e76;fill-opacity:1;fill-rule:nonzero;stroke:none"
         id="path200" /><path
         d="m 26568.7,21847.1 -97.9,-23.2 0.2,-1.1 c 5.9,-25 108.4,-462.3 209.1,-1059.2 50.4,-298.4 100.4,-636.7 137.7,-983 37.4,-346.3 62,-700.6 62,-1030.5 0,-167.5 -6.4,-328.7 -20.5,-479 -21.1,-225.5 -60,-426.7 -119.1,-587.1 -29.5,-80.3 -63.9,-150.3 -102.6,-208.4 -38.8,-58.3 -81.7,-104.5 -128.7,-139.3 -45.6,-33.7 -88.2,-56.6 -127.4,-71 -39.4,-14.4 -75.5,-20.5 -110.2,-20.6 -34.2,0.1 -67.3,6.1 -101.1,18.1 -31.6,11.2 -63.8,27.9 -96.3,50.2 -60.9,41.7 -122.8,103.3 -182.3,180.4 -104.5,134.7 -201.3,315.7 -285.1,510.3 -126,292 -223.9,614.5 -289.6,863 -32.9,124.3 -57.8,230.1 -74.4,304.7 -8.4,37.3 -14.6,66.7 -18.8,86.8 -2.1,10 -3.6,17.7 -4.6,22.8 -0.6,2.5 -0.9,4.5 -1.2,5.7 l -0.3,1.4 v 0.3 0.1 l -9.9,-2 9.9,1.9 v 0.1 l -9.9,-2 9.9,1.9 c -9.2,47.5 -50.6,81.6 -98.9,81.6 h -1852.8 c -26.9,0 -52.4,-10.6 -71.4,-29.7 -18.9,-19 -29.4,-44.5 -29.3,-71.4 v -0.2 c 0,-0.3 0,-1.4 0,-3.1 0,-22.7 -0.6,-165.5 -13.7,-366 -9.9,-150.4 -26.8,-333.4 -55.7,-522.2 -21.6,-141.6 -50,-286.5 -86.8,-423.1 -27.6,-102.4 -60,-200.2 -97.4,-288.1 -28,-66 -58.8,-126.4 -92.2,-179.2 -25,-39.6 -51.4,-74.9 -79,-105.2 -41.3,-45.5 -84.8,-79.6 -130.5,-102.3 -45.9,-22.6 -94,-34.7 -149.6,-34.8 -52.6,0.2 -100.7,12.4 -148.9,37.4 -42,22 -84,54.2 -125,97.2 -71.9,75.2 -140.3,183.7 -200.2,318.8 -90,202.5 -161,463.9 -208.6,758 -47.7,294.2 -72.4,621.3 -72.4,957.1 -0.1,556.1 67.9,1136.4 207.6,1631.2 8.3,29.4 2.6,61.4 -15.3,86.2 l -48.6,-35 48.9,34.7 -0.3,0.3 -48.6,-35 48.9,34.7 -0.1,0.1 c -2.3,3.3 -52.4,75.6 -101.7,209 -49.2,133.6 -97.8,328.2 -97.9,578 0.1,218.9 37.2,480.4 145.4,781.8 16.5,46.1 -2.4,97.3 -44.9,121.5 -42.5,24.3 -96.2,14.5 -127.4,-23.2 l 62.5,-51.8 -62.5,51.8 v 0 l 62.5,-51.8 -62.5,51.8 c 0,0 -0.8,-0.9 -2.4,-2.9 -12.7,-15.1 -75.2,-88.4 -173.2,-189.5 -147,-151.6 -374.8,-365.6 -633.1,-539 -129.1,-86.8 -265.7,-163.3 -402.4,-217.4 -136.7,-54.3 -273.2,-85.9 -402.6,-85.8 -76.8,0 -151.2,10.9 -223.6,34.7 -54.2,17.8 -107.4,42.9 -159.8,76.8 -78.5,50.8 -155.4,121.5 -229.1,218 -73.7,96.5 -144,218.8 -208.2,371.1 -20.7,49.3 -76.3,73.8 -126.6,55.8 l 13.8,-38.7 -13.6,38.8 -0.2,-0.1 13.8,-38.7 -13.6,38.8 c -0.5,-0.2 -28.1,-9.8 -71.7,-19.2 -43.5,-9.4 -103.1,-18.4 -167,-18.4 -54.7,0 -112.2,6.6 -166.2,23.7 -40.5,12.9 -79.1,31.4 -114.7,57.6 -26.8,19.8 -52,43.9 -75.3,74.2 -34.9,45.4 -66,105.1 -88.7,185.5 -22.6,80.3 -36.6,181.2 -36.6,306.6 0,141.9 17.9,314.9 60.4,523.6 44,216.9 103.2,394.4 172.3,537.7 51.8,107.6 109.1,196 169.9,268.1 91.2,108.1 189.8,179.9 292.8,225.9 102.9,45.9 211,65.9 321.3,66 82.9,0 166.9,-11.5 249.5,-32.1 123.8,-30.9 244.3,-82.5 351.6,-144.7 107.4,-62.2 201.7,-135.1 273.2,-206.7 26.6,-26.6 65.8,-36.2 101.6,-24.8 35.9,11.3 62.4,41.8 68.8,78.8 l -82.3,14.3 82.3,-14.4 v 0.1 l -82.3,14.3 82.3,-14.4 c 0,0 0.4,2.2 1.3,7.1 7,37.2 43.7,218.4 132.1,468.1 66.2,187.3 161.6,413 294.8,645.4 99.9,174.4 221.1,352.4 367.2,521.2 219.1,253.1 493.7,485.1 837.8,654.1 344.2,169 758.2,275.9 1260.6,276 149.4,0 306.7,-9.5 472.2,-29.7 539,-66.1 985.8,-235.4 1355.2,-475.2 277.1,-180 510.8,-400 706.1,-647.6 292.9,-371.3 499.2,-805.1 632,-1255.7 132.8,-450.4 192,-917.5 191.9,-1352.8 0,-261.8 -21.3,-512.2 -60.6,-740.3 -39.1,-228.1 -96.2,-434.1 -166.7,-606.5 -7.9,-19.5 -9.6,-40.8 -4.7,-61.3 l 97.9,23.2 93.3,-38.1 c 77.1,189 137.4,408.3 178.7,648.6 41.3,240.2 63.5,501.6 63.5,774.4 0,403.1 -48.5,831.2 -156.7,1252.3 -81.2,315.7 -196.1,627.5 -349.7,921.4 -230.5,440.7 -548.8,841.5 -970.8,1151.4 -421.9,310.1 -947.1,528.1 -1585,606.1 -173.2,21.2 -338.6,31.2 -496.6,31.2 -325.5,0 -619.3,-42.7 -883.6,-117.9 -462.6,-131.6 -833.9,-363 -1127.7,-634.4 -220.6,-203.5 -398,-429.3 -540.3,-653.2 -213.3,-335.8 -347.8,-667.4 -429.5,-915.8 -81.7,-248.4 -110.5,-413.8 -111.1,-417.6 l 99.2,-17.1 71.2,71.2 c -113.9,113.7 -266.4,222.6 -441.3,304.9 -87.5,41.1 -180.5,75.3 -277.1,99.5 -96.6,24.1 -196.8,38 -298.3,38 -119.8,0.1 -241.6,-19.6 -359.4,-65.1 -88.3,-34.1 -174.2,-82.7 -254.9,-147.4 -121.1,-97 -230.1,-229.8 -321.4,-402.4 -91.3,-172.6 -165.3,-384.9 -218,-644 -44.5,-219.1 -64.4,-404.9 -64.4,-563.7 0,-166.2 21.8,-303 61.5,-415.9 29.7,-84.7 69.7,-155.8 117.3,-213.8 35.7,-43.5 75.6,-79.5 117.5,-108.6 63.1,-43.6 130.5,-71.4 196.5,-88.1 66,-16.7 130.6,-22.5 190.1,-22.6 85.1,0.1 160,12.1 214.5,24 54.4,12 88.6,24.1 91.7,25.2 l -33.9,94.8 -92.8,-39.1 c 62,-146.9 130.6,-271.7 205.4,-376.7 56.1,-78.7 115.7,-146.2 178.5,-203.3 94.2,-85.5 195.6,-147.1 300.8,-186.7 105.2,-39.6 213.7,-57.1 321.6,-57.1 111.7,0 222.8,18.6 331.5,50 190.2,55.1 373.4,149.5 542.5,258.8 253.5,164.2 475.7,362.9 635.8,521.1 159.9,158.1 257.4,275.7 259,277.6 l -77.6,64.2 -94.7,34.1 c -115.9,-322.5 -157.3,-608.1 -157.3,-849.9 0,-285 57.5,-508.8 115.8,-662.2 58.4,-153.4 117.5,-236.6 121.7,-242.4 l 81.7,58.9 -97,27.4 c -145.9,-517.7 -215,-1113.4 -215.1,-1685.9 0,-301 19.2,-595.5 57,-869 28.3,-205.1 67,-398.4 116.3,-574 37,-131.7 79.9,-253.5 129.1,-363 37,-82.1 77.5,-157.3 122.2,-224.7 67,-100.9 143.4,-184.6 232.3,-244.6 44.4,-29.9 92,-53.7 142.3,-69.9 50.3,-16.2 103.2,-24.7 157.3,-24.7 60.4,0 118.5,9.8 172.6,28.1 50.7,17.2 97.9,41.9 141.2,72.2 81.1,57 148.4,133.1 205.7,220.5 50.1,76.6 92.7,162.2 129.7,253.6 64.7,159.9 112.1,337.7 147.9,516.2 53.7,267.8 80.7,537.2 94.7,746.7 13.9,209.4 14.5,358.7 14.5,385 0,2.6 0,3.9 0,4.1 l -100.7,-0.4 v -100.7 h 1852.8 v 100.7 l -98.8,-19.2 c 0.2,-1.4 26.4,-135.9 77.2,-337.5 38.1,-151.2 90.1,-340.2 155.7,-539.2 49.2,-149.4 106,-304.4 170.6,-453.7 48.5,-112.1 101.4,-220.9 158.9,-321.9 43.3,-75.7 89.1,-147.1 138.1,-212.1 73.6,-97.5 154.1,-181.2 245.3,-242.6 45.5,-30.6 93.9,-55.6 145.1,-72.9 51.1,-17.3 105.2,-26.9 160.5,-26.9 59.2,0 119.7,11 179.5,32.9 59.9,22 119.1,54.8 177.8,98.2 45.8,33.8 87.1,73.8 124.1,118.7 64.9,78.6 116.8,171.8 159,276 63.3,156.5 105.1,338.3 131.7,537.8 26.6,199.5 37.8,416.7 37.8,643.2 0,345.2 -26.1,712.1 -64.9,1068.8 -58.4,535 -145.7,1047.2 -218.4,1426 -72.7,378.9 -130.9,624.4 -131.2,625.4 l -98,-23.2 93.3,-38.1 -93.3,38.1"
         style="fill:#4d4d4d;fill-opacity:1;fill-rule:nonzero;stroke:none"
         id="path202" /><path
         d="m 18396,23088.6 c 3.2,141.2 23,303.3 59.6,483.9 120.1,589.9 370,958.1 723,1064.4 382.3,115 846.7,-89.2 1107.7,-350.2 26.6,-26.6 65.9,-36.3 101.7,-24.8 35.9,11.3 62.4,41.7 68.7,78.7 1.4,7.3 132.9,737.9 615.4,1412.8 639.5,894.4 1564.9,1274.4 2750.7,1129.2 1013.6,-124 1814.7,-642.2 2317,-1498.3 388.7,-662.2 560.7,-1475.7 565.7,-2210.9 7.3,756 -162.7,1604.9 -565.7,2291.4 -502.3,856.1 -1303.4,1374.3 -2317,1498.4 -1185.8,145.2 -2111.2,-234.8 -2750.7,-1129.2 -482.5,-674.9 -614,-1405.5 -615.4,-1412.8 -6.3,-37 -32.8,-67.5 -68.7,-78.7 -35.8,-11.5 -75.1,-1.9 -101.7,24.7 -261,261 -725.4,465.3 -1107.7,350.2 -353,-106.3 -602.9,-474.4 -723,-1064.3 -43.9,-216.1 -63.6,-405.2 -59.6,-564.5"
         style="fill:#ffffff;fill-opacity:1;fill-rule:nonzero;stroke:none"
         id="path204" /><path
         d="m 19986.1,21766.2 c -51.7,4.8 -102.4,15 -152.2,31.4 -54.2,17.8 -107.4,42.9 -159.8,76.8 -78.5,50.8 -155.4,121.5 -229.1,218 -73.7,96.5 -144,218.8 -208.2,371.1 -16.1,38.4 -53.3,61.7 -92.7,61.7 -1.4,0 -2.7,-0.1 -4.1,-0.1 -10.4,-0.3 -20.9,-2.2 -31.3,-5.9 -1.8,-0.5 -109,-37.3 -238.9,-37.3 -11.7,0 -23.6,0.3 -35.6,1 -43,2.4 -86.9,9.4 -128.7,22.6 -40.5,12.9 -79.1,31.4 -114.7,57.6 -26.8,19.8 -52,43.9 -75.3,74.2 -34.9,45.4 -66,105.1 -88.7,185.5 -22.6,80.3 -36.6,181.2 -36.6,306.6 0,141.9 17.9,314.9 60.4,523.6 34,167.4 77,311.3 126.6,434.2 -1.5,-8.5 -2.9,-17 -4.3,-25.4 -47.3,-121.3 -86.6,-257.7 -117.3,-408.7 -43.9,-216.1 -63.6,-405.2 -59.6,-564.5 3.2,141.2 23,303.3 59.6,483.9 26.5,130.3 59.4,249.7 98.2,357.9 -48.6,-398.8 5.5,-676.9 159.8,-811.6 89.3,-77.8 203.3,-99.7 303.8,-99.7 129.9,0 237.1,36.7 239,37.3 11.1,3.9 22.5,5.8 33.7,5.8 39.4,0 76.6,-23.2 92.7,-61.6 175.4,-415.9 414.5,-648.9 710.7,-692.6 19.9,-3 39.8,-5.1 59.8,-6.4 -10,-23.7 -19.6,-47.5 -28.9,-71.3 -59.8,-153.7 -105.2,-308.8 -138.3,-464.1"
         style="fill:#906e52;fill-opacity:1;fill-rule:nonzero;stroke:none"
         id="path206" /><path
         d="m 19986.1,21766.1 c -13.4,1.2 -26.9,2.8 -40.2,4.8 -296.2,43.7 -535.3,276.7 -710.7,692.6 -16.1,38.3 -53.4,61.6 -92.7,61.6 -0.8,0 -1.6,0 -2.5,0 1.4,0 2.7,0.1 4.1,0.1 39.4,0 76.6,-23.3 92.7,-61.7 64.2,-152.3 134.5,-274.6 208.2,-371.1 73.7,-96.5 150.6,-167.2 229.1,-218 52.4,-33.9 105.6,-59 159.8,-76.8 49.8,-16.4 100.5,-26.6 152.2,-31.4 0,-0.1 0,-0.1 0,-0.1 m -1151.9,716.8 c -91.1,4.9 -189.4,30.1 -268.2,98.8 -185.9,162.1 -226.4,532.7 -117,1071.4 33.2,163.1 76.3,309.3 128.8,437.8 -0.2,-1.2 -0.4,-2.5 -0.6,-3.7 -49.6,-122.9 -92.6,-266.8 -126.6,-434.2 -42.5,-208.7 -60.4,-381.7 -60.4,-523.6 0,-125.4 14,-226.3 36.6,-306.6 22.7,-80.4 53.8,-140.1 88.7,-185.5 23.3,-30.3 48.5,-54.4 75.3,-74.2 35.6,-26.2 74.2,-44.7 114.7,-57.6 41.8,-13.2 85.7,-20.2 128.7,-22.6"
         style="fill:#363636;fill-opacity:1;fill-rule:nonzero;stroke:none"
         id="path208" /><path
         d="m 18396,23088.6 c -4,159.3 15.7,348.4 59.6,564.5 30.7,151 70,287.4 117.3,408.7 -7.5,-45.2 -13.9,-89 -19.1,-131.4 -38.8,-108.2 -71.7,-227.6 -98.2,-357.9 -36.6,-180.6 -56.4,-342.7 -59.6,-483.9"
         style="fill:#b2b2b2;fill-opacity:1;fill-rule:nonzero;stroke:none"
         id="path210" /><path
         d="m 20252.4,24449.9 -37,-320.6 c -6.3,-55.2 33.3,-105.1 88.6,-111.5 55.2,-6.4 105.1,33.3 111.5,88.5 l 36.9,320.5 c 6.4,55.3 -33.2,105.2 -88.5,111.6 -55.2,6.4 -105.2,-33.3 -111.5,-88.5"
         style="fill:#4d4d4d;fill-opacity:1;fill-rule:nonzero;stroke:none"
         id="path212" /><path
         d="m 19241.7,22448.9 -50.7,-12.7 50.8,12.5 -0.1,0.2 -50.7,-12.7 50.8,12.5 c 0,0 -0.6,2.4 -1.6,6.9 -7.3,32.1 -36.1,172.6 -36.1,354.1 0,99 8.6,210 33,322.2 24.5,112.2 64.7,225.3 127.5,329.9 28.7,47.7 13.2,109.6 -34.5,138.2 -47.7,28.6 -109.5,13.1 -138.1,-34.5 -76.3,-127.1 -123.4,-261.3 -151.7,-390.7 -28.2,-129.6 -37.5,-254.6 -37.6,-365.1 0.2,-235 42.4,-404.4 43.6,-409.7 13.5,-53.9 68.2,-86.7 122.2,-73.3 53.9,13.5 86.7,68.2 73.2,122.2"
         style="fill:#4d4d4d;fill-opacity:1;fill-rule:nonzero;stroke:none"
         id="path214" /><path
         d="m 21837.4,22685.5 235,436.4 c 26.3,48.9 8,110 -41,136.4 -48.9,26.3 -110,8 -136.4,-41 l -234.9,-436.3 c -26.4,-49 -8.1,-110.1 40.9,-136.4 49,-26.4 110,-8.1 136.4,40.9"
         style="fill:#4d4d4d;fill-opacity:1;fill-rule:nonzero;stroke:none"
         id="path216" /><path
         d="m 24278.6,26660.1 c 6.5,33.4 160.2,832.2 229.2,1767.2 94.7,1282.7 -18.7,2168.4 -337.3,2633.2 -2.8,4.7 -6,9.3 -9.3,13.7 -249.1,352.7 -609.2,518.8 -988,455.8 -349.8,-58.2 -651.5,-305.7 -802.2,-646.9 218.2,8.7 433.4,22 645.5,39.3 71.1,57.6 153.1,96.9 239.3,111 104.7,17.5 204.6,-2.3 296.4,-57.6 71.3,-42.7 137.8,-107.2 197.8,-192.2 525,-742.9 202.8,-3159.4 34.4,-4027.6"
         style="fill:#cf9e76;fill-opacity:1;fill-rule:nonzero;stroke:none"
         id="path218" /><path
         d="m 24377.5,26641 c 3.4,17.7 43.7,227.2 91.8,549.7 48.2,322.6 104.2,758.3 139,1229.2 21.7,294.4 32.6,568.5 32.6,822.1 -0.1,429.8 -31.2,800.9 -94.6,1113.4 -31.8,156.3 -71.7,297.9 -120.2,425 -48.5,127.1 -105.8,239.6 -172.5,337.1 l -83.1,-57 86,52.4 c -5,8.3 -9.8,15 -13.8,20.5 l -81.5,-59.2 82.3,58.1 c -114.8,162.6 -253.5,290.6 -408.8,378 -155.2,87.4 -327.1,133.6 -504.5,133.5 -57.4,0 -115.4,-4.8 -173.5,-14.5 -193.2,-32.1 -372.1,-116.4 -522.7,-238.4 -150.6,-122.1 -273.3,-282 -355.1,-467.1 -14,-31.7 -10.6,-68.6 8.9,-97.3 19.5,-28.7 52.6,-45.4 87.2,-44 219.6,8.7 436.3,22.1 649.7,39.5 20.1,1.7 39.6,9.5 55.2,22.2 59.2,47.9 125.4,78.9 192.1,89.8 h 0.4 c 19.4,3.3 38.3,4.9 56.8,4.9 29.8,0 58.4,-4.1 86.8,-12.2 28.3,-8.1 56.2,-20.3 84.2,-37.2 l 0.3,-0.1 c 56.6,-33.8 113.6,-87.8 167.2,-163.9 h 0.1 c 46.4,-65.6 87.7,-150.5 122.4,-251.1 52.1,-151 89.3,-337.1 112.8,-544.5 23.6,-207.5 33.8,-436.4 33.8,-674.3 0,-459.7 -38,-953 -88.5,-1394.6 -50.5,-441.7 -113.5,-832.1 -162.7,-1085.9 -10.6,-54.6 25.1,-107.4 79.7,-118 54.6,-10.6 107.4,25.1 118,79.7 50.4,259.9 113.9,654.1 165.1,1101.3 51.1,447.2 89.8,946.8 89.8,1417.5 0,325 -18.4,636 -64.8,908 -23.3,136.1 -53.6,262.5 -92.8,376.4 -39.4,113.9 -87.6,215.6 -148.4,301.7 v 0 c -66.3,93.9 -142.2,168.9 -228.2,220.5 l 0.2,-0.2 c -42.1,25.4 -86.6,45.1 -132.8,58.3 -46.2,13.3 -93.9,20 -142.2,20 -29.9,0 -60,-2.6 -90.1,-7.6 h 0.4 c -105.7,-17.3 -203.3,-64.8 -286.4,-132.1 l 63.4,-78.2 -8.2,100.4 c -210.7,-17.3 -424.6,-30.5 -641.2,-39.1 l 3.9,-100.6 92.2,-40.7 c 68.9,156.1 172.3,290.5 297.6,392 125.4,101.6 272.3,170.2 428.9,196.3 47.4,7.9 94.3,11.7 140.5,11.7 142.6,-0.1 279,-36.5 405.7,-107.7 126.6,-71.2 243.5,-177.6 343.1,-318.6 l 0.8,-1.1 c 2.4,-3.2 4.1,-5.8 4.7,-6.8 l 2.9,-4.6 c 56.2,-82 106.7,-180.3 150.6,-295 65.8,-172.2 116.4,-381.3 150.3,-626.2 33.9,-244.9 51.2,-525.4 51.2,-840.4 0,-247.9 -10.7,-517.1 -32.1,-807.3 -34.3,-464.1 -89.7,-895.3 -137.2,-1214.2 -47.6,-319 -87.4,-525.6 -90.4,-541.3 -10.6,-54.6 25.2,-107.4 79.8,-118 54.6,-10.5 107.4,25.2 117.9,79.8"
         style="fill:#4d4d4d;fill-opacity:1;fill-rule:nonzero;stroke:none"
         id="path220" /><path
         d="m 21767.7,18861.1 c 0,0 -1632.2,-818.9 -1928.8,-819.6 0,0 -77.6,-1260.2 -1253.1,-529.5 0,0 -1092.6,-275.9 -1081,1227.7 11.6,1503.6 4521.4,1998 4521.4,1998 l -258.5,-1876.6"
         style="fill:#cf9e76;fill-opacity:1;fill-rule:nonzero;stroke:none"
         id="path222" /><path
         d="m 21722.6,18951.1 c 0,0 -1.6,-0.8 -4.6,-2.3 -47.4,-23.7 -456,-227.6 -887.2,-424.9 -215.5,-98.6 -436.9,-195.7 -620.2,-267.4 -91.6,-35.9 -173.8,-65.4 -239.7,-85.3 -32.9,-10 -61.7,-17.6 -84.7,-22.4 -11.5,-2.4 -21.6,-4.2 -29.8,-5.2 -8.1,-1.1 -14.3,-1.4 -17.7,-1.4 -53.2,-0.2 -97,-41.5 -100.3,-94.6 l 95.2,-5.8 -95.2,6 v -0.2 l 95.2,-5.8 -95.2,6 8.8,-0.6 -8.8,0.6 v 0 l 8.8,-0.6 -8.8,0.6 c 0,-0.4 -3,-45.7 -15.7,-112 -9.6,-49.7 -24.6,-111.3 -47.3,-174.4 -17.1,-47.3 -38.5,-95.5 -64.7,-140.4 -19.7,-33.6 -42,-65.3 -67.1,-93.7 -37.8,-42.7 -81.4,-77.7 -133,-102.5 -51.7,-24.7 -111.9,-39.9 -187,-40 -69.4,0 -151.7,13.4 -248.9,46.9 -97.1,33.4 -208.8,86.9 -335.7,165.8 -23.2,14.4 -51.4,18.8 -77.9,12.1 l 14.1,-55.5 -13.7,55.6 -0.4,-0.1 14.1,-55.5 -13.7,55.6 h -0.2 c -3.4,-0.9 -72.2,-17 -169.2,-16.9 -70,0 -154.3,8.3 -239.9,35 -64.3,20.1 -129.2,50.3 -191,95.2 -46.3,33.8 -91,75.8 -132.6,129.1 -62.2,79.9 -117.7,185.2 -158,326.3 -40.3,141 -65.2,317.7 -65.2,537.7 0,7.5 0,15.1 0.1,22.8 v 0 c 0.7,81.4 16.3,158.8 45.8,234.4 27.7,70.9 67.7,140.2 119.6,208 97.1,127.1 236.1,248.5 406.4,361.1 148.8,98.5 321.3,190.4 508.8,275.1 328.3,148.2 702.7,274.2 1079.1,379.3 564.6,157.6 1133.6,268 1560.7,338.8 213.6,35.5 391.8,61 516.4,77.7 62.3,8.3 111.2,14.4 144.4,18.4 16.6,2 29.3,3.5 37.8,4.5 4.3,0.5 7.5,0.8 9.6,1.1 1.1,0.1 1.9,0.2 2.4,0.2 l 0.5,0.1 h 0.2 l -2,17.7 2,-17.7 v 0 l -2,17.7 2,-17.7 c 55.3,6.1 95.2,55.8 89.1,111.1 -6.1,55.3 -55.8,95.2 -111.1,89.1 -1.4,-0.2 -284.9,-31.2 -710.2,-101.5 -319.1,-52.7 -717.9,-127.3 -1137.5,-227.7 -314.7,-75.2 -641.2,-164.8 -954.8,-270.7 -235.3,-79.4 -463.3,-167.9 -674,-266.6 -158,-74 -306.2,-153.7 -440.5,-240.1 -201.4,-129.5 -371.8,-273.6 -494.9,-437.7 -61.5,-82 -111,-169.2 -145.2,-261.7 -34.3,-92.5 -53.2,-190.1 -54,-291.3 v 0 c 0,-8.2 -0.1,-16.3 -0.1,-24.4 0,-278.5 37.1,-501.3 100.8,-680 47.7,-134 110.5,-243 182.9,-330.1 54.3,-65.3 113.9,-118.2 175.5,-160.2 92.4,-63.2 189.1,-101.8 280.1,-124.6 91.1,-22.7 176.6,-29.8 248.8,-29.8 126.5,0.1 212.7,21.6 218.3,22.9 l -24.6,97.7 -53.2,-85.5 c 137.3,-85.3 262,-145.8 376.5,-185.2 114.5,-39.5 219,-57.9 314.5,-57.9 82.2,0 157.6,13.8 224.8,38.9 58.8,21.8 111.1,52.1 156.9,87.6 80.1,62.2 139.8,139.9 185,219.5 67.7,119.5 103.8,244 124.3,339.7 20.4,95.6 24.6,162.5 24.8,166.2 l -100.5,6.2 0.3,-100.7 c 15,0 29.6,1.3 44.7,3.3 29,3.9 59.9,10.6 94,19.6 63.7,17 138.4,42.1 222,73.1 146.2,54.4 319.3,127.2 497.5,206.1 267.3,118.3 545.8,250.2 757.8,352.7 212,102.4 357.4,175.3 357.7,175.5 49.7,24.9 69.8,85.4 44.8,135.1 -24.9,49.7 -85.4,69.8 -135.1,44.9"
         style="fill:#4d4d4d;fill-opacity:1;fill-rule:nonzero;stroke:none"
         id="path224" /><path
         d="m 17606.6,18738.9 c -0.2,-19.4 -0.2,-38.7 0.4,-57.6 19.3,706.9 1200.1,1180.3 2190.8,1453.6 998.5,275.7 2007,404.4 2205.4,428.2 l 9.9,71.7 c -172.4,-20.3 -1199.1,-148.8 -2215.3,-429.4 -996.7,-274.9 -2185.8,-752.6 -2191.2,-1466.5"
         style="fill:#ffffff;fill-opacity:1;fill-rule:nonzero;stroke:none"
         id="path226" /><path
         d="m 19223.4,17385.1 c -160,0 -355.3,71.2 -583.5,213.1 -16.1,10 -34.6,15.1 -53.3,15.1 -8.1,0 -16.4,-1 -24.5,-3 -1.4,-0.4 -69.5,-16.5 -168.3,-16.5 -125.8,0 -301.4,26.3 -451.8,145 -191.3,151 -301.5,414.7 -328.6,785.2 54.1,-122.4 105.7,-262.2 217.9,-291.8 196.7,-51.9 395.8,-74.8 595,-74.8 213.2,0 426.3,26.3 636,71.6 80.6,-82.2 170.4,-155 267.8,-216.8 114.3,-72.6 239,-130 370.9,-169.6 -7.2,-26.2 -15.6,-53.5 -25.6,-81.2 -17.1,-47.3 -38.5,-95.5 -64.7,-140.4 -19.7,-33.6 -42,-65.3 -67.1,-93.7 -34.4,-38.8 -73.6,-71.3 -119.2,-95.5 -1.1,-0.6 -2.2,-1.2 -3.3,-1.8 -58.4,-29.9 -124.3,-44.9 -197.7,-44.9"
         style="fill:#906e52;fill-opacity:1;fill-rule:nonzero;stroke:none"
         id="path228" /><path
         d="m 19424.4,17431.8 c 45.6,24.2 84.8,56.7 119.2,95.5 25.1,28.4 47.4,60.1 67.1,93.7 26.2,44.9 47.6,93.1 64.7,140.4 10,27.7 18.4,55 25.6,81.2 0.3,0 0.5,-0.1 0.8,-0.2 -39.7,-144.9 -119.5,-327.4 -277.4,-410.6"
         style="fill:#363636;fill-opacity:1;fill-rule:nonzero;stroke:none"
         id="path230" /><path
         d="m 27125.2,17960.8 c 0,0 1269.8,-1312.3 1549.5,-1411.1 0,0 -343.2,-1214.9 1007.7,-913.9 0,0 940,-621.5 1426,801.5 486.1,1422.9 -3606.9,3380.1 -3606.9,3380.1 l -376.3,-1856.6"
         style="fill:#cf9e76;fill-opacity:1;fill-rule:nonzero;stroke:none"
         id="path232" /><path
         d="m 27052.8,17890.8 c 0.5,-0.5 318.4,-329.1 672.3,-670.9 177,-171 362.9,-345.2 523.7,-484.2 80.4,-69.5 154.5,-130.3 219.3,-178 32.4,-23.9 62.5,-44.6 90.7,-61.8 14.1,-8.6 27.8,-16.4 41.3,-23.2 13.6,-6.9 26.9,-12.9 41.1,-17.9 l 33.5,94.9 -96.9,27.4 c -0.7,-2.6 -11.3,-40.3 -21.8,-100.5 -10.4,-60.2 -20.9,-142.9 -20.9,-236.2 0,-76.5 7,-160.3 28,-244.9 15.7,-63.3 39.5,-127.2 74.6,-187.8 26.3,-45.4 59.1,-88.9 99.3,-128.2 60.2,-59 137,-108 229.8,-141.2 92.9,-33.3 201.6,-51.1 327.9,-51.1 119.4,0 254.9,15.9 409.6,50.3 l -21.9,98.3 -55.5,-84 c 4.2,-2.8 60.7,-39.8 153.7,-77 46.5,-18.6 102.2,-37.2 165.1,-51.3 62.9,-14 133.1,-23.5 208.4,-23.5 86.2,0 179.3,12.5 274.3,44.9 71.2,24.3 143.4,59.7 214.3,108.5 106.4,73.2 209.4,176.2 304.1,315.6 94.8,139.5 181.6,315.2 256.9,535.7 30.9,90.4 45.5,183.3 45.5,276.4 0,98.1 -16.1,196.3 -45.2,293.6 -54.7,182.5 -154.7,362.1 -285.5,538.8 -114.6,154.6 -253,306.9 -407.6,455.9 -270.5,260.6 -590.6,511.1 -918.8,741.2 -492.4,345 -1003.3,643.8 -1391.7,856.9 -388.4,213 -654.2,340.1 -655.4,340.7 -50.2,24 -110.3,2.8 -134.3,-47.4 -24,-50.1 -2.8,-110.3 47.4,-134.2 l 10.8,22.7 -10.8,-22.7 v 0 l 10.8,22.7 -10.8,-22.7 c 2.4,-1.2 230.6,-110.5 571.3,-295.2 255.5,-138.6 574.1,-319.5 907.9,-528.9 250.3,-157.1 509.2,-330.1 756.1,-513 370.4,-274.2 713.9,-571.2 961.1,-866.5 123.6,-147.5 222.9,-294.5 290.4,-436.2 67.5,-141.9 103,-277.8 102.9,-405.7 0,-72.2 -11.1,-142.2 -34.7,-211.3 -62.7,-183.7 -132.6,-330.1 -205.4,-445.6 -54.6,-86.7 -110.8,-156.1 -167,-211.6 -84.4,-83.1 -168.5,-135 -250.2,-167.1 -81.6,-32 -161.1,-44.1 -236.4,-44.1 -58.3,0 -113.9,7.4 -164.6,18.7 -75.9,16.9 -140.4,42.7 -185.2,63.9 -22.3,10.6 -39.7,20.1 -51.1,26.7 -5.7,3.2 -9.9,5.8 -12.5,7.4 -1.3,0.8 -2.2,1.3 -2.7,1.6 l -0.3,0.3 -24.4,-37.4 24.6,37.2 -0.2,0.2 -24.4,-37.4 24.6,37.2 c -22.7,15.1 -50.8,20.2 -77.4,14.3 -143.1,-31.9 -264.3,-45.6 -365.8,-45.5 -127.4,0 -223.2,21.3 -295.6,53.6 -54.4,24.4 -96.1,54.9 -129.8,90 -25.3,26.3 -46.1,55.4 -63.3,87 -25.7,47.3 -43.3,100.2 -54.3,155.3 -11,55 -15.3,111.9 -15.3,165.9 0,78.1 9,150.1 18,201.7 4.5,25.8 9,46.5 12.3,60.5 1.6,6.9 2.9,12.2 3.8,15.6 0.4,1.7 0.8,2.9 0.9,3.6 l 0.2,0.7 v 0 l -58,16.2 58,-16.3 v 0.1 l -58,16.2 58,-16.3 c 14.5,51.1 -13.2,104.6 -63.4,122.3 -3.3,1.1 -9.3,3.7 -17,7.6 -14.9,7.5 -35.9,20.1 -60.3,36.7 -45.9,31.1 -104.3,76.2 -169.8,130.6 -114.8,95.4 -252,219.2 -392.3,350.9 -210.5,197.6 -428.6,412.9 -593.8,578.6 -82.6,82.9 -152,153.4 -200.8,203.1 -24.4,24.9 -43.5,44.6 -56.6,58 -6.6,6.7 -11.6,11.9 -15,15.4 -3.3,3.5 -5,5.2 -5,5.2 -38.7,40 -102.5,41 -142.4,2.4 -40,-38.7 -41,-102.5 -2.4,-142.4 v 0"
         style="fill:#4d4d4d;fill-opacity:1;fill-rule:nonzero;stroke:none"
         id="path234" /><path
         d="m 31012.1,16470.1 c -6.2,-18.3 -12.6,-36.5 -19.4,-54.2 215.4,673.6 -742.5,1510.7 -1587.2,2096.1 -851.3,590.2 -1760.6,1045 -1940,1133 l 14.4,70.9 c 156,-76.1 1082.5,-536.8 1948.9,-1137.4 849.8,-588.9 1814.1,-1432.8 1583.3,-2108.4"
         style="fill:#ffffff;fill-opacity:1;fill-rule:nonzero;stroke:none"
         id="path236" /><path
         d="m 30154.6,15602.6 c -232.8,0 -415.2,116.8 -417.4,118.2 -16.7,11 -36,16.6 -55.6,16.6 -7.2,0 -14.5,-0.7 -21.7,-2.3 -137.5,-30.7 -260.1,-46 -367.3,-46 -191.2,0 -333.6,48.6 -425.6,145.5 -1.7,1.8 -3.4,3.6 -5.1,5.4 -22,24.3 -40.4,50.7 -55.9,79.2 -25.7,47.3 -43.3,100.2 -54.3,155.3 -11,55 -15.3,111.9 -15.3,165.9 0,78.1 9,150.1 18,201.7 4.5,25.8 9,46.5 12.3,60.5 1.6,6.9 2.9,12.2 3.8,15.6 0.4,1.7 0.8,2.9 0.9,3.6 l 0.2,0.6 v 0 c 9.5,33.6 0.8,68.3 -20.6,93.1 -11.2,13.3 -25.9,23.9 -43.4,30.1 -6.8,2.4 -14.5,5.8 -23,10.1 -14.3,7.7 -32.7,19 -53.7,33.3 -43.2,29.3 -97.5,71 -158.3,121.1 88.9,86 163.2,174.7 224.4,264.8 529,-501.9 1182.8,-949 1935.6,-1008.7 4.3,-0.4 8.7,-0.5 13,-0.5 109.8,0 200.9,109.9 289.1,203.9 -148.1,-340.8 -339.3,-553.2 -569.8,-632.5 -72.2,-24.9 -143.3,-34.5 -210.3,-34.5"
         style="fill:#906e52;fill-opacity:1;fill-rule:nonzero;stroke:none"
         id="path238" /><path
         d="m 28861.9,15840 c -213.2,233.8 -92.2,678.9 -91.1,683.3 9.4,33.2 1,67.4 -19.8,92.2 21.4,-24.8 30.1,-59.5 20.6,-93.1 v 0 l -0.2,-0.6 c -0.1,-0.7 -0.5,-1.9 -0.9,-3.6 -0.9,-3.4 -2.2,-8.7 -3.8,-15.6 -3.3,-14 -7.8,-34.7 -12.3,-60.5 -9,-51.6 -18,-123.6 -18,-201.7 0,-54 4.3,-110.9 15.3,-165.9 11,-55.1 28.6,-108 54.3,-155.3 15.5,-28.5 33.9,-54.9 55.9,-79.2 m -177.3,815.7 c -47.9,24.5 -121.5,78.9 -212.3,154.2 0.1,0.1 0.2,0.1 0.3,0.2 60.8,-50.1 115.1,-91.8 158.3,-121.1 21,-14.3 39.4,-25.6 53.7,-33.3"
         style="fill:#363636;fill-opacity:1;fill-rule:nonzero;stroke:none"
         id="path240" /><path
         d="m 27552.8,19795.3 c 53.9,-768.4 720.4,-1347.6 1488.7,-1293.8 768.4,53.8 1347.6,720.3 1293.8,1488.7 -53.8,768.4 -720.3,1347.6 -1488.7,1293.8 -768.4,-53.8 -1347.6,-720.4 -1293.8,-1488.7"
         style="fill:#cf9e76;fill-opacity:1;fill-rule:nonzero;stroke:none"
         id="path242" /><path
         d="m 27552.8,19795.3 -100.4,-7.1 c 13.8,-196.8 65.2,-382.4 146.7,-549.8 122.3,-251.2 312.2,-461.3 544.4,-608.8 232.2,-147.4 507.4,-232.3 799.1,-232.3 35.1,0 70.5,1.3 105.9,3.8 196.9,13.7 382.6,65.2 550,146.7 251.1,122.3 461.2,312.1 608.7,544.4 147.4,232.2 232.3,507.3 232.3,799.1 0,35.1 -1.3,70.4 -3.7,105.9 -13.8,196.8 -65.2,382.6 -146.8,550 -122.3,251.1 -312.1,461.2 -544.4,608.7 -232.2,147.4 -507.3,232.3 -799.1,232.3 -35.1,0 -70.4,-1.3 -105.9,-3.8 -196.8,-13.7 -382.5,-65.2 -549.9,-146.7 -251.2,-122.3 -461.3,-312.1 -608.7,-544.4 -147.5,-232.2 -232.4,-507.4 -232.3,-799.1 0,-35.1 1.2,-70.4 3.7,-106 l 100.4,7.1 100.5,7 c -2.2,30.9 -3.2,61.5 -3.2,91.9 0,168.4 32.5,330 92.1,478.7 89.2,223 239.3,416.9 430.9,559.3 191.7,142.4 424.4,233.4 680.5,251.3 30.9,2.2 61.5,3.3 91.9,3.3 168.5,0 330,-32.6 478.7,-92.1 223,-89.3 416.9,-239.4 559.3,-431 142.4,-191.7 233.4,-424.4 251.4,-680.5 2.1,-30.8 3.2,-61.5 3.2,-91.9 0,-168.4 -32.6,-330 -92.1,-478.7 -89.3,-223 -239.4,-416.9 -431,-559.3 -191.7,-142.4 -424.4,-233.4 -680.5,-251.3 -30.8,-2.2 -61.5,-3.3 -91.9,-3.3 -168.4,0 -330,32.6 -478.7,92.1 -223,89.3 -416.9,239.4 -559.3,431 -142.4,191.7 -233.3,424.4 -251.3,680.5 l -100.5,-7"
         style="fill:#4d4d4d;fill-opacity:1;fill-rule:nonzero;stroke:none"
         id="path244" /><path
         d="m 27883.4,19846.5 c 31.5,-449.3 421.3,-788.1 870.6,-756.6 449.4,31.5 788.2,421.3 756.7,870.6 -31.5,449.4 -421.3,788.2 -870.7,756.7 -449.3,-31.5 -788.1,-421.3 -756.6,-870.7"
         style="fill:#f5e0cd;fill-opacity:1;fill-rule:nonzero;stroke:none"
         id="path246" /><path
         d="m 27883.4,19846.5 -100.5,-7 c 8.5,-120.5 40,-234.4 90,-337 75,-153.9 191.2,-282.6 333.5,-373 142.3,-90.3 311,-142.4 489.8,-142.3 21.5,0 43.1,0.7 64.8,2.2 h 0.1 c 120.5,8.5 234.4,40 337,90 153.9,75 282.6,191.2 372.9,333.5 90.4,142.3 142.4,311 142.4,489.8 0,21.5 -0.7,43.1 -2.3,64.8 v 0.1 c -8.4,120.5 -39.9,234.3 -89.9,336.9 -75,154 -191.3,282.7 -333.6,373 -142.2,90.4 -310.9,142.4 -489.7,142.4 -21.5,0 -43.1,-0.7 -64.9,-2.3 v 0 c -120.5,-8.4 -234.4,-39.9 -337,-89.9 -153.9,-75 -282.6,-191.3 -373,-333.6 -90.3,-142.2 -142.4,-311 -142.3,-489.7 0,-21.5 0.7,-43.2 2.2,-64.9 v 0 l 100.5,7 100.4,7.1 c -1.1,17 -1.7,34 -1.7,50.8 0,93.1 18,182.3 50.8,264.4 49.3,123.2 132.3,230.4 238.2,309.1 106,78.7 234.3,128.9 376,138.8 v 0 c 17,1.2 34,1.8 50.8,1.8 93.1,0 182.3,-18 264.4,-50.8 123.2,-49.3 230.4,-132.3 309.1,-238.2 78.7,-106 128.9,-234.3 138.8,-376 v 0 c 1.2,-17 1.8,-34 1.8,-50.8 0,-93.1 -18,-182.3 -50.9,-264.4 -49.2,-123.2 -132.2,-230.4 -238.1,-309.1 -106,-78.7 -234.3,-128.9 -376,-138.9 v 0 c -17.1,-1.2 -34,-1.7 -50.8,-1.7 -93.1,0 -182.3,17.9 -264.4,50.8 -123.2,49.3 -230.4,132.3 -309.1,238.2 -78.7,105.9 -128.9,234.3 -138.9,376 v 0 l -100.4,-7.1"
         style="fill:#4d4d4d;fill-opacity:1;fill-rule:nonzero;stroke:none"
         id="path248" /><path
         d="m 21521.9,19372.8 c 53.8,-768.4 -525.4,-1434.9 -1293.8,-1488.7 -768.4,-53.8 -1434.9,525.4 -1488.7,1293.8 -53.8,768.3 525.4,1434.8 1293.8,1488.7 768.3,53.8 1434.9,-525.4 1488.7,-1293.8"
         style="fill:#cf9e76;fill-opacity:1;fill-rule:nonzero;stroke:none"
         id="path250" /><path
         d="m 21521.9,19372.8 -100.5,-7.1 c 2.2,-30.8 3.2,-61.4 3.2,-91.8 0,-168.5 -32.5,-330 -92,-478.7 -89.3,-223 -239.4,-416.9 -431,-559.3 -191.7,-142.4 -424.4,-233.4 -680.5,-251.4 -30.9,-2.1 -61.5,-3.2 -91.9,-3.2 -168.5,0 -330,32.6 -478.7,92.1 -223,89.3 -416.9,239.4 -559.3,431 -142.4,191.7 -233.4,424.4 -251.3,680.5 -2.2,30.8 -3.3,61.5 -3.3,91.9 0,168.4 32.6,330 92.1,478.7 89.3,223 239.4,416.9 431,559.3 191.7,142.4 424.4,233.3 680.5,251.3 30.8,2.2 61.5,3.2 91.9,3.2 168.4,0 330,-32.5 478.7,-92.1 223,-89.2 416.9,-239.3 559.3,-430.9 142.4,-191.7 233.3,-424.4 251.3,-680.6 l 100.5,7.1 100.4,7 c -13.8,196.8 -65.2,382.5 -146.7,549.9 -122.3,251.2 -312.1,461.3 -544.4,608.7 -232.2,147.5 -507.4,232.4 -799.1,232.3 -35.1,0 -70.5,-1.2 -106,-3.7 -196.8,-13.8 -382.5,-65.2 -549.9,-146.7 -251.1,-122.3 -461.2,-312.1 -608.7,-544.4 -147.4,-232.2 -232.3,-507.4 -232.3,-799.1 0,-35.1 1.3,-70.5 3.7,-106 13.8,-196.8 65.2,-382.5 146.8,-549.9 122.3,-251.1 312.1,-461.2 544.4,-608.7 232.2,-147.4 507.3,-232.3 799.1,-232.3 35.1,0 70.4,1.2 105.9,3.7 196.8,13.8 382.5,65.2 549.9,146.8 251.2,122.3 461.3,312.1 608.8,544.4 147.4,232.2 232.3,507.3 232.2,799.1 0,35.1 -1.2,70.4 -3.7,105.9 l -100.4,-7"
         style="fill:#4d4d4d;fill-opacity:1;fill-rule:nonzero;stroke:none"
         id="path252" /><path
         d="m 28943.1,18599 c -56,0 -111.4,3.6 -165.7,10.6 -36.5,84.2 -74.6,158.2 -109.3,219.8 -37.3,66.1 -70.6,117.9 -94,152.2 1.7,4.4 3.5,8.7 5.3,13 38.3,-4.9 77.3,-7.4 116.8,-7.4 21.5,0 43.1,0.7 64.8,2.2 h 0.1 c 120.5,8.5 234.4,40 337,90 80.6,39.2 154.3,89.8 219.1,149.5 457.1,153.8 794.9,554.5 867,1033.6 26.6,-89.2 43.9,-182.5 50.6,-279.1 49.9,-711.8 -488.5,-1331.4 -1200.3,-1381.2 -30.7,-2.2 -61.1,-3.2 -91.4,-3.2"
         style="fill:#906e52;fill-opacity:1;fill-rule:nonzero;stroke:none"
         id="path254" /><path
         d="m 28696.2,18987.2 c -39.5,0 -78.5,2.5 -116.8,7.4 26.2,64.5 51,128.2 74.4,191.3 81.1,-16 164.7,-24.4 249.9,-24.4 30.2,0 60.8,1.1 91.4,3.2 112.2,7.9 220.1,29.9 322.1,64.2 -64.8,-59.7 -138.5,-110.3 -219.1,-149.5 -102.6,-50 -216.5,-81.5 -337,-90 h -0.1 c -21.7,-1.5 -43.3,-2.2 -64.8,-2.2"
         style="fill:#363636;fill-opacity:1;fill-rule:nonzero;stroke:none"
         id="path256" /><path
         d="m 20129.8,17981.6 c -672.7,0 -1242.2,522.4 -1289.9,1203.5 -6.8,96.7 -2.7,191.4 11.2,283.5 160.6,-539.8 661.9,-924.6 1239.3,-924.5 30.2,0 60.7,1 91.3,3.2 138.2,9.7 269.8,40.8 391.9,90 55.2,-104.9 100.6,-183.2 128.4,-229.6 -21.6,-46.4 -53.7,-121.2 -85.9,-217.3 -13.2,-39.7 -26.5,-83 -39,-129.5 -111.9,-41.2 -231.2,-67.4 -356,-76.1 -30.6,-2.2 -61.1,-3.2 -91.3,-3.2"
         style="fill:#906e52;fill-opacity:1;fill-rule:nonzero;stroke:none"
         id="path258" /><path
         d="m 27653.3,19802.2 c -49.9,711.8 488.5,1331.4 1200.3,1381.2 711.8,49.9 1331.4,-488.5 1381.2,-1200.3 0.4,-5.6 0.7,-11.1 1,-16.7 0.2,-3.3 0.7,-6.5 0.9,-9.8 0.6,-9 1.2,-17.9 1.5,-26.9 -63.1,698.5 -676,1222.9 -1379,1173.6 -702.9,-49.2 -1236.7,-653.9 -1201.8,-1354.4 -1,9 -1.6,17.8 -2.3,26.9 -0.2,3.3 -0.2,6.5 -0.4,9.8 -0.5,5.5 -1,11 -1.4,16.6"
         style="fill:#ffffff;fill-opacity:1;fill-rule:nonzero;stroke:none"
         id="path260" /><path
         d="m 18839.9,19184.8 c -49.8,711.8 488.6,1331.4 1200.4,1381.2 711.6,49.9 1331.3,-488.5 1381.2,-1200.3 0.4,-5.6 0.6,-11.2 0.9,-16.7 0.3,-3.3 0.7,-6.5 1,-9.8 0.6,-9 1.2,-17.9 1.4,-27 -63,698.6 -676.1,1223 -1378.9,1173.7 -703,-49.2 -1236.8,-653.9 -1201.8,-1354.4 -1.1,9 -1.7,17.8 -2.3,26.8 -0.3,3.3 -0.3,6.6 -0.5,9.9 -0.4,5.5 -1,11 -1.4,16.6"
         style="fill:#ffffff;fill-opacity:1;fill-rule:nonzero;stroke:none"
         id="path262" /><path
         d="m 21187.4,19377.4 c 31.5,-449.3 -307.3,-839.1 -756.7,-870.6 -449.3,-31.5 -839.1,307.3 -870.6,756.6 -31.5,449.4 307.3,839.2 756.6,870.7 449.4,31.5 839.2,-307.3 870.7,-756.7"
         style="fill:#f5e0cd;fill-opacity:1;fill-rule:nonzero;stroke:none"
         id="path264" /><path
         d="m 21187.4,19377.4 -100.5,-7 c 1.2,-17 1.8,-34 1.8,-50.8 0,-93.1 -18,-182.3 -50.8,-264.4 -49.3,-123.2 -132.3,-230.4 -238.2,-309.1 -106,-78.7 -234.3,-128.9 -376,-138.9 -17,-1.1 -34,-1.7 -50.8,-1.7 -93.1,0 -182.3,18 -264.4,50.8 -123.2,49.3 -230.4,132.3 -309.1,238.2 -78.7,106 -128.9,234.3 -138.9,376 -1.2,17 -1.7,34 -1.7,50.8 0,93.1 17.9,182.3 50.8,264.4 49.3,123.2 132.3,230.4 238.2,309.1 106,78.7 234.3,128.9 376,138.8 17.1,1.2 34,1.8 50.8,1.8 93.1,0 182.3,-18 264.4,-50.8 123.2,-49.3 230.4,-132.3 309.1,-238.2 78.7,-106 128.9,-234.3 138.8,-376 l 100.5,7 100.4,7.1 c -8.4,120.5 -39.9,234.4 -89.9,337 -75,153.9 -191.3,282.6 -333.6,373 -142.2,90.3 -311,142.3 -489.7,142.3 -21.5,0 -43.2,-0.7 -64.9,-2.3 -120.5,-8.4 -234.4,-39.9 -337,-89.9 -153.9,-75 -282.6,-191.2 -373,-333.6 -90.3,-142.2 -142.4,-310.9 -142.3,-489.7 0,-21.5 0.7,-43.2 2.2,-64.9 8.5,-120.5 40,-234.4 90,-337 75,-153.9 191.2,-282.6 333.5,-373 142.3,-90.3 311,-142.3 489.8,-142.3 21.5,0 43.1,0.7 64.9,2.2 120.5,8.5 234.4,40 337,90 153.9,75 282.6,191.2 373,333.6 90.3,142.2 142.3,310.9 142.3,489.7 0,21.5 -0.7,43.1 -2.3,64.9 l -100.4,-7.1"
         style="fill:#4d4d4d;fill-opacity:1;fill-rule:nonzero;stroke:none"
         id="path266" /><path
         d="m 26481,24207 c 0,0 3596.1,-1380 1978.7,-5238.3 0,0 2104.7,-2739.5 -3573.2,-3137.3 -5677.9,-397.8 -4069.7,2581.7 -4069.7,2581.7 0,0 -2356.8,3670.8 1010,5467.9 2835.4,1513.5 3029.7,2284.9 3029.7,2284.9 0,0 668.6,-609.3 380.5,-1396.6 0,0 766.5,154.6 911.4,679.6 0,0 430.7,-864.9 332.6,-1241.9"
         style="fill:#cf9e76;fill-opacity:1;fill-rule:nonzero;stroke:none"
         id="path268" /><path
         d="m 26481,24207 -36.1,-94 30.5,79.4 -30.6,-79.3 0.1,-0.1 30.5,79.4 -30.6,-79.3 c 0,0 2.1,-0.8 6.4,-2.6 33.6,-13.4 197.4,-81.4 423.2,-211.6 338.9,-195.2 816.9,-530.8 1207.4,-1029.9 195.3,-249.6 369,-539.9 493.9,-874.7 125,-335 201.4,-714.5 201.5,-1144.3 -0.1,-533.2 -117.8,-1144.4 -410.4,-1842.3 -14,-33.5 -9.1,-71.5 13.1,-100.3 l 1.9,1.5 -2,-1.5 h 0.1 l 1.9,1.5 -2,-1.5 c 2.9,-3.6 94.5,-124.9 184.1,-314.5 44.8,-94.8 89.2,-206.6 122.1,-329 33,-122.4 54.5,-255.3 54.5,-392.7 0,-94.2 -10.1,-190.4 -33.4,-287.5 -41,-169.8 -122,-342.3 -265,-511.8 -107.2,-127.1 -249.7,-252.5 -437.1,-371.7 -281,-178.8 -663.3,-343.4 -1175.1,-476.7 -511.7,-133.5 -1152.8,-235.8 -1950.5,-291.6 -353.1,-24.8 -677.6,-36.3 -975.4,-36.3 -685.1,-0.1 -1229.2,61.3 -1658.1,163.5 -321.7,76.6 -578.5,176.1 -782.2,289.4 -152.8,84.9 -275.7,177.5 -374.6,274.3 -148.2,145.3 -242.6,299.9 -301.2,456.3 -58.5,156.3 -80.7,314.8 -80.7,465.7 -0.1,224.6 49.7,431.8 99.9,581.7 25.1,75 50.2,135.7 68.7,177.1 9.3,20.7 17,36.6 22.2,47.1 2.6,5.2 4.6,9.1 5.8,11.6 0.7,1.2 1.1,2.1 1.4,2.6 l 0.3,0.5 v 0 l -52.4,28.1 52.3,-28.2 0.1,0.1 -52.4,28.1 52.3,-28.2 c 17.4,32.2 15.9,71.4 -3.9,102.2 l -71.6,-46 71.7,46 h -0.1 l -71.6,-46 71.7,46 -0.5,0.7 c -10.6,16.6 -208.1,329.7 -402,806.5 -97,238.3 -193,517.6 -264.7,820.8 -71.7,303.2 -118.9,630.2 -118.9,964.3 0,242.8 24.9,489.2 83.1,733.4 87.5,366.3 249.5,727.6 517.4,1066.9 268,339.2 642.7,656.8 1158.2,932.1 1423.1,759.7 2187.6,1334.9 2600,1725.7 206.2,195.5 324.3,345 392,448.9 67.7,103.8 84.9,162.3 88,174.5 l -97.7,24.6 -67.8,-74.4 67.8,74.4 -67.8,-74.3 v -0.1 l 67.8,74.4 -67.8,-74.3 29,31.8 -29.1,-31.8 h 0.1 l 29,31.8 -29.1,-31.8 1.1,-1 c 12.3,-11.4 119.3,-114.3 221,-278.4 51,-82.1 100.6,-179.3 137.3,-287.7 36.6,-108.4 60.4,-227.9 60.4,-355.7 -0.1,-114.8 -19,-236.5 -65.9,-364.9 -12.5,-34.1 -5.5,-72.7 18.1,-100.2 23.7,-27.6 60.7,-40.3 96.3,-33.1 2.6,0.5 53.6,10.9 131.6,34.8 58.6,17.9 132.4,43.5 212.6,78.5 120.3,52.5 255.3,125.9 374.4,229.1 59.4,51.6 114.9,110.7 161.7,178.7 46.7,68 84.7,144.9 108.2,230.4 l -97,26.8 -90.2,-44.9 15.1,7.5 -15.1,-7.5 v 0 l 15.1,7.5 -15.1,-7.5 c 0.5,-0.8 86.1,-173.3 170.7,-394.2 42.3,-110.4 84.4,-233 115.4,-351.3 15.5,-59.1 28.2,-117.1 37,-171.6 8.8,-54.6 13.5,-105.7 13.5,-150.4 0.1,-40.9 -4,-76.4 -11.3,-104.1 -12.9,-49.7 13.5,-101 61.4,-119.4 l 36.1,94 97.5,-25.3 c 12.7,49.4 17.7,101.1 17.7,154.8 0,58.9 -6,120.2 -16.2,183.1 -17.7,109.9 -48.1,224.6 -83.3,335.8 -53,166.7 -117.2,325.4 -168.4,443.1 -51.1,117.6 -89.2,194.1 -89.8,195.3 -18.6,37.3 -58.4,59.3 -99.8,55.3 -41.5,-4 -76.3,-33.3 -87.4,-73.4 -15.3,-55.2 -38.6,-105.7 -68.5,-152.5 -52.3,-81.8 -125.2,-152.4 -206.9,-211.6 -122.4,-88.9 -263.9,-151.1 -373.8,-189.8 -55,-19.4 -102.1,-33 -135,-41.7 -16.5,-4.4 -29.4,-7.5 -38,-9.4 -4.3,-1 -7.5,-1.7 -9.5,-2.2 -1,-0.2 -1.8,-0.3 -2.2,-0.4 l -0.4,-0.1 v 0 l 7,-34.3 -7,34.3 v 0 l 7,-34.3 -7,34.3 11.3,-55.5 -11.3,55.5 v 0 l 11.3,-55.5 -11.3,55.5 v 0 l 19.6,-96.5 -19.5,96.5 h -0.1 l 19.6,-96.5 -19.5,96.5 19.9,-98.7 94.6,-34.6 c 55.2,150.7 78.2,296.9 78.2,434.1 0,159.2 -30.9,306 -76.4,435.8 -68.5,194.8 -169.7,352 -253.9,461.4 -84.3,109.5 -151.9,171.4 -155.1,174.4 -26.1,23.8 -63.1,32.2 -96.9,22 -33.8,-10.2 -60,-37.6 -68.6,-71.9 l 48.3,-12.1 -47.7,14.4 c 0,0 -0.2,-0.7 -0.6,-2.3 l 48.3,-12.1 -47.7,14.4 c -0.1,-0.3 -14.5,-47.8 -79.5,-142.2 -97.4,-141.5 -309.1,-388.2 -753.5,-736.1 -444.3,-347.9 -1121,-797 -2147.1,-1344.7 -357.7,-190.9 -653.8,-403.6 -896.5,-631.8 -364.1,-342.2 -607.4,-719.7 -758.5,-1107.7 -151.1,-388 -210.3,-785.8 -210.3,-1170.5 0.1,-359 51.5,-706.8 128.1,-1026.6 115.1,-479.7 286.9,-896.7 430.1,-1194.8 143.3,-298 258.1,-477 259.8,-479.7 l 84.7,54.4 -88.6,47.8 c -2,-3.8 -57,-106 -112.1,-270.5 -54.9,-164.5 -110.2,-391.5 -110.3,-645.6 -0.1,-202.1 35.4,-422.1 135.9,-637.5 75.3,-161.5 187.2,-320 345,-464.9 118.4,-108.8 262.4,-210 435.9,-300.5 260.4,-135.8 586.9,-247.5 995.1,-325.5 408.2,-78 898.1,-122.2 1486.3,-122.2 303,0 632.1,11.7 989.5,36.8 820,57.4 1480.8,163.5 2012.2,304.1 398.6,105.6 724.6,230.6 990.1,369.8 199.2,104.4 364.4,216.9 500.3,335.1 203.8,177.3 341.4,368.1 426.9,561 85.6,192.9 118.9,387.1 118.9,570.2 0,160.9 -25.5,313.4 -63.2,451.5 -56.6,207.2 -140.5,382.3 -210.6,506.7 -70,124.3 -126.3,197.7 -128.5,200.7 l -79.9,-61.4 92.9,-38.9 c 301.3,718.7 426,1357.2 425.9,1920.2 0.2,625.9 -154.3,1157.6 -386,1599.5 -173.6,331.5 -390.3,612.7 -617,848 -340.3,352.8 -703.2,602.6 -981.7,765 -278.5,162.3 -472.8,237 -476.7,238.5 l -36.1,-94 97.5,-25.3 -97.5,25.3"
         style="fill:#4d4d4d;fill-opacity:1;fill-rule:nonzero;stroke:none"
         id="path270" /><path
         d="m 25111.6,24670.5 c -12.5,-34.2 -5.6,-72.5 18.1,-100.1 23.8,-27.8 60.6,-40.4 96.4,-33.2 29.1,5.8 626.4,131.1 891.5,537.7 128.2,-297.3 292.3,-755.6 235.1,-975.8 -12.9,-49.6 13.5,-101.1 61.4,-119.5 18.3,-7 1480.5,-585.3 2077.4,-1985 275.4,-646.3 327.5,-1366.6 156.4,-2150.9 207.3,836.1 165.8,1601.5 -125.4,2284.3 -596.9,1399.7 -2059.1,1978 -2077.3,1985 -48,18.4 -74.4,69.9 -61.5,119.5 57.3,220.2 -106.9,678.5 -235.1,975.8 -265.1,-406.6 -862.4,-531.9 -891.4,-537.7 -35.9,-7.2 -72.7,5.4 -96.4,33.2 -12.1,14.1 -20,30.9 -22.8,48.5 -7.6,-27 -16.4,-54.3 -26.4,-81.8"
         style="fill:#ffffff;fill-opacity:1;fill-rule:nonzero;stroke:none"
         id="path272" /><path
         d="m 20182.4,21718.2 c 130.9,502.2 394.5,943.3 786.8,1319.1 27.3,26.2 55.4,52.1 83.9,77.4 162.5,145.7 345.2,280.7 547.8,405.1 22.9,14.1 46.1,28.2 69.6,42 55.9,33.2 113.7,65.4 172.8,97 1184.1,631.9 2058.7,1212.7 2600.2,1725.8 222.7,210.9 366.5,341.1 431,445.5 142.6,-168.8 364.8,-507.2 289.5,-961.9 154.6,515.7 -125.8,938.8 -281.9,1123.6 -64.5,-104.4 -185,-262.8 -407.7,-473.9 -541.3,-513.1 -1416.1,-1093.9 -2600,-1725.8 -115,-61.3 -224.1,-125.5 -327.7,-192.7 -23.4,-15.1 -46.8,-30.7 -69.5,-46.2 -165.4,-111.5 -315.6,-230.9 -450.9,-357.6 -29.3,-27.4 -57.7,-55.1 -85.2,-82.9 -359.9,-363.2 -603.4,-784.6 -727.6,-1261.2 -11.5,-44.4 -21.9,-88.9 -31.1,-133.3"
         style="fill:#ffffff;fill-opacity:1;fill-rule:nonzero;stroke:none"
         id="path274" /><path
         d="m 20988.8,17482.5 c 56.2,-802.1 1187.3,-1783.6 3831.1,-1655.7 2635.9,241.9 3619.1,1371.5 3562.9,2173.7 -56.3,803.6 -1017,588.4 -1017,588.4 1507.1,2407 -506.3,4345.4 -1704.4,4301.9 -858.7,-31.3 -1159.3,-702.4 -1260.7,-1080.2 -153,359.9 -544.2,982.6 -1398.9,893.9 -1192.5,-124 -2915.9,-2324.1 -1088,-4497.6 0,0 -981.3,79.2 -925,-724.4"
         style="fill:#f5e0cd;fill-opacity:1;fill-rule:nonzero;stroke:none"
         id="path276" /><path
         d="m 20988.8,17482.5 -100.4,-7 c 14.6,-209.4 95,-425.7 242.1,-630.4 110.4,-153.6 258.3,-300.9 445,-435.5 280.1,-202 647.5,-375.4 1109.3,-498.7 461.9,-123.2 1018.4,-196.1 1677.6,-196.2 148.9,0 303,3.8 462.4,11.5 l 4.3,0.3 c 647.7,59.4 1198.4,172.1 1660.9,321.1 693.8,223.7 1189.9,529.1 1515.4,862.1 162.7,166.4 282.6,339.9 362,513.3 79.4,173.5 118.3,347 118.3,512.3 0,24.3 -0.8,48.4 -2.5,72.2 v 0.1 c -5,72 -16.8,137.9 -34.6,198.1 -31.1,105.4 -81.3,193.1 -143.7,262.4 -46.8,52.1 -100.1,93.9 -156.1,126.8 -84.2,49.5 -174.4,79.3 -262,97.2 -87.7,17.8 -173.1,23.6 -249.4,23.7 -83,0 -155.2,-7 -207.2,-14 -52.1,-7.1 -84.1,-14.2 -86.4,-14.7 l 22,-98.2 85.4,-53.5 c 195.5,312.3 333.9,618.2 423.4,914.5 89.5,296.3 130,582.9 130,855.6 0,395.3 -85,761.4 -226.9,1087 -106.3,244.2 -244.5,465.8 -402.8,660.9 -237.5,292.7 -519.9,526.1 -810.4,687.4 -145.3,80.6 -292.7,143.3 -437.9,186 -145.2,42.6 -288.4,65.4 -425.3,65.4 -14.6,0 -29.2,-0.3 -43.7,-0.8 h 0.1 c -227.5,-8.2 -422,-59.4 -585.4,-138.9 -122.5,-59.6 -227.5,-135 -316.5,-218.7 -133.6,-125.6 -231.6,-269.6 -303.8,-409.5 -72.1,-139.9 -118.5,-275.9 -148.5,-387.6 l 97.2,-26.1 92.7,39.4 c -37.6,88.4 -88.8,191.9 -157.2,298.1 -51.3,79.6 -112.3,160.8 -184.6,238.1 -108.4,115.8 -242.7,223.1 -406.9,301.2 -164.1,78.1 -358,126.4 -581.3,126.3 -55.5,0 -112.8,-2.9 -172,-9.1 -223.7,-23.4 -456.8,-111.8 -682.2,-250.8 -169.1,-104.3 -333.9,-237.5 -486.5,-395 -228.8,-236.3 -430.2,-527.5 -575,-859.5 -144.7,-331.8 -232.5,-704.5 -232.5,-1102 0,-323.4 58.3,-662.9 190.3,-1008.6 132,-345.8 337.7,-697.6 631.2,-1046.6 l 77.1,64.8 8.1,100.4 c -2.2,0.2 -31.5,2.5 -79,2.5 -58.2,-0.1 -143.8,-3.4 -241.1,-18.9 -72.9,-11.6 -152.5,-29.9 -232.3,-59.5 -59.7,-22.1 -119.6,-50.6 -176.3,-87.7 -42.6,-27.7 -83.3,-60.4 -120.5,-98.6 -55.8,-57.4 -103.3,-127.7 -136.1,-211 -32.8,-83.2 -50.9,-178.8 -50.8,-286.4 0,-23.4 0.8,-47.5 2.6,-72.2 l 100.4,7 100.5,7.1 c -1.5,20.2 -2.1,39.5 -2.1,58.1 0,67.5 8.8,125 23.6,174.6 13.1,43.4 30.8,81 52.1,114.3 37.4,58.1 86.5,103.8 143.9,140.8 43,27.6 90.5,50 139.8,67.7 73.8,26.7 151.3,42.8 221.1,51.9 69.9,9.1 132,11.4 175.2,11.4 20.5,0 36.8,-0.5 47.6,-1 5.4,-0.2 9.5,-0.5 12.1,-0.6 1.3,-0.1 2.2,-0.2 2.7,-0.2 l 0.5,-0.1 v 0 l 5,63.9 -5.1,-63.9 h 0.1 l 5,63.9 -5.1,-63.9 c 40.6,-3.2 78.9,18.1 97.6,54.3 18.6,36.2 13.8,79.8 -12.4,110.9 -280.5,333.6 -473.8,665.7 -597.2,988.8 -123.4,323.2 -177,637.5 -177.1,936.8 0,326.9 64.1,635.9 172.9,917.3 163,422.2 427.2,782.2 722.7,1042.3 147.7,130.1 303,235.2 456.4,310.9 153.4,75.8 304.7,122.1 443.6,136.5 52.5,5.5 102.8,8 151.2,8 173,0 320.3,-32.7 447.9,-85.9 95.7,-39.9 180.3,-91.7 255.5,-150.9 112.6,-88.7 203.9,-194.5 276.6,-301 72.6,-106.5 126.5,-213.5 164.7,-303.3 16.7,-39.5 56.9,-64 99.7,-61.1 42.7,3 79.1,33 90.2,74.4 24,89.6 59.9,196.7 112.5,306.3 39.4,82.3 88.2,166 148.1,245.2 89.9,119 204.3,227.7 351.5,309.2 147.3,81.4 327.9,136.5 554.9,145 h 0.1 c 11.9,0.4 24,0.6 36.2,0.6 203.5,0.2 439.2,-61.3 676.4,-179.3 178,-88.4 356.7,-208.2 524.2,-355.4 251.3,-220.8 477.1,-503 639.4,-832.5 162.5,-329.5 261.8,-705.9 261.9,-1118.1 0,-252.8 -37.4,-519.3 -121.4,-797.3 -83.9,-278 -214.5,-567.5 -401.3,-865.9 -21.6,-34.5 -20.4,-78.4 3.1,-111.6 23.6,-33.3 64.5,-49 104.3,-40.1 l -13.4,59.8 13.2,-59.8 h 0.2 l -13.4,59.8 13.2,-59.8 h 0.3 c 5.5,1.3 112.7,23.9 249.4,23.8 66.9,0 140.7,-5.4 212.6,-20.4 54,-11.2 106.8,-27.7 155.4,-50.8 36.4,-17.3 70.4,-38.3 101.2,-63.5 46.2,-37.9 85.6,-84.9 116.3,-147 30.6,-62.1 52.4,-139.9 59.4,-239.2 v 0 c 1.4,-19.1 2.1,-38.6 2.1,-58.2 0,-178 -55.9,-376.5 -181.3,-579.6 -94.1,-152.3 -227.3,-306.9 -404.4,-455.8 -265.6,-223.5 -630.2,-434.1 -1107.2,-605.1 -477.1,-170.9 -1066.5,-302.2 -1780.8,-367.8 l 9.2,-100.2 -4.8,100.5 c -156.3,-7.5 -307.2,-11.2 -452.7,-11.2 -572.8,0 -1062.5,56.5 -1474.7,151.9 -618.4,143 -1062,373.8 -1352.6,631 -145.4,128.6 -252.6,263.7 -325.5,397.7 -72.9,134.1 -111.5,267.1 -120.3,392.9 l -100.5,-7.1"
         style="fill:#4d4d4d;fill-opacity:1;fill-rule:nonzero;stroke:none"
         id="path278" /><path
         d="m 25314.4,19486.5 c 29,-415.1 389.2,-728.1 804.3,-699 415.2,29.1 728.2,389.2 699.1,804.4 -29.1,415.1 -389.2,728.1 -804.4,699 -415.1,-29.1 -728.1,-389.2 -699,-804.4"
         style="fill:#4d4d4d;fill-opacity:1;fill-rule:nonzero;stroke:none"
         id="path280" /><path
         d="m 22200.4,19268.4 c 29.1,-415.2 389.2,-728.1 804.4,-699.1 415.1,29.1 728.1,389.3 699,804.4 -29.1,415.2 -389.2,728.1 -804.4,699.1 -415.1,-29.1 -728.1,-389.3 -699,-804.4"
         style="fill:#4d4d4d;fill-opacity:1;fill-rule:nonzero;stroke:none"
         id="path282" /><path
         d="m 24750,18152 c 4.9,-70.1 65.7,-122.9 135.7,-117.9 70.1,4.9 122.9,65.6 118,135.7 -4.9,70 -65.7,122.8 -135.7,117.9 -70.1,-4.9 -122.9,-65.7 -118,-135.7"
         style="fill:#4d4d4d;fill-opacity:1;fill-rule:nonzero;stroke:none"
         id="path284" /><path
         d="m 24215.1,18114.5 c 4.8,-67.3 63.1,-118 130.4,-113.3 67.2,4.8 117.9,63.1 113.2,130.4 -4.7,67.2 -63,118 -130.3,113.2 -67.3,-4.7 -118,-63 -113.3,-130.3"
         style="fill:#4d4d4d;fill-opacity:1;fill-rule:nonzero;stroke:none"
         id="path286" /><path
         d="m 25231.4,17672.1 33.4,-28.4 -33.1,28.8 -0.3,-0.4 33.4,-28.4 -33.1,28.8 c -0.3,-0.5 -32.3,-36.6 -82.6,-70.1 -25.2,-16.8 -54.7,-32.9 -86.7,-44.5 -32,-11.7 -66.2,-18.8 -102.3,-18.8 -32.4,0 -66.7,5.6 -104.5,20.4 -37.7,14.8 -79.2,39.1 -124.3,78.3 -39.9,34.7 -99.5,32.8 -137,-4.5 l 31.2,-31.4 -30.8,31.8 -0.4,-0.4 31.2,-31.4 -30.8,31.8 c -0.4,-0.4 -34.9,-33.4 -89.8,-64.5 -27.5,-15.6 -59.9,-30.8 -95.5,-41.9 -35.7,-11 -74.4,-18 -115.3,-18 -35.8,0 -73.5,5.3 -113.7,18.5 -40.1,13.3 -83,34.6 -128.7,68.1 -44.8,32.9 -107.8,23.2 -140.7,-21.7 -32.9,-44.8 -23.2,-107.8 21.6,-140.7 61.4,-45.1 123.6,-76.8 184.7,-96.9 61.1,-20.2 120.8,-28.8 176.8,-28.7 66.1,0 126.7,11.7 180,28.7 80,25.6 143.7,63 188.4,94.2 44.7,31.2 70.5,56.4 73.6,59.5 l -70.9,71.5 -66,-76 c 60.2,-52.4 121.6,-89.8 182.8,-113.8 61.1,-24 121.6,-34.4 178.1,-34.3 65.1,0 124.5,13.4 176,32.7 77.4,29.1 137.7,70.8 179.8,105.4 42.1,34.6 66,62.4 68.9,65.8 36,42.4 30.9,105.9 -11.5,142 -42.3,36 -105.9,30.9 -141.9,-11.5"
         style="fill:#4d4d4d;fill-opacity:1;fill-rule:nonzero;stroke:none"
         id="path288" /><path
         d="m 27175.8,16324.5 c 349.4,174.9 623.7,374.5 829.6,585.2 109.7,112.2 200,227.7 271.5,344.2 114.1,185.1 183.2,376.9 202.8,567.5 43.8,63.6 81.2,129.2 111.8,197 41.8,92.3 69.2,185.1 85.2,277.1 40.1,-138.7 66.7,-292.7 63.5,-453.4 -1.9,-84.8 -12.2,-171.3 -33.1,-258.4 -41,-169.8 -122,-342.3 -265,-511.8 -107.2,-127.1 -249.7,-252.5 -437.1,-371.7 -203.7,-129.6 -460.4,-251.7 -781.2,-359.8 -15.9,-5.4 -31.8,-10.7 -48,-15.9"
         style="fill:#906e52;fill-opacity:1;fill-rule:nonzero;stroke:none"
         id="path290" /><path
         d="m 27223.8,16340.4 c 320.8,108.1 577.5,230.2 781.2,359.8 187.4,119.2 329.9,244.6 437.1,371.7 143,169.5 224,342 265,511.8 20.9,87.1 31.2,173.6 33.1,258.4 -3.1,-152.1 -33,-310.2 -103.6,-466.6 -160,-354 -503.6,-651.2 -1021.7,-883.4 -120.8,-54.2 -251.2,-104.7 -391.1,-151.7"
         style="fill:#363636;fill-opacity:1;fill-rule:nonzero;stroke:none"
         id="path292" /><path
         d="m 27172.7,16323.5 c 181.8,90.6 347.8,190.3 496.9,298.7 263.4,191.2 468.5,406.5 607.3,631.7 -71.5,-116.5 -161.8,-232 -271.5,-344.2 -205.9,-210.7 -480.2,-410.3 -829.6,-585.2 -1,-0.3 -2.1,-0.7 -3.1,-1"
         style="fill:#363636;fill-opacity:1;fill-rule:nonzero;stroke:none"
         id="path294" /><path
         d="m 24362.4,15916.1 c -157.5,0 -308.8,4.3 -453.9,12.5 -721.4,40.8 -1247.9,175.9 -1621,324.8 -317.4,126.9 -566.3,280.9 -752.4,445.6 -145.4,128.6 -252.6,263.7 -325.5,397.7 -8.6,15.9 -16.7,31.7 -24.4,47.5 213.5,-163.8 491.1,-295.5 830.8,-393.4 489.4,-141.3 1107.9,-212.2 1846.1,-212.2 304.2,0 628.8,12.1 973.1,36.2 1167.6,81.8 2087.8,270.2 2734.7,560.2 243.2,108.9 447.7,232.3 613.1,369 -22.6,-49 -49.2,-98.5 -79.9,-148.3 -35.6,-57.6 -76.8,-115.5 -123.8,-173.3 -113.6,-139.2 -257.2,-273.2 -428.1,-397.3 -434.8,-316 -1261,-720.7 -2730.5,-857.2 l -15.8,-1.1 c -152.7,-7.2 -300.1,-10.7 -442.5,-10.7"
         style="fill:#ab9c8f;fill-opacity:1;fill-rule:nonzero;stroke:none"
         id="path296" /><path
         d="m 24363.2,15916.1 c -159.5,0 -311,4.4 -454.7,12.5 145.1,-8.2 296.4,-12.5 453.9,-12.5 142.4,0 289.8,3.5 442.5,10.7 l -3.2,-0.2 c -152.6,-7.2 -298.6,-10.5 -438.5,-10.5 m -2075.7,337.3 c -116.8,46.6 -218.7,94.6 -306.7,141.4 -385.4,204.8 -661.7,467.9 -798,751.3 0.8,-0.6 1.6,-1.3 2.4,-1.9 7.7,-15.8 15.8,-31.6 24.4,-47.5 72.9,-134 180.1,-269.1 325.5,-397.7 186.1,-164.7 435,-318.7 752.4,-445.6 m 5691.8,929 c 47,57.8 88.2,115.7 123.8,173.3 30.7,49.8 57.3,99.3 79.9,148.3 0.4,0.4 0.9,0.8 1.3,1.1 -50.3,-109.2 -119.1,-217.4 -205,-322.7"
         style="fill:#363636;fill-opacity:1;fill-rule:nonzero;stroke:none"
         id="path298" /><path
         d="m 22204.9,16069.5 c -49.1,12.1 -97.1,24.9 -143.8,38.4 -552.7,159.3 -941.4,408.1 -1155.8,739.5 -199.5,308.7 -218.6,648.3 -179.4,927.8 30.5,-96.1 74.4,-191.8 134.4,-284.9 9.7,-14.9 19.6,-29.7 30.1,-44.3 46.3,-469.8 407.4,-916.3 995.8,-1229 100.5,-53.3 206.7,-102.6 318.7,-147.5"
         style="fill:#906e52;fill-opacity:1;fill-rule:nonzero;stroke:none"
         id="path300" /><path
         d="m 21041.9,23128.6 c 3.3,-5 6.9,-9.7 11.2,-13.9 63.2,-66 224,-45.3 372.8,51.5 158.5,102.9 243.6,253.1 190.3,335.5 -4.4,6.6 -9.6,12.8 -15.3,18.1 -27.9,25.4 -71.7,36.4 -123.7,33.4 -165.4,-111.5 -315.6,-230.9 -450.9,-357.6 -1.8,-24.9 3.1,-47.9 15.6,-67"
         style="fill:#ffffff;fill-opacity:1;fill-rule:nonzero;stroke:none"
         id="path302" /><path
         d="m 25530.5,20151.6 c 7,-133.7 121.1,-236.3 254.7,-229.3 133.7,7 236.4,121 229.4,254.7 -7.1,133.7 -121.1,236.3 -254.8,229.3 -133.6,-7 -236.3,-121 -229.3,-254.7"
         style="fill:#ffffff;fill-opacity:1;fill-rule:nonzero;stroke:none"
         id="path304" /><path
         d="m 26334.6,18983.6 c 5.4,-101.8 92.3,-180 194.1,-174.7 101.8,5.4 180.1,92.3 174.7,194.1 -5.4,101.8 -92.2,180 -194.1,174.7 -101.8,-5.4 -180,-92.3 -174.7,-194.1"
         style="fill:#ffffff;fill-opacity:1;fill-rule:nonzero;stroke:none"
         id="path306" /><path
         d="m 22463.5,19990.5 c 7,-133.7 121.1,-236.4 254.7,-229.3 133.7,7 236.4,121 229.3,254.7 -7,133.7 -121,236.3 -254.7,229.3 -133.7,-7 -236.3,-121.1 -229.3,-254.7"
         style="fill:#ffffff;fill-opacity:1;fill-rule:nonzero;stroke:none"
         id="path308" /><path
         d="m 23267.6,18822.5 c 5.3,-101.8 92.2,-180.1 194.1,-174.7 101.8,5.3 180,92.2 174.7,194.1 -5.4,101.8 -92.3,180 -194.1,174.7 -101.8,-5.4 -180,-92.3 -174.7,-194.1"
         style="fill:#ffffff;fill-opacity:1;fill-rule:nonzero;stroke:none"
         id="path310" /></g></g></svg>
