<?xml version="1.0" encoding="UTF-8" standalone="no"?>
<svg
   viewBox="0 0 1600 1600"
   height="1600"
   width="1600"
   xml:space="preserve"
   id="svg2"
   version="1.1"
   sodipodi:docname="geekmonkey.svg"
   inkscape:version="1.1.2 (b8e25be833, 2022-02-05)"
   xmlns:inkscape="http://www.inkscape.org/namespaces/inkscape"
   xmlns:sodipodi="http://sodipodi.sourceforge.net/DTD/sodipodi-0.dtd"
   xmlns="http://www.w3.org/2000/svg"
   xmlns:svg="http://www.w3.org/2000/svg"
   xmlns:rdf="http://www.w3.org/1999/02/22-rdf-syntax-ns#"
   xmlns:cc="http://creativecommons.org/ns#"
   xmlns:dc="http://purl.org/dc/elements/1.1/"><sodipodi:namedview
     id="namedview77"
     pagecolor="#505050"
     bordercolor="#eeeeee"
     borderopacity="1"
     inkscape:pageshadow="0"
     inkscape:pageopacity="0"
     inkscape:pagecheckerboard="0"
     showgrid="false"
     inkscape:lockguides="true"
     inkscape:zoom="0.2525"
     inkscape:cx="532.67327"
     inkscape:cy="847.52475"
     inkscape:window-width="1920"
     inkscape:window-height="1017"
     inkscape:window-x="-8"
     inkscape:window-y="-8"
     inkscape:window-maximized="1"
     inkscape:current-layer="g10" /><metadata
     id="metadata8"><rdf:RDF><cc:Work
         rdf:about=""><dc:format>image/svg+xml</dc:format><dc:type
           rdf:resource="http://purl.org/dc/dcmitype/StillImage" /></cc:Work></rdf:RDF></metadata><defs
     id="defs6" /><g
     transform="matrix(1.3333333,0,0,-1.3333333,0,1600)"
     id="g10"><path
       id="path16"
       style="fill:#2c2a2a;fill-opacity:1;fill-rule:evenodd;stroke:none;stroke-width:0.198844"
       d="m 510.07187,236.03809 -84.87663,-71.96568 c 0,0 -80.15806,153.15177 -179.31369,254.30379 111.19167,-12.06387 195.72828,-138.77135 264.19032,-182.33811" /><path
       id="path18"
       style="fill:#fbcbaa;fill-opacity:1;fill-rule:evenodd;stroke:none;stroke-width:0.198844"
       d="m 313.57009,739.04224 c 0,0 -61.22213,15.34879 -85.51094,-5.93549 -24.29081,-21.28428 -36.93332,-91.4723 -9.31784,-127.17874 27.61548,-35.70446 116.45905,-60.47448 116.45905,-60.47448 0,0 42.92051,-71.40295 65.54699,-82.34733 22.62449,-10.94637 22.95855,-72.84457 47.58142,-103.47652 24.62088,-30.62995 66.21312,-69.72073 141.412,-73.48087 75.19889,-3.75816 144.07453,21.27633 195.31468,99.03831 51.24016,77.76199 105.81095,135.14046 120.45185,152.03227 14.6389,16.89579 117.3698,103.21404 81.85221,154.77036 -35.51953,51.5583 -93.83059,41.87658 -93.83059,41.87658 0,0 41.25818,55.41787 -38.59764,144.15208 -79.8578,88.73621 -220.93376,93.99761 -290.14346,85.27831 -69.2097,-8.7193 -215.61269,-77.84353 -215.61269,-77.84353 0,0 -37.26539,-70.83028 -35.60504,-146.41095" /><path
       id="path20"
       style="fill:#b98579;fill-opacity:1;fill-rule:evenodd;stroke:none;stroke-width:0.198844"
       d="m 254.37617,686.89139 c 0,0 -13.22512,-21.15702 -8.89828,-48.56173 4.32487,-27.40669 19.6299,-44.80158 35.93313,-41.59621 16.30523,3.20537 33.00018,32.72578 32.97234,38.69707 -0.0298,5.9693 -2.36028,27.6632 -6.68514,34.76989 -4.32486,7.10868 -24.42601,29.58403 -24.42601,29.58403 0,0 -23.82154,3.70447 -28.89604,-12.89305" /><path
       id="path22"
       style="fill:#ffffff;fill-opacity:1;fill-rule:evenodd;stroke:none;stroke-width:0.198844"
       d="m 313.57009,739.04224 c 0,0 -61.22213,15.34879 -85.51094,-5.93549 -24.29081,-21.28428 -36.93332,-91.4723 -9.31784,-127.17874 8.23811,-10.6501 21.92456,-20.32585 37.07449,-28.66538 -0.0756,1.84925 -0.87292,4.1976 -2.5631,7.0709 -19.18249,32.60846 -21.31013,79.25133 -21.31013,79.25133 2.38414,48.65319 55.13154,35.46783 55.13154,35.46783 0,0 23.95674,-23.95873 28.61566,-28.08077 4.65693,-4.12204 23.95674,-0.66613 23.28863,14.6568 -0.3957,9.16274 -8.4131,40.429 -25.17765,69.78436 -0.26049,-5.41452 -0.34997,-10.87876 -0.23066,-16.37084" /><path
       id="path24"
       style="fill:#ffffff;fill-opacity:1;fill-rule:evenodd;stroke:none;stroke-width:0.198844"
       d="m 391.24061,469.96632 c 3.41018,-3.08606 6.6235,-5.46623 9.50674,-6.86012 19.79692,-9.57833 22.52904,-58.16789 39.39699,-90.68487 10.94637,-2.52532 20.92835,-2.75002 20.92835,-2.75002 0,0 36.2135,-17.5639 70.91578,-21.05958 -21.64219,25.76622 -36.44415,52.33777 -46.19547,78.55338 -6.89194,2.82757 -12.5073,5.72274 -16.03877,8.59007 -12.31243,9.99391 -22.00211,26.3727 -22.00211,26.3727 0,0 12.45759,0.24856 27.31125,2.23302 -9.68968,46.55936 -5.47219,90.0605 1.90492,123.49615 -13.41999,-1.34021 -26.75647,-5.71478 -33.34616,-11.55086 -12.46554,-11.04181 -48.73472,37.88379 -36.42428,62.8268 12.31045,24.945 47.91548,51.9043 63.88665,75.7477 15.97116,23.84539 52.23835,59.43651 44.58483,71.62765 -7.65351,12.19113 -18.96575,27.81233 -18.96575,27.81233 0,0 27.94953,28.50232 91.83618,23.39401 0,0 -47.16584,44.63654 -106.76739,43.27048 -59.59956,-1.37003 -90.87576,-42.4234 -111.50584,-77.78187 -20.63008,-35.36245 -25.95314,-135.69921 -11.97838,-145.40479 13.97477,-9.70559 79.19168,3.784 79.19168,3.784 0,0 -52.57241,-89.04043 -53.23853,-132.2771 -0.25254,-16.38079 2.74603,-37.9176 6.99931,-59.33908" /><path
       id="path26"
       style="fill:#b98579;fill-opacity:1;fill-rule:evenodd;stroke:none;stroke-width:0.198844"
       d="m 520.5947,302.00265 c 19.18449,-8.52047 41.97004,-14.49573 69.14607,-15.85384 75.19889,-3.75816 144.07453,21.27633 195.31468,99.03831 51.24016,77.76199 105.81095,135.14046 120.45185,152.03227 6.67917,7.70919 31.69973,29.87634 53.55867,56.59702 -3.29087,0.17896 -6.95557,0.62039 -11.0617,1.37202 0,0 19.83471,35.99279 12.18318,59.82824 -7.65351,23.83743 -34.93891,37.90964 -38.9317,37.35287 -3.99279,-0.55477 -12.97657,-11.2844 -17.63548,-3.16957 -4.65694,8.11681 -23.62269,36.25923 0.66612,42.23847 7.18424,1.76773 16.93158,1.60269 27.2337,-0.20878 -21.11924,5.43242 -37.99117,2.63667 -37.99117,2.63667 0,0 41.25818,55.41787 -38.59764,144.15208 -60.06088,66.74001 -154.75047,86.25661 -227.44988,88.12371 43.15713,-24.9509 82.7828,-48.5239 109.1555,-66.69626 0,0 45.58105,-7.21407 14.29491,-35.96893 -31.28614,-28.75485 -45.59298,-41.99986 -45.59298,-41.99986 0,0 -3.66072,-10.87678 -1.33226,-18.92798 2.33046,-8.04921 36.60125,-6.67519 47.58142,-14.63493 10.97819,-7.95774 -11.31622,-121.79602 -11.31622,-121.79602 0,0 -53.90069,-32.43745 -60.556,-26.26334 -6.65531,6.1761 -27.2854,26.71471 -29.2798,32.09345 -1.99839,5.37873 -17.96955,89.00662 -17.96955,89.00662 l -11.97837,-0.33207 -59.89187,6.99335 -140.4138,-127.1847 -18.6317,-19.44497 53.55669,-21.58454 93.51044,5.50798 c 0,0 0.33207,-15.97911 5.98919,-21.12918 5.65712,-5.14807 32.60845,5.08246 43.25457,5.11825 10.6481,0.0358 12.97657,-32.97035 14.6409,-42.99806 1.66432,-10.0297 6.32125,25.4441 8.65171,35.36046 2.32846,9.91835 14.97097,9.89846 31.27619,3.78798 16.30324,-6.11247 40.26197,-3.11788 41.26017,3.17554 0.99621,6.29342 17.96557,-22.79549 7.98558,-57.45204 0,0 12.64251,12.29055 19.29584,34.40004 0,0 5.49008,-42.78133 -18.6317,-65.69613 -17.01708,-16.16802 -208.89971,-43.67413 -242.74299,-39.91995 -85.33199,9.46498 48.9256,-23.72012 68.88956,-22.77959 19.96594,0.94053 -6.6573,-13.22115 -6.6573,-13.22115 62.9302,2.94886 189.64563,15.66495 154.56157,-65.76572 0,0 1.33026,21.59249 -5.98919,34.10575 0,0 1.01808,-100.94125 -125.93,-84.54655 -11.0438,1.42572 -18.86832,-0.61442 -23.87721,-5.34692 z m 473.66868,358.14221 c 1.46946,10.8887 -0.14715,21.28229 -6.10452,30.59814 2.24098,-11.04182 4.64898,-21.41353 6.10452,-30.59814" /><path
       id="path28"
       style="fill:#2c2a2a;fill-opacity:1;fill-rule:evenodd;stroke:none;stroke-width:0.198844"
       d="m 451.44068,870.83417 c 62.18454,29.82265 129.01009,1.04791 154.99704,-20.09718 25.98893,-21.14111 45.47964,0.12527 72.39518,26.29117 26.91555,26.16591 96.52493,45.57509 145.71698,-38.40078 7.32343,-12.49935 13.65662,-24.52942 18.96377,-36.06039 -43.63635,1.21494 -87.27469,2.42988 -130.91303,3.6468 17.43863,14.20941 32.38774,23.5352 48.27538,26.48803 16.27142,3.02045 56.53737,-27.23568 56.53737,-27.23568 0,0 -1.50327,19.47082 -30.35555,43.63834 -28.8503,24.16752 -53.94245,13.28677 -72.08698,0.63829 -11.6642,-8.13074 -36.30696,-29.99366 -52.61019,-44.20306 -13.58702,-3.80389 -24.58111,-13.67054 -29.88429,-26.58348 -6.49027,2.99659 -13.57907,4.71858 -20.75138,5.13814 -7.17429,-0.0199 -14.26309,-1.34817 -20.75336,-3.98285 -7.01125,17.46448 -23.97066,30.1567 -43.71788,30.7075 -52.23238,1.45554 -104.46278,2.91108 -156.69517,4.36662 15.45218,23.66246 36.19163,43.80736 60.88211,55.64853 z m 437.2265,-404.0931 c 13.20524,-2.62474 31.21854,-7.35127 44.36015,-15.22749 C 824.72487,424.15064 785.89657,359.42885 726.11407,313.13793 630.82993,239.3568 531.88508,246.68421 440.55794,325.77646 c -56.6348,49.05287 -96.3738,112.74067 -201.18456,145.06478 16.14217,8.773 39.63561,12.38799 52.53662,13.7799 -14.12391,5.76648 -29.89622,9.73541 -48.16205,11.20884 26.86186,21.72373 32.06362,23.22301 44.6783,38.71098 -7.65948,0.71982 -15.24936,2.23103 -22.66029,4.45809 -5.26738,1.58479 -10.38364,3.68856 -15.26924,6.26359 -32.53488,17.15031 -51.7134,52.93232 -59.07859,87.53518 -3.23519,15.1897 -4.33878,31.21654 -3.06816,46.57328 2.42192,29.28378 13.80575,58.10226 39.82848,73.39139 12.35021,7.25583 26.11421,11.05971 40.62983,10.93643 9.19654,-0.0795 18.36724,-1.74585 27.15615,-4.65693 -10.99807,72.0313 6.17809,141.28474 57.54749,200.89223 158.78701,184.25298 343.24281,132.84378 507.40855,-12.551 41.97401,-37.17592 69.53382,-84.68377 75.18497,-140.21498 2.408,-23.64853 -0.24458,-42.49299 -5.35885,-60.33727 14.24519,-1.07773 28.23587,-4.13596 41.23232,-10.6143 19.40719,-9.67775 32.92659,-25.81594 37.44039,-47.09028 10.4194,-49.0986 -10.92253,-93.15451 -43.4077,-127.63409 -14.10601,-14.97296 -31.5506,-27.25955 -50.20616,-36.03056 -1.68024,-0.78941 -3.37638,-1.55099 -5.08246,-2.28472 13.74411,-22.00807 20.6957,-29.73118 37.63523,-49.12644 -21.53084,2.64264 -41.2363,-0.344 -59.69103,-7.30951 z M 299.03856,720.77841 c -17.23382,9.65587 -35.75417,12.47548 -52.94624,2.3742 -1.24675,-0.73175 -2.44379,-1.54105 -3.59311,-2.41795 -10.33592,-7.90405 -15.88168,-20.89454 -18.47859,-33.42968 -3.22127,-15.54166 -2.50941,-32.63629 0.81924,-48.28135 5.677,-26.665 21.62828,-58.79424 49.91983,-67.29881 8.75908,-2.63468 17.81643,-3.89536 26.87776,-3.4062 l 4.22743,0.22867 c 10.14702,22.80146 15.95923,46.53749 8.51848,66.88323 -17.43664,27.43452 -59.02092,4.37854 -42.99408,-36.98502 -30.22034,21.89274 -20.14689,72.62386 22.97048,73.84277 -3.92718,12.86522 -44.61666,32.79934 -62.41719,-8.70142 -8.24209,53.05162 60.73496,71.88018 87.44769,13.47368 -1.09563,3.43603 -2.34835,6.94761 -3.76611,10.54073 -3.89536,9.88852 -7.30951,19.76511 -10.23053,29.61784 z m 595.54821,-165.65111 0.61443,0.2585 c 16.56173,6.97346 32.48915,17.69912 44.77374,30.73534 24.50755,26.01478 42.84694,59.02689 34.87727,96.58656 -5.0069,23.5869 -32.92661,28.82644 -52.87465,29.27583 l -3.71839,0.0815 c -2.05803,-5.11626 -3.94705,-9.75331 -6.32921,-16.0865 32.76753,10.36575 64.64424,-25.8219 47.2076,-61.23803 -3.99279,34.41396 -36.53364,47.87372 -62.07518,29.07698 21.33399,4.34276 51.48076,-23.63661 32.95445,-63.5327 0,16.49015 -18.69135,57.24326 -47.999,28.44863 -0.0895,-26.93543 3.02045,-49.13837 12.56894,-73.60614 z M 594.49514,750.08207 c 12.22494,6.26161 17.47641,6.99335 34.4577,-0.95843 -0.30821,-31.72558 0.25254,-64.74366 16.10638,-93.42295 14.06226,-23.04604 30.49076,-36.05045 57.88553,-39.02913 32.88683,-3.58119 74.63218,-4.97111 107.13325,-5.52389 -15.61125,-5.45032 -31.22052,-10.89865 -46.83177,-16.34897 20.36959,-25.80401 36.17969,-50.56607 34.56309,-85.14507 C 665.6217,470.23078 523.06236,431.0386 420.03126,470.74181 c 2.69235,76.34821 35.07611,128.66013 35.07611,128.66013 0,0 -12.6445,9.01162 -24.32461,20.68178 12.95271,-0.14515 25.92133,-0.38178 38.84023,-0.32411 16.9455,0.0716 33.98843,1.09563 50.88025,1.9944 3.38432,0.17896 6.63145,0.54683 9.74137,1.08768 19.34953,5.75654 32.49313,15.23146 32.49313,15.23146 30.46889,26.64115 32.13123,74.08337 31.7574,112.00892 z m -168.1645,-310.4713 c 80.70687,-40.13471 256.65413,2.04014 368.81019,45.7103 13.73616,5.34891 -17.20797,-79.08033 -58.95332,-123.80436 C 691.4774,313.61317 626.74766,278.53904 537.11667,309.78343 454.23046,338.67548 426.33064,439.61077 426.33064,439.61077" /><path
       id="path30"
       style="fill:#ffffff;fill-opacity:1;fill-rule:evenodd;stroke:none;stroke-width:0.198844"
       d="m 681.31845,654.03438 c -11.93462,50.46863 43.21878,67.58713 76.33628,82.59787 31.87074,14.44802 37.7446,39.34331 -0.0239,40.3952 l -81.43464,2.26881 c -20.91443,0.58261 -19.268,-20.0256 -19.48474,-34.05207 -0.4295,-27.67712 0.51501,-71.65747 24.60696,-91.20981" /><path
       id="path32"
       style="fill:#201d1d;fill-opacity:1;fill-rule:evenodd;stroke:none;stroke-width:0.198844"
       d="m 623.89027,597.63422 c 0,0 9.31784,12.71608 23.62468,14.97893 14.30683,2.26483 20.63008,-12.21898 19.63188,-24.50357 -11.1651,11.01398 -28.96364,11.58069 -43.25656,9.52464" /><path
       id="path34"
       style="fill:#201d1d;fill-opacity:1;fill-rule:evenodd;stroke:none;stroke-width:0.198844"
       d="m 600.3173,598.2904 c 0,0 -9.31784,13.23706 -23.62468,16.29727 -14.30684,3.06021 -20.63008,-11.07164 -19.63188,-23.40992 11.1651,10.3896 28.96364,9.96607 43.25656,7.11265" /><path
       id="path36"
       style="fill:#ffffff;fill-opacity:1;fill-rule:evenodd;stroke:none;stroke-width:0.198844"
       d="m 384.34867,662.30828 c -11.93463,50.46864 43.21878,67.58514 76.33628,82.59788 31.87074,14.44802 37.7446,39.34132 -0.0239,40.39519 l -81.43463,2.26682 c -20.91443,0.58262 -19.26602,-20.0236 -19.48276,-34.05206 -0.43149,-27.67712 0.51501,-71.65349 24.60498,-91.20783" /><path
       id="path38"
       style="fill:#2c2a2a;fill-opacity:1;fill-rule:evenodd;stroke:none;stroke-width:0.198844"
       d="m 930.74659,746.16484 c 41.9243,85.92852 -56.257,201.89638 -17.65935,261.70076 -31.39352,-5.5219 -43.82725,-18.90008 -51.9043,-44.77768 0,0 -57.23331,112.65518 -204.96657,138.39748 -147.73326,25.7444 -226.25682,34.3623 -259.53141,91.9893 0,0 -27.94953,-72.2858 -17.30342,-124.6037 0,0 -26.61728,23.5372 -36.59925,55.3801 0,0 -47.22748,-74.2544 -23.8275,-150.04578 -14.22332,-63.10521 -32.51301,-134.97345 -22.99036,-215.16333 0,0 36.01465,65.05386 97.6464,128.22466 61.63175,63.16877 282.94928,50.03717 304.49604,45.8296 21.54874,-4.20953 165.73462,-94.5842 165.73462,-94.5842 24.08798,-13.12173 42.81711,-79.22349 66.9051,-92.34721" /><path
       id="path40"
       style="fill:#2c2a2a;fill-opacity:1;fill-rule:evenodd;stroke:none;stroke-width:0.198844"
       d="m 318.95479,974.20532 c 0,0 -36.08624,-29.773 -47.39848,-71.3811 0,0 44.58484,26.70676 84.51473,31.5824 39.92592,4.8777 -1.33225,47.9513 -37.11625,39.7987" /><path
       id="path42"
       style="fill:#3f3e40;fill-opacity:1;fill-rule:evenodd;stroke:none;stroke-width:0.198844"
       d="m 402.96048,1145.7342 c 0,0 -23.04603,-70.8422 4.78221,-132.5793 0,0 -47.37065,26.7704 -63.34181,65.368 0,0 -12.6445,-74.5328 45.25096,-127.77128 l -12.6445,59.22768 c 0,0 51.90629,-70.53988 176.34893,-78.5255 0,0 -101.81617,48.57962 -129.7657,144.4066 0,0 72.942,-100.17168 172.89301,-82.02918 -116.37554,56.25498 -142.18551,80.53388 -193.5231,151.90298" /><path
       id="path44"
       style="fill:#2c2a2a;fill-opacity:1;fill-rule:evenodd;stroke:none;stroke-width:0.198844"
       d="m 680.43161,236.03809 84.87663,-71.96568 c 0,0 80.15806,153.15177 179.31369,254.30379 C 833.43225,406.31233 748.89366,279.60485 680.43161,236.03809" /><path
       id="path46"
       style="fill:#2c2a2a;fill-opacity:1;fill-rule:evenodd;stroke:none;stroke-width:0.198844"
       d="m 704.30882,69.856065 c -18.35332,9.77518 -38.3471,20.78916 -58.87577,27.526 -12.74392,-10.28025 -28.66737,-16.57366 -46.21536,-17.08668 -17.56391,-0.51501 -34.15348,4.8339 -48.0149,14.35257 -19.73131,-7.91599 -38.44851,-20.07928 -55.66643,-30.90635 -17.81842,-11.20686 -39.57197,-16.71683 -60.49635,-11.21481 -19.08307,5.01485 -36.56545,19.78301 -39.03509,41.26215 -1.69018,14.680675 4.49586,27.983345 14.93717,37.122225 13.02032,11.39775 5.55372,47.71266 3.56528,63.11513 -2.93693,22.73982 -8.6716,49.78859 6.60958,68.76429 17.40681,21.61833 46.70054,15.08829 69.35286,6.32722 21.32604,-8.24806 42.7177,-17.10856 63.37562,-27.17604 l 0.75361,-0.36786 c 10.42739,5.77046 22.30237,9.18462 35.03038,9.55844 12.70614,0.37184 24.90523,-2.32647 35.92915,-7.45268 l 0.66017,0.38178 c 19.46286,11.24464 39.78871,21.32405 60.12053,30.795 21.59448,10.05754 50.06299,18.27974 69.83606,-2.25092 17.35711,-18.01925 14.67271,-45.31459 14.29491,-68.15185 -0.25453,-15.46808 -3.62891,-52.10114 10.62623,-62.70153 11.43155,-8.49661 19.08705,-21.39165 19.04927,-36.12402 -0.0557,-21.554705 -15.82402,-37.295215 -34.28272,-43.411655 -20.24035,-6.70702 -42.54072,-2.48754 -61.5542,7.63959" /><path
       id="path48"
       style="fill:#d6681c;fill-opacity:1;fill-rule:evenodd;stroke:none;stroke-width:0.198844"
       d="m 649.1912,227.26509 c 11.69005,6.39284 27.3888,14.45796 47.74845,23.94083 54.70004,25.47393 49.40681,-12.73994 48.86596,-45.50946 -0.54086,-32.77151 -2.79575,-66.83749 21.42545,-84.8468 24.21922,-18.00534 -8.42105,-51.407195 -52.28408,-28.046975 -20.15485,10.733605 -36.5913,19.071145 -51.51257,25.074255 3.78202,6.13036 6.80246,12.82544 8.94003,19.93412 17.35313,-5.03473 48.55974,-8.64574 48.55974,-8.64574 -19.00951,8.10886 -34.79375,23.52525 -44.90299,35.36244 -0.0199,1.18512 -0.0616,2.37619 -0.12925,3.57323 -0.36587,6.51414 -1.41776,12.83738 -3.07811,18.89418 l 39.96569,28.96364 c -17.74088,-1.57684 -35.07412,-7.02914 -46.79002,-11.47331 -4.4044,8.52843 -10.10725,16.21773 -16.8083,22.77959" /><path
       id="path50"
       style="fill:#f5ab1a;fill-opacity:1;fill-rule:evenodd;stroke:none;stroke-width:0.198844"
       d="m 532.82959,223.8569 c -12.36811,5.68694 -28.91791,12.80755 -50.27377,21.06754 -57.3745,22.19299 -47.81606,-15.58541 -43.60653,-48.21574 4.21351,-32.63231 10.27826,-66.4557 -11.84515,-85.82114 -22.12141,-19.365435 14.15572,-50.745035 55.25482,-24.897285 18.88423,11.87498 34.33442,21.147085 48.53388,28.003235 -4.45609,5.88976 -8.21823,12.386 -11.14322,19.34754 -16.73274,-6.03294 -47.43229,-11.45939 -47.43229,-11.45939 18.03715,9.19455 32.04175,25.48386 40.79288,37.87384 -0.11334,1.18313 -0.20481,2.37222 -0.27043,3.56727 -0.36786,6.51612 -0.0258,12.87914 0.94849,19.01348 l -43.07959,26.53177 c 17.85819,-0.53489 35.74622,-4.95718 47.92343,-8.69943 3.43404,8.7571 8.25402,16.75461 14.19748,23.68831" /><path
       id="path52"
       style="fill:#d6681c;fill-opacity:1;fill-rule:evenodd;stroke:none;stroke-width:0.198844"
       d="m 450.60951,76.217085 c 9.47095,-0.1193 20.42726,2.65259 31.74945,9.77319 18.88423,11.87498 34.33442,21.147085 48.53388,28.003235 -4.45609,5.88976 -8.21823,12.386 -11.14322,19.34754 -16.73274,-6.03294 -47.43229,-11.45939 -47.43229,-11.45939 l 18.13856,-6.09259 c 0,0 -10.77337,-30.474865 -39.84638,-39.571985 z m 21.70782,45.664575 c 1.4973,0.76356 2.96675,1.57683 4.40639,2.42987 z m 40.79288,37.87384 c -0.11334,1.18313 -0.20481,2.37222 -0.27043,3.56727 -0.36786,6.51612 -0.0258,12.87914 0.94849,19.01348 l -1.64643,1.0141 -33.13142,-21.88081 34.09979,-1.71404" /><path
       id="path54"
       style="fill:#fae194;fill-opacity:1;fill-rule:evenodd;stroke:none;stroke-width:0.198844"
       d="m 440.21195,245.82918 c -7.90405,-9.74138 -3.69254,-30.28794 -1.26266,-49.12048 4.21351,-32.63231 10.27826,-66.4557 -11.84515,-85.82114 -16.02684,-14.028455 -1.39787,-34.358285 23.50537,-34.670475 -26.62523,19.26403 18.31355,42.489035 8.99969,87.728065 -5.8321,28.33132 -21.43739,53.92455 -19.39725,81.88403" /><path
       id="path56"
       style="fill:#f5ab1a;fill-opacity:1;fill-rule:evenodd;stroke:none;stroke-width:0.198844"
       d="m 591.0432,225.93283 c 23.17131,-1.06382 32.00795,-8.66165 35.88342,-24.87938 8.35941,-34.98862 -20.46504,-68.987 -20.46504,-68.987 25.8219,9.00765 39.27172,32.90076 42.54867,50.95979 1.56491,-4.96315 2.54919,-10.2027 2.85342,-15.62915 1.86714,-33.25868 -22.33617,-60.97159 -54.05977,-61.90218 -31.72359,-0.9286 -58.95331,25.27707 -60.82046,58.53574 -1.86715,33.25868 30.89044,62.96401 54.05976,61.90218" /><path
       id="path58"
       style="fill:#d6681c;fill-opacity:1;fill-rule:evenodd;stroke:none;stroke-width:0.198844"
       d="m 627.80352,196.50787 c 5.03076,-33.33026 -21.34194,-64.44142 -21.34194,-64.44142 25.8219,9.00765 39.27172,32.90076 42.54867,50.95979 1.56491,-4.96315 2.54919,-10.2027 2.85342,-15.62915 1.86714,-33.25868 -22.33617,-60.97159 -54.05977,-61.90218 -5.37873,-0.15908 -10.62623,0.46728 -15.64307,1.7717 25.90145,15.828 20.5764,73.26612 20.5764,73.26612 2.99459,6.53203 14.19946,12.042 25.06629,15.97514" /><path
       id="path60"
       style="fill:#fae194;fill-opacity:1;fill-rule:evenodd;stroke:none;stroke-width:0.198844"
       d="m 568.60563,112.72687 c -17.73889,9.91238 -30.37146,29.02528 -31.62219,51.30378 -0.81128,14.45001 4.91543,28.22792 13.55123,39.10669 4.96912,-1.74784 10.9583,-5.38868 18.18629,-11.62046 0,0 -19.72932,-44.66636 -0.11533,-78.79001" /><path
       id="path62"
       style="fill:#2c2a2a;fill-opacity:1;fill-rule:evenodd;stroke:none;stroke-width:0.198844"
       d="m 597.93713,54.946725 c 12.31243,0 22.29242,-9.98197 22.29242,-22.294404 0,-12.312431 -9.97999,-22.292419 -22.29242,-22.292419 -12.31243,0 -22.29441,9.979988 -22.29441,22.292419 0,12.312434 9.98198,22.294404 22.29441,22.294404" /><path
       id="path64"
       style="fill:#3f3e40;fill-opacity:1;fill-rule:evenodd;stroke:none;stroke-width:0.198844"
       d="m 347.89059,644.88357 c 0,0 -9.96805,-99.08803 -54.06374,-137.41126 l 44.30248,3.37836 -31.16087,-34.91704 c 0,0 71.70918,-54.81338 93.4846,-97.24076 0,0 -11.63835,52.56247 -48.05666,101.74657 0,0 23.65252,39.79667 24.40415,81.47043 0,0 -15.19369,-13.51941 -24.77797,-23.27669 7.54414,38.1741 9.13688,68.99892 -4.13199,106.25039" /></g></svg>
