<?xml version="1.0" encoding="UTF-8" standalone="no"?>
<svg
   xmlns:dc="http://purl.org/dc/elements/1.1/"
   xmlns:cc="http://creativecommons.org/ns#"
   xmlns:rdf="http://www.w3.org/1999/02/22-rdf-syntax-ns#"
   xmlns:svg="http://www.w3.org/2000/svg"
   xmlns="http://www.w3.org/2000/svg"
   viewBox="0 0 1600 1600"
   height="1600"
   width="1600"
   xml:space="preserve"
   id="svg2"
   version="1.1"><metadata
     id="metadata8"><rdf:RDF><cc:Work
         rdf:about=""><dc:format>image/svg+xml</dc:format><dc:type
           rdf:resource="http://purl.org/dc/dcmitype/StillImage" /></cc:Work></rdf:RDF></metadata><defs
     id="defs6" /><g
     transform="matrix(1.3333333,0,0,-1.3333333,0,1600)"
     id="g10"><g
       transform="scale(0.1)"
       id="g12"><path
         id="path14"
         style="fill:#fef8e3;fill-opacity:1;fill-rule:evenodd;stroke:none"
         d="M 1.48438,11998.5 H 11998.5 V 1.5 H 1.48438 v 11997" /><path
         id="path16"
         style="fill:#2c2a2a;fill-opacity:1;fill-rule:evenodd;stroke:none"
         d="m 5547.54,4847.46 -426.85,-361.92 c 0,0 -403.12,770.21 -901.78,1278.91 559.19,-60.67 984.33,-697.89 1328.63,-916.99" /><path
         id="path18"
         style="fill:#fbcbaa;fill-opacity:1;fill-rule:evenodd;stroke:none"
         d="m 4559.32,7377.1 c 0,0 -307.89,77.19 -430.04,-29.85 -122.16,-107.04 -185.74,-460.02 -46.86,-639.59 138.88,-179.56 585.68,-304.13 585.68,-304.13 0,0 215.85,-359.09 329.64,-414.13 113.78,-55.05 115.46,-366.34 239.29,-520.39 123.82,-154.04 332.99,-350.63 711.17,-369.54 378.18,-18.9 724.56,107 982.25,498.07 257.69,391.07 532.13,679.63 605.76,764.58 73.62,84.97 590.26,519.07 411.64,778.35 -178.63,259.29 -471.88,210.6 -471.88,210.6 0,0 207.49,278.7 -194.11,724.95 -401.61,446.26 -1111.09,472.72 -1459.15,428.87 -348.06,-43.85 -1084.33,-391.48 -1084.33,-391.48 0,0 -187.41,-356.21 -179.06,-736.31" /><path
         id="path20"
         style="fill:#b98579;fill-opacity:1;fill-rule:evenodd;stroke:none"
         d="m 4261.63,7114.83 c 0,0 -66.51,-106.4 -44.75,-244.22 21.75,-137.83 98.72,-225.31 180.71,-209.19 82,16.12 165.96,164.58 165.82,194.61 -0.15,30.02 -11.87,139.12 -33.62,174.86 -21.75,35.75 -122.84,148.78 -122.84,148.78 0,0 -119.8,18.63 -145.32,-64.84" /><path
         id="path22"
         style="fill:#ffffff;fill-opacity:1;fill-rule:evenodd;stroke:none"
         d="m 4559.32,7377.1 c 0,0 -307.89,77.19 -430.04,-29.85 -122.16,-107.04 -185.74,-460.02 -46.86,-639.59 41.43,-53.56 110.26,-102.22 186.45,-144.16 -0.38,9.3 -4.39,21.11 -12.89,35.56 -96.47,163.99 -107.17,398.56 -107.17,398.56 11.99,244.68 277.26,178.37 277.26,178.37 0,0 120.48,-120.49 143.91,-141.22 23.42,-20.73 120.48,-3.35 117.12,73.71 -1.99,46.08 -42.31,203.32 -126.62,350.95 -1.31,-27.23 -1.76,-54.71 -1.16,-82.33" /><path
         id="path24"
         style="fill:#ffffff;fill-opacity:1;fill-rule:evenodd;stroke:none"
         d="m 4949.93,6023.9 c 17.15,-15.52 33.31,-27.49 47.81,-34.5 99.56,-48.17 113.3,-292.53 198.13,-456.06 55.05,-12.7 105.25,-13.83 105.25,-13.83 0,0 182.12,-88.33 356.64,-105.91 -108.84,129.58 -183.28,263.21 -232.32,395.05 -34.66,14.22 -62.9,28.78 -80.66,43.2 -61.92,50.26 -110.65,132.63 -110.65,132.63 0,0 62.65,1.25 137.35,11.23 -48.73,234.15 -27.52,452.92 9.58,621.07 -67.49,-6.74 -134.56,-28.74 -167.7,-58.09 -62.69,-55.53 -245.09,190.52 -183.18,315.96 61.91,125.45 240.97,261.03 321.29,380.94 80.32,119.92 262.71,298.91 224.22,360.22 -38.49,61.31 -95.38,139.87 -95.38,139.87 0,0 140.56,143.34 461.85,117.65 0,0 -237.2,224.48 -536.94,217.61 -299.73,-6.89 -457.02,-213.35 -560.77,-391.17 -103.75,-177.84 -130.52,-682.44 -60.24,-731.25 70.28,-48.81 398.26,19.03 398.26,19.03 0,0 -264.39,-447.79 -267.74,-665.23 -1.27,-82.38 13.81,-190.69 35.2,-298.42" /><path
         id="path26"
         style="fill:#b98579;fill-opacity:1;fill-rule:evenodd;stroke:none"
         d="m 5600.46,5179.2 c 96.48,-42.85 211.07,-72.9 347.74,-79.73 378.18,-18.9 724.56,107 982.25,498.07 257.69,391.07 532.13,679.63 605.76,764.58 33.59,38.77 159.42,150.25 269.35,284.63 -16.55,0.9 -34.98,3.12 -55.63,6.9 0,0 99.75,181.01 61.27,300.88 -38.49,119.88 -175.71,190.65 -195.79,187.85 -20.08,-2.79 -65.26,-56.75 -88.69,-15.94 -23.42,40.82 -118.8,182.35 3.35,212.42 36.13,8.89 85.15,8.06 136.96,-1.05 -106.21,27.32 -191.06,13.26 -191.06,13.26 0,0 207.49,278.7 -194.11,724.95 -302.05,335.64 -778.25,433.79 -1143.86,443.18 217.04,-125.48 416.32,-244.03 548.95,-335.42 0,0 229.23,-36.28 71.89,-180.89 -157.34,-144.61 -229.29,-211.22 -229.29,-211.22 0,0 -18.41,-54.7 -6.7,-95.19 11.72,-40.48 184.07,-33.57 239.29,-73.6 55.21,-40.02 -56.91,-612.52 -56.91,-612.52 0,0 -271.07,-163.13 -304.54,-132.08 -33.47,31.06 -137.22,134.35 -147.25,161.4 -10.05,27.05 -90.37,447.62 -90.37,447.62 l -60.24,-1.67 -301.2,35.17 -706.15,-639.62 -93.7,-97.79 269.34,-108.55 470.27,27.7 c 0,0 1.67,-80.36 30.12,-106.26 28.45,-25.89 163.99,25.56 217.53,25.74 53.55,0.18 65.26,-165.81 73.63,-216.24 8.37,-50.44 31.79,127.96 43.51,177.83 11.71,49.88 75.29,49.78 157.29,19.05 81.99,-30.74 202.48,-15.68 207.5,15.97 5.01,31.65 90.35,-114.64 40.16,-288.93 0,0 63.58,61.81 97.04,173 0,0 27.61,-215.15 -93.7,-330.39 C 6428.89,6091 5463.9,5952.67 5293.7,5971.55 c -429.14,47.6 246.05,-119.29 346.45,-114.56 100.41,4.73 -33.48,-66.49 -33.48,-66.49 316.48,14.83 953.74,78.78 777.3,-330.74 0,0 6.69,108.59 -30.12,171.52 0,0 5.12,-507.64 -633.31,-425.19 -55.54,7.17 -94.89,-3.09 -120.08,-26.89 z m 2382.11,1801.12 c 7.39,54.76 -0.74,107.03 -30.7,153.88 11.27,-55.53 23.38,-107.69 30.7,-153.88" /><path
         id="path28"
         style="fill:#2c2a2a;fill-opacity:1;fill-rule:evenodd;stroke:none"
         d="m 5252.68,8039.89 c 312.73,149.98 648.8,5.27 779.49,-101.07 130.7,-106.32 228.72,0.63 364.08,132.22 135.36,131.59 485.43,229.2 732.82,-193.12 36.83,-62.86 68.68,-123.36 95.37,-181.35 -219.45,6.11 -438.91,12.22 -658.37,18.34 87.7,71.46 162.88,118.36 242.78,133.21 81.83,15.19 284.33,-136.97 284.33,-136.97 0,0 -7.56,97.92 -152.66,219.46 -145.09,121.54 -271.28,66.82 -362.53,3.21 -58.66,-40.89 -182.59,-150.84 -264.58,-222.3 -68.33,-19.13 -123.62,-68.75 -150.29,-133.69 -32.64,15.07 -68.29,23.73 -104.36,25.84 -36.08,-0.1 -71.73,-6.78 -104.37,-20.03 -35.26,87.83 -120.55,151.66 -219.86,154.43 -262.68,7.32 -525.35,14.64 -788.03,21.96 77.71,119 182.01,220.31 306.18,279.86 z M 7451.52,6007.68 c 66.41,-13.2 157,-36.97 223.09,-76.58 -544.66,-137.61 -739.93,-463.1 -1040.58,-695.9 -479.19,-371.05 -976.79,-334.2 -1436.08,63.56 -284.82,246.69 -484.67,566.98 -1011.77,729.54 81.18,44.12 199.33,62.3 264.21,69.3 -71.03,29 -150.35,48.96 -242.21,56.37 135.09,109.25 161.25,116.79 224.69,194.68 -38.52,3.62 -76.69,11.22 -113.96,22.42 -26.49,7.97 -52.22,18.55 -76.79,31.5 -163.62,86.25 -260.07,266.2 -297.11,440.22 -16.27,76.39 -21.82,156.99 -15.43,234.22 12.18,147.27 69.43,292.2 200.3,369.09 62.11,36.49 131.33,55.62 204.33,55 46.25,-0.4 92.37,-8.78 136.57,-23.42 -55.31,362.25 31.07,710.53 289.41,1010.3 798.55,926.62 1726.19,668.08 2551.79,-63.12 211.09,-186.96 349.69,-425.88 378.11,-705.15 12.11,-118.93 -1.23,-213.7 -26.95,-303.44 71.64,-5.42 142,-20.8 207.36,-53.38 97.6,-48.67 165.59,-129.83 188.29,-236.82 52.4,-246.92 -54.93,-468.48 -218.3,-641.88 -70.94,-75.3 -158.67,-137.09 -252.49,-181.2 -8.45,-3.97 -16.98,-7.8 -25.56,-11.49 69.12,-110.68 104.08,-149.52 189.27,-247.06 -108.28,13.29 -207.38,-1.73 -300.19,-36.76 z M 4486.24,7285.25 c -86.67,48.56 -179.81,62.74 -266.27,11.94 -6.27,-3.68 -12.29,-7.75 -18.07,-12.16 -51.98,-39.75 -79.87,-105.08 -92.93,-168.12 -16.2,-78.16 -12.62,-164.13 4.12,-242.81 28.55,-134.1 108.77,-295.68 251.05,-338.45 44.05,-13.25 89.6,-19.59 135.17,-17.13 l 21.26,1.15 c 51.03,114.67 80.26,234.04 42.84,336.36 -87.69,137.97 -296.82,22.02 -216.22,-186 -151.98,110.1 -101.32,365.23 115.52,371.36 -19.75,64.7 -224.38,164.95 -313.9,-43.76 -41.45,266.8 305.44,361.49 439.78,67.76 -5.51,17.28 -11.81,34.94 -18.94,53.01 -19.59,49.73 -36.76,99.4 -51.45,148.95 z m 2995.05,-833.07 3.09,1.3 c 83.29,35.07 163.39,89.01 225.17,154.57 123.25,130.83 215.48,296.85 175.4,485.74 -25.18,118.62 -165.59,144.97 -265.91,147.23 l -18.7,0.41 c -10.35,-25.73 -19.85,-49.05 -31.83,-80.9 164.79,52.13 325.1,-129.86 237.41,-307.97 -20.08,173.07 -183.73,240.76 -312.18,146.23 107.29,21.84 258.9,-118.87 165.73,-319.51 0,82.93 -94,287.88 -241.39,143.07 -0.45,-135.46 15.19,-247.12 63.21,-370.17 z m -1509.18,980.44 c 61.48,31.49 87.89,35.17 173.29,-4.82 -1.55,-159.55 1.27,-325.6 81,-469.83 70.72,-115.9 153.34,-181.3 291.11,-196.28 165.39,-18.01 375.33,-25 538.78,-27.78 -78.51,-27.41 -157.01,-54.81 -235.52,-82.22 102.44,-129.77 181.95,-254.3 173.82,-428.2 -664.78,-198.26 -1381.72,-395.36 -1899.87,-195.69 13.54,383.96 176.4,647.04 176.4,647.04 0,0 -63.59,45.32 -122.33,104.01 65.14,-0.73 130.36,-1.92 195.33,-1.63 85.22,0.36 170.93,5.51 255.88,10.03 17.02,0.9 33.35,2.75 48.99,5.47 97.31,28.95 163.41,76.6 163.41,76.6 153.23,133.98 161.59,372.57 159.71,563.3 z M 5126.4,5871.24 c 405.88,-201.84 1290.73,10.26 1854.77,229.88 69.08,26.9 -86.54,-397.7 -296.48,-622.62 -224.85,-240.91 -550.38,-417.3 -1001.14,-260.17 -416.84,145.3 -557.15,652.91 -557.15,652.91" /><path
         id="path30"
         style="fill:#ffffff;fill-opacity:1;fill-rule:evenodd;stroke:none"
         d="m 6408.75,6949.59 c -60.02,253.81 217.35,339.9 383.9,415.39 160.28,72.66 189.82,197.86 -0.12,203.15 l -409.54,11.41 c -105.18,2.93 -96.9,-100.71 -97.99,-171.25 -2.16,-139.19 2.59,-360.37 123.75,-458.7" /><path
         id="path32"
         style="fill:#201d1d;fill-opacity:1;fill-rule:evenodd;stroke:none"
         d="m 6119.94,6665.95 c 0,0 46.86,63.95 118.81,75.33 71.95,11.39 103.75,-61.45 98.73,-123.23 -56.15,55.39 -145.66,58.24 -217.54,47.9" /><path
         id="path34"
         style="fill:#201d1d;fill-opacity:1;fill-rule:evenodd;stroke:none"
         d="m 6001.39,6669.25 c 0,0 -46.86,66.57 -118.81,81.96 -71.95,15.39 -103.75,-55.68 -98.73,-117.73 56.15,52.25 145.66,50.12 217.54,35.77" /><path
         id="path36"
         style="fill:#ffffff;fill-opacity:1;fill-rule:evenodd;stroke:none"
         d="m 4915.27,6991.2 c -60.02,253.81 217.35,339.89 383.9,415.39 160.28,72.66 189.82,197.85 -0.12,203.15 l -409.54,11.4 c -105.18,2.93 -96.89,-100.7 -97.98,-171.25 -2.17,-139.19 2.59,-360.35 123.74,-458.69" /><path
         id="path38"
         style="fill:#2c2a2a;fill-opacity:1;fill-rule:evenodd;stroke:none"
         d="m 7663.14,7412.92 c 210.84,432.14 -282.92,1015.35 -88.81,1316.11 -157.88,-27.77 -220.41,-95.05 -261.03,-225.19 0,0 -287.83,566.55 -1030.79,696.01 -742.96,129.47 -1137.86,172.81 -1305.2,462.62 0,0 -140.56,-363.53 -87.02,-626.64 0,0 -133.86,118.37 -184.06,278.51 0,0 -237.51,-373.43 -119.83,-754.59 -71.53,-317.36 -163.51,-678.79 -115.62,-1082.07 0,0 181.12,327.16 491.07,644.85 309.95,317.68 1422.97,251.64 1531.33,230.48 108.37,-21.17 833.49,-475.67 833.49,-475.67 121.14,-65.99 215.33,-398.42 336.47,-464.42" /><path
         id="path40"
         style="fill:#2c2a2a;fill-opacity:1;fill-rule:evenodd;stroke:none"
         d="m 4586.4,8559.75 c 0,0 -181.48,-149.73 -238.37,-358.98 0,0 224.22,134.31 425.03,158.83 200.79,24.53 -6.7,241.15 -186.66,200.15" /><path
         id="path42"
         style="fill:#3f3e40;fill-opacity:1;fill-rule:evenodd;stroke:none"
         d="m 5008.87,9422.38 c 0,0 -115.9,-356.27 24.05,-666.75 0,0 -238.23,134.63 -318.55,328.74 0,0 -63.59,-374.83 227.57,-642.57 l -63.59,297.86 c 0,0 261.04,-354.75 886.87,-394.91 0,0 -512.04,244.31 -652.6,726.23 0,0 366.83,-503.77 869.49,-412.53 -585.26,282.91 -715.06,405.01 -973.24,763.93" /><path
         id="path44"
         style="fill:#2c2a2a;fill-opacity:1;fill-rule:evenodd;stroke:none"
         d="m 6404.29,4847.46 426.85,-361.92 c 0,0 403.12,770.21 901.78,1278.91 -559.18,-60.67 -984.33,-697.89 -1328.63,-916.99" /><path
         id="path46"
         style="fill:#2c2a2a;fill-opacity:1;fill-rule:evenodd;stroke:none"
         d="m 6524.37,4011.72 c -92.3,49.16 -192.85,104.55 -296.09,138.43 -64.09,-51.7 -144.17,-83.35 -232.42,-85.93 -88.33,-2.59 -171.76,24.31 -241.47,72.18 -99.23,-39.81 -193.36,-100.98 -279.95,-155.43 -89.61,-56.36 -199.01,-84.07 -304.24,-56.4 -95.97,25.22 -183.89,99.49 -196.31,207.51 -8.5,73.83 22.61,140.73 75.12,186.69 65.48,57.32 27.93,239.95 17.93,317.41 -14.77,114.36 -43.61,250.39 33.24,345.82 87.54,108.72 234.86,75.88 348.78,31.82 107.25,-41.48 214.83,-86.04 318.72,-136.67 l 3.79,-1.85 c 52.44,29.02 112.16,46.19 176.17,48.07 63.9,1.87 125.25,-11.7 180.69,-37.48 l 3.32,1.92 c 97.88,56.55 200.1,107.24 302.35,154.87 108.6,50.58 251.77,91.93 351.21,-11.32 87.29,-90.62 73.79,-227.89 71.89,-342.74 -1.28,-77.79 -18.25,-262.02 53.44,-315.33 57.49,-42.73 95.99,-107.58 95.8,-181.67 -0.28,-108.4 -79.58,-187.56 -172.41,-218.32 -101.79,-33.73 -213.94,-12.51 -309.56,38.42" /><path
         id="path48"
         style="fill:#d6681c;fill-opacity:1;fill-rule:evenodd;stroke:none"
         d="m 6247.18,4803.34 c 58.79,32.15 137.74,72.71 240.13,120.4 275.09,128.11 248.47,-64.07 245.75,-228.87 -2.72,-164.81 -14.06,-336.13 107.75,-426.7 121.8,-90.55 -42.35,-258.53 -262.94,-141.05 -101.36,53.98 -184.02,95.91 -259.06,126.1 19.02,30.83 34.21,64.5 44.96,100.25 87.27,-25.32 244.21,-43.48 244.21,-43.48 -95.6,40.78 -174.98,118.31 -225.82,177.84 -0.1,5.96 -0.31,11.95 -0.65,17.97 -1.84,32.76 -7.13,64.56 -15.48,95.02 l 200.99,145.66 c -89.22,-7.93 -176.39,-35.35 -235.31,-57.7 -22.15,42.89 -50.83,81.56 -84.53,114.56" /><path
         id="path50"
         style="fill:#f5ab1a;fill-opacity:1;fill-rule:evenodd;stroke:none"
         d="m 5661.99,4786.2 c -62.2,28.6 -145.43,64.41 -252.83,105.95 -288.54,111.61 -240.47,-78.38 -219.3,-242.48 21.19,-164.11 51.69,-334.21 -59.57,-431.6 -111.25,-97.39 71.19,-255.2 277.88,-125.21 94.97,59.72 172.67,106.35 244.08,140.83 -22.41,29.62 -41.33,62.29 -56.04,97.3 -84.15,-30.34 -238.54,-57.63 -238.54,-57.63 90.71,46.24 161.14,128.16 205.15,190.47 -0.57,5.95 -1.03,11.93 -1.36,17.94 -1.85,32.77 -0.13,64.77 4.77,95.62 l -216.65,133.43 c 89.81,-2.69 179.77,-24.93 241.01,-43.75 17.27,44.04 41.51,84.26 71.4,119.13" /><path
         id="path52"
         style="fill:#d6681c;fill-opacity:1;fill-rule:evenodd;stroke:none"
         d="m 5248.5,4043.71 c 47.63,-0.6 102.73,13.34 159.67,49.15 94.97,59.72 172.67,106.35 244.08,140.83 -22.41,29.62 -41.33,62.29 -56.04,97.3 -84.15,-30.34 -238.54,-57.63 -238.54,-57.63 l 91.22,-30.64 c 0,0 -54.18,-153.26 -200.39,-199.01 z m 109.17,229.65 c 7.53,3.84 14.92,7.93 22.16,12.22 z m 205.15,190.47 c -0.57,5.95 -1.03,11.93 -1.36,17.94 -1.85,32.77 -0.13,64.77 4.77,95.62 l -8.28,5.1 -166.62,-110.04 171.49,-8.62" /><path
         id="path54"
         style="fill:#fae194;fill-opacity:1;fill-rule:evenodd;stroke:none"
         d="m 5196.21,4896.7 c -39.75,-48.99 -18.57,-152.32 -6.35,-247.03 21.19,-164.11 51.69,-334.21 -59.57,-431.6 -80.6,-70.55 -7.03,-172.79 118.21,-174.36 -133.9,96.88 92.1,213.68 45.26,441.19 -29.33,142.48 -107.81,271.19 -97.55,411.8" /><path
         id="path56"
         style="fill:#f5ab1a;fill-opacity:1;fill-rule:evenodd;stroke:none"
         d="m 5954.75,4796.64 c 116.53,-5.35 160.97,-43.56 180.46,-125.12 42.04,-175.96 -102.92,-346.94 -102.92,-346.94 129.86,45.3 197.5,165.46 213.98,256.28 7.87,-24.96 12.82,-51.31 14.35,-78.6 9.39,-167.26 -112.33,-306.63 -271.87,-311.31 -159.54,-4.67 -296.48,127.12 -305.87,294.38 -9.39,167.26 155.35,316.65 271.87,311.31" /><path
         id="path58"
         style="fill:#d6681c;fill-opacity:1;fill-rule:evenodd;stroke:none"
         d="m 6139.62,4648.66 c 25.3,-167.62 -107.33,-324.08 -107.33,-324.08 129.86,45.3 197.5,165.46 213.98,256.28 7.87,-24.96 12.82,-51.31 14.35,-78.6 9.39,-167.26 -112.33,-306.63 -271.87,-311.31 -27.05,-0.8 -53.44,2.35 -78.67,8.91 130.26,79.6 103.48,368.46 103.48,368.46 15.06,32.85 71.41,60.56 126.06,80.34" /><path
         id="path60"
         style="fill:#fae194;fill-opacity:1;fill-rule:evenodd;stroke:none"
         d="m 5841.91,4227.32 c -89.21,49.85 -152.74,145.97 -159.03,258.01 -4.08,72.67 24.72,141.96 68.15,196.67 24.99,-8.79 55.11,-27.1 91.46,-58.44 0,0 -99.22,-224.63 -0.58,-396.24" /><path
         id="path62"
         style="fill:#2c2a2a;fill-opacity:1;fill-rule:evenodd;stroke:none"
         d="m 5989.42,3936.74 c 61.92,0 112.11,-50.2 112.11,-112.12 0,-61.92 -50.19,-112.11 -112.11,-112.11 -61.92,0 -112.12,50.19 -112.12,112.11 0,61.92 50.2,112.12 112.12,112.12" /><path
         id="path64"
         style="fill:#3f3e40;fill-opacity:1;fill-rule:evenodd;stroke:none"
         d="m 4731.92,6903.57 c 0,0 -50.13,-498.32 -271.89,-691.05 l 222.8,16.99 -156.71,-175.6 c 0,0 360.63,-275.66 470.14,-489.03 0,0 -58.53,264.34 -241.68,511.69 0,0 118.95,200.14 122.73,409.72 0,0 -76.41,-67.99 -124.61,-117.06 37.94,191.98 45.95,347 -20.78,534.34" /><path
         id="path66"
         style="fill:#2c2a2a;fill-opacity:1;fill-rule:nonzero;stroke:none"
         d="m 3509.94,3383.76 c -59.53,58.69 -137.52,88.05 -214.67,88.05 -178.61,0 -303.55,-119.92 -302.71,-303.56 0,-160.16 103.14,-299.36 302.71,-299.36 87.21,0 160.16,33.54 221.39,94.75 v 219.7 h -247.38 v -39.41 h 204.61 v -164.35 c -50.32,-46.13 -115.72,-67.93 -178.62,-67.93 -171.06,0 -259.1,119.08 -259.1,257.44 -0.85,135.84 87.2,261.62 259.1,261.62 66.25,0 137.53,-25.15 188.68,-75.46 z m 173.58,37.73 h 360.58 v 42.77 h -405.02 v -587.82 h 415.08 v 43.6 h -370.64 v 231.44 h 343.8 v 41.08 h -343.8 z m 514.87,0 h 360.57 v 42.77 h -405.01 v -587.82 h 415.08 v 43.6 h -370.64 v 231.44 h 343.8 v 41.08 h -343.8 z m 882.99,-542.53 -322,303.55 295.17,277.55 v 4.2 h -54.51 l -285.1,-268.34 v 268.34 h -45.28 v -587.82 h 45.28 v 289.29 l 309.42,-289.29 h 57.02 z m 555.96,-2.52 h 164.35 v 586.98 h -172.74 l -154.29,-198.74 -154.29,198.74 h -173.58 v -586.98 h 164.35 v 348.83 l 146.75,-176.93 h 29.35 l 150.1,177.77 z m 903.11,293.48 c 0,195.39 -133.33,307.75 -326.19,307.75 -192.03,0 -326.19,-114.88 -326.19,-307.75 0,-196.21 134.16,-307.74 326.19,-307.74 192.86,0 326.19,111.53 326.19,307.74 z m -166.03,0 c 0,-97.26 -62.89,-166.02 -160.16,-166.02 -93.92,0 -160.16,67.91 -160.16,166.02 0,97.28 65.41,166.04 160.16,166.04 97.27,0 160.16,-65.41 160.16,-166.04 z m 393.28,293.5 h -140.88 v -586.98 h 167.71 v 187.83 l -2.51,128.29 244.86,-316.12 h 140.86 v 586.98 h -166.86 v -201.25 c 0.84,-22.64 0.84,-49.48 5.03,-119.91 z m 1048.18,0 h -198.74 c -49.46,-62.06 -103.98,-130.82 -154.29,-192.87 v 192.87 h -166.03 v -586.98 h 166.03 v 195.37 l 167.71,-195.37 h 205.45 v 10.05 c -81.34,93.09 -176.1,198.74 -258.28,289.31 l 238.15,277.56 z m 540.02,-446.94 h -306.07 v 88.88 h 277.57 v 135.01 h -277.57 v 83.85 h 294.33 v 139.2 h -457.84 v -586.98 h 469.58 z m 216.35,446.94 h -187 v -6.72 l 223.06,-346.31 v -233.95 h 166.03 v 233.95 l 233.11,345.48 v 7.55 h -187 l -126.61,-201.25 -121.59,201.25" /><path
         id="path68"
         style="fill:#2c2a2a;fill-opacity:1;fill-rule:nonzero;stroke:none"
         d="m 4124.11,2536.69 23.42,14.55 c -22,37.63 -57.15,45.09 -94.06,45.09 -42.96,0 -95.86,-17.75 -95.14,-69.58 0,-50.41 46.49,-61.42 94.42,-68.87 37.28,-5.68 72.06,-14.55 71.71,-45.44 0,-36.56 -40.11,-46.15 -70.29,-46.15 -30.53,0 -63.9,14.2 -79.87,43.67 l -25.56,-14.91 c 19.17,-41.54 61.06,-57.52 105.07,-57.52 47.58,0 100.82,18.12 101.18,73.84 0,56.1 -48.99,66.03 -98.69,73.85 -36.56,6.03 -67.44,13.84 -67.44,40.82 0,30.17 33.72,42.6 65.31,42.6 27.69,-0.36 56.45,-10.29 69.94,-31.95 z m 272.88,54.31 h -30.89 v -248.49 h 166.14 v 28.75 h -135.25 z m 439.02,4.26 c -78.46,0 -126.74,-57.15 -126.74,-129.21 0,-65.32 41.18,-128.52 126.38,-128.52 85.2,0 125.67,63.55 126.02,128.52 0.36,65.66 -41.52,128.86 -125.66,129.21 z m 94.78,-129.21 c 0,-48.99 -29.46,-99.4 -94.78,-99.4 -65.32,0 -95.85,48.99 -95.85,99.4 0,54.31 32.66,100.81 95.85,100.81 64.96,-0.71 95.14,-50.4 94.78,-100.81 z m 448.96,92.65 c -25.2,24.85 -58.22,37.27 -91.24,37.27 -80.94,0 -129.57,-57.15 -129.21,-131.34 0,-66.74 41.18,-126.73 129.57,-126.73 40.11,0 71,15.25 96.2,42.24 v 98.33 h -105.43 v -27.33 h 77.39 v -58.93 c -20.59,-17.76 -44.37,-25.21 -67.8,-25.21 -67.45,0 -99.41,47.21 -99.41,97.63 0,54.67 34.8,102.59 98.69,102.59 25.21,0 53.97,-10.3 73.49,-29.11 z m 300.21,32.3 -111.46,-248.49 h 33.72 l 24.14,54.67 h 141.99 l 24.5,-54.67 h 33.37 L 5714.76,2591 Z m 76.33,-165.43 h -117.86 l 58.93,134.19 z M 6027.4,2591 v -248.49 h 30.52 v 189.56 l 152.65,-189.56 h 21.3 V 2591 h -30.53 V 2400.73 L 6049.05,2591 Z m 787.26,-248.49 h 30.89 V 2591 h -30.89 V 2483.44 H 6672.67 V 2591 h -30.89 v -248.49 h 30.89 v 112.17 h 141.99 z m 259.04,0 h 180.34 v 29.46 h -149.81 v 84.14 h 138.09 v 28.75 h -138.09 v 77.74 h 144.13 V 2591 H 7073.7 Z m 561.85,0 h 39.04 l -82,91.94 c 51.12,4.26 71.71,39.41 71.35,77.03 0,40.47 -28.04,79.52 -84.13,79.52 h -112.89 v -248.49 h 30.89 v 89.45 h 60.34 z m -57.16,117.14 h -80.58 v 103.66 h 82 c 35.86,0 53.61,-27.68 53.25,-52.53 0,-28.05 -17.39,-51.13 -54.67,-51.13 z m 303.41,-117.14 h 180.34 v 29.46 h -149.8 v 84.14 h 138.08 v 28.75 h -138.08 v 77.74 h 144.12 V 2591 H 7881.8 v -248.49" /></g></g></svg>